{"glyphs":{"0":{"ha":477,"x_min":68,"x_max":576,"o":"m 201 130 l 332 130 l 442 651 l 312 651 l 201 130 m 71 130 l 182 651 q 240 743 193 705 q 340 781 286 781 l 470 781 q 554 743 524 781 q 576 680 576 715 q 572 651 576 666 l 462 130 q 404 38 450 76 q 304 0 358 0 l 174 0 q 90 38 120 0 q 68 101 68 65 q 71 130 68 115 z "},"1":{"ha":347,"x_min":43,"x_max":405,"o":"m 247 651 l 182 651 l 191 694 l 275 781 l 405 781 l 267 130 l 332 130 l 304 0 l 43 0 l 71 130 l 136 130 l 247 651 z "},"2":{"ha":477,"x_min":43,"x_max":576,"o":"m 312 651 l 284 521 l 154 521 l 182 651 q 239 743 193 705 q 340 781 286 781 l 470 781 q 554 743 524 781 q 576 680 576 716 q 572 651 576 666 l 531 456 l 205 148 l 201 130 l 462 130 l 434 0 l 43 0 l 85 195 l 411 503 l 442 651 l 312 651 z "},"3":{"ha":477,"x_min":68,"x_max":576,"o":"m 545 521 q 487 429 533 467 q 387 391 441 391 q 471 353 441 391 q 493 290 493 326 q 490 260 493 275 l 462 130 q 404 38 450 76 q 304 0 358 0 l 174 0 q 90 38 120 0 q 68 101 68 65 q 71 130 68 115 l 90 217 l 220 217 l 201 130 l 332 130 l 373 326 l 243 326 l 271 456 l 401 456 l 442 651 l 312 651 l 294 564 l 163 564 l 182 651 q 240 743 193 705 q 340 781 286 781 l 470 781 q 554 743 524 781 q 576 680 576 715 q 572 651 576 666 l 545 521 z "},"4":{"ha":477,"x_min":71,"x_max":600,"o":"m 99 260 l 448 781 l 600 781 l 252 260 l 359 260 l 396 434 l 526 434 l 434 0 l 304 0 l 332 130 l 71 130 l 99 260 z "},"5":{"ha":477,"x_min":68,"x_max":557,"o":"m 557 781 l 529 651 l 357 651 l 286 462 q 302 483 293 473 q 371 521 335 521 l 414 521 q 498 483 469 521 q 520 420 520 456 q 517 391 520 406 l 462 130 q 404 38 450 76 q 304 0 357 0 l 174 0 q 90 38 119 0 q 68 101 68 65 q 71 130 68 115 l 90 217 l 220 217 l 201 130 l 332 130 l 387 391 l 126 391 l 274 781 l 557 781 z "},"6":{"ha":477,"x_min":68,"x_max":520,"o":"m 387 391 l 256 391 l 201 130 l 332 130 l 387 391 m 371 521 l 414 521 q 498 483 469 521 q 520 420 520 456 q 517 391 520 406 l 462 130 q 404 38 450 76 q 304 0 357 0 l 174 0 q 90 38 119 0 q 68 101 68 65 q 71 130 68 115 l 126 391 l 335 781 l 475 781 l 329 507 q 371 521 350 521 z "},"7":{"ha":477,"x_min":43,"x_max":600,"o":"m 600 781 l 184 0 l 43 0 l 391 651 l 182 651 l 210 781 l 600 781 z "},"8":{"ha":477,"x_min":68,"x_max":576,"o":"m 401 456 l 442 651 l 312 651 l 271 456 l 401 456 m 470 781 q 554 743 524 781 q 576 680 576 716 q 572 651 576 666 l 531 456 q 483 410 525 429 q 387 391 440 391 q 475 372 441 391 q 504 334 504 355 q 503 326 504 330 l 462 130 q 404 38 450 76 q 304 0 358 0 l 174 0 q 90 38 119 0 q 68 101 68 65 q 71 130 68 115 l 113 326 q 160 372 119 353 q 256 391 202 391 q 169 410 203 391 q 140 448 140 426 q 140 456 140 452 l 182 651 q 239 743 193 705 q 340 781 286 781 l 470 781 m 243 326 l 201 130 l 332 130 l 373 326 l 243 326 z "},"9":{"ha":477,"x_min":123,"x_max":576,"o":"m 256 391 l 387 391 l 442 651 l 312 651 l 256 391 m 273 260 l 229 260 q 145 298 175 260 q 123 362 123 326 q 126 391 123 376 l 182 651 q 240 743 193 705 q 340 781 286 781 l 470 781 q 554 743 524 781 q 576 680 576 716 q 572 651 576 666 l 517 391 l 309 0 l 168 0 l 315 274 q 273 260 294 260 z "},"\u0000":{"ha":477,"x_min":43,"x_max":600,"o":"m 442 651 l 312 651 l 201 130 l 332 130 l 442 651 m 600 781 l 434 0 l 43 0 l 210 781 l 600 781 z "},"\u001d":{"ha":477,"x_min":43,"x_max":600,"o":"m 442 651 l 312 651 l 201 130 l 332 130 l 442 651 m 600 781 l 434 0 l 43 0 l 210 781 l 600 781 z "}," ":{"ha":260,"x_min":0,"x_max":0,"o":""}," ":{"ha":260,"x_min":0,"x_max":0,"o":""},"a":{"ha":477,"x_min":68,"x_max":548,"o":"m 332 130 l 373 326 l 243 326 l 201 130 l 332 130 m 332 130 q 287 38 320 76 q 217 0 253 0 l 174 0 q 90 38 120 0 q 68 101 68 65 q 71 130 68 115 l 113 326 q 158 418 124 380 q 227 456 191 456 l 271 456 q 355 418 325 456 q 376 355 376 391 q 374 330 376 342 l 414 521 l 197 521 q 255 613 209 575 q 355 651 301 651 l 442 651 q 526 613 496 651 q 548 549 548 585 q 545 521 548 536 l 434 0 l 347 0 l 332 130 z "},"b":{"ha":477,"x_min":43,"x_max":548,"o":"m 201 130 l 332 130 l 414 521 l 284 521 l 201 130 m 201 130 l 130 0 l 43 0 l 210 781 l 340 781 l 287 531 q 330 613 299 578 q 399 651 363 651 l 442 651 q 526 613 496 651 q 548 549 548 585 q 545 521 548 536 l 462 130 q 404 38 450 76 q 304 0 357 0 l 260 0 q 207 38 224 0 q 197 89 197 60 q 201 130 197 109 z "},"c":{"ha":477,"x_min":68,"x_max":548,"o":"m 332 130 l 350 217 l 480 217 l 462 130 q 404 38 450 76 q 304 0 358 0 l 174 0 q 90 38 120 0 q 68 101 68 65 q 71 130 68 115 l 154 521 q 212 613 165 574 q 312 651 258 651 l 442 651 q 526 613 496 651 q 548 549 548 585 q 545 521 548 536 l 526 434 l 396 434 l 414 521 l 284 521 l 201 130 l 332 130 z "},"d":{"ha":477,"x_min":68,"x_max":600,"o":"m 470 781 l 600 781 l 434 0 l 347 0 l 332 130 l 470 781 m 332 130 q 287 38 320 76 q 217 0 253 0 l 174 0 q 90 38 120 0 q 68 101 68 65 q 71 130 68 115 l 154 521 q 212 613 165 574 q 312 651 258 651 l 355 651 q 409 613 391 651 q 419 562 419 590 q 414 521 419 543 l 284 521 l 201 130 l 332 130 z "},"e":{"ha":477,"x_min":68,"x_max":548,"o":"m 256 391 l 387 391 l 414 521 l 284 521 l 256 391 m 332 130 l 345 195 l 475 195 l 462 130 q 404 38 450 76 q 304 0 358 0 l 174 0 q 90 38 120 0 q 68 101 68 65 q 71 130 68 115 l 154 521 q 212 613 165 574 q 312 651 258 651 l 442 651 q 526 613 496 651 q 548 549 548 585 q 545 521 548 536 l 490 260 l 229 260 l 201 130 l 332 130 z "},"f":{"ha":347,"x_min":109,"x_max":470,"o":"m 239 0 l 109 0 l 205 456 l 140 456 l 168 586 l 233 586 l 247 651 q 305 743 258 705 q 405 781 351 781 l 470 781 l 442 651 l 377 651 l 363 586 l 429 586 l 401 456 l 336 456 l 239 0 z "},"g":{"ha":477,"x_min":59,"x_max":572,"o":"m 355 651 q 409 613 391 651 q 419 562 419 591 q 414 521 419 543 l 284 521 l 210 174 l 340 174 q 296 82 330 120 q 227 43 262 43 l 183 43 q 99 82 129 43 q 77 146 77 110 q 80 174 77 159 l 154 521 q 212 613 165 575 q 312 651 258 651 l 355 651 m 414 521 l 486 651 l 572 651 l 434 0 q 376 -92 422 -54 q 276 -130 330 -130 l 59 -130 l 174 0 l 304 0 l 414 521 z "},"h":{"ha":477,"x_min":43,"x_max":548,"o":"m 284 521 l 174 0 l 43 0 l 210 781 l 340 781 l 287 531 q 330 613 299 578 q 399 651 363 651 l 442 651 q 526 613 496 651 q 548 550 548 586 q 545 521 548 536 l 434 0 l 304 0 l 414 521 l 284 521 z "},"i":{"ha":217,"x_min":43,"x_max":340,"o":"m 174 0 l 43 0 l 182 651 l 312 651 l 174 0 m 210 781 l 340 781 l 326 716 l 195 716 l 210 781 z "},"j":{"ha":260,"x_min":-71,"x_max":383,"o":"m 253 781 l 383 781 l 369 716 l 239 716 l 253 781 m 225 651 l 355 651 l 217 0 q 159 -92 205 -54 q 59 -130 113 -130 l -71 -130 l 43 0 l 87 0 l 225 651 z "},"k":{"ha":477,"x_min":43,"x_max":572,"o":"m 210 781 l 340 781 l 245 338 l 432 651 l 572 651 l 334 252 l 434 0 l 281 0 l 211 177 l 174 0 l 43 0 l 210 781 z "},"l":{"ha":217,"x_min":66,"x_max":340,"o":"m 210 781 l 340 781 l 174 0 l 130 0 q 77 38 94 0 q 66 89 66 60 q 71 130 66 109 l 210 781 z "},"m":{"ha":608,"x_min":43,"x_max":678,"o":"m 182 651 l 269 651 l 284 521 l 174 0 l 43 0 l 182 651 m 479 521 l 369 0 l 239 0 l 349 521 l 284 521 q 323 613 296 575 q 377 651 350 651 q 461 613 431 651 q 483 550 483 586 q 480 524 483 537 q 518 613 492 576 q 572 651 545 651 q 656 613 627 651 q 678 550 678 586 q 675 521 678 536 l 564 0 l 434 0 l 545 521 l 479 521 z "},"n":{"ha":477,"x_min":43,"x_max":548,"o":"m 284 521 q 329 613 296 575 q 399 651 363 651 l 442 651 q 526 613 496 651 q 548 550 548 586 q 545 521 548 536 l 434 0 l 304 0 l 414 521 l 284 521 m 182 651 l 269 651 l 284 521 l 174 0 l 43 0 l 182 651 z "},"o":{"ha":477,"x_min":68,"x_max":548,"o":"m 201 130 l 332 130 l 414 521 l 284 521 l 201 130 m 71 130 l 154 521 q 212 613 165 574 q 312 651 258 651 l 442 651 q 526 613 496 651 q 548 549 548 585 q 545 521 548 536 l 462 130 q 404 38 450 76 q 304 0 358 0 l 174 0 q 90 38 120 0 q 68 101 68 65 q 71 130 68 115 z "},"p":{"ha":477,"x_min":16,"x_max":548,"o":"m 146 -130 l 16 -130 l 182 651 l 269 651 l 284 521 l 146 -130 m 284 521 q 329 613 296 575 q 399 651 363 651 l 442 651 q 526 613 496 651 q 548 550 548 586 q 545 521 548 536 l 462 130 q 404 38 450 76 q 304 0 357 0 l 260 0 q 207 38 224 0 q 197 89 197 60 q 201 130 197 109 l 332 130 l 414 521 l 284 521 z "},"q":{"ha":477,"x_min":68,"x_max":572,"o":"m 414 521 l 284 521 l 201 130 l 332 130 l 414 521 m 414 521 l 486 651 l 572 651 l 406 -130 l 276 -130 l 329 119 q 287 38 317 72 q 217 0 253 0 l 174 0 q 90 38 120 0 q 68 101 68 65 q 71 130 68 115 l 154 521 q 212 613 165 575 q 312 651 258 651 l 355 651 q 409 613 391 651 q 419 562 419 591 q 414 521 419 543 z "},"r":{"ha":477,"x_min":43,"x_max":548,"o":"m 545 521 l 526 434 l 396 434 l 414 521 l 284 521 q 329 613 296 575 q 399 651 363 651 l 442 651 q 526 613 496 651 q 548 550 548 586 q 545 521 548 536 m 182 651 l 269 651 l 284 521 l 174 0 l 43 0 l 182 651 z "},"s":{"ha":477,"x_min":68,"x_max":548,"o":"m 174 0 q 90 38 120 0 q 68 101 68 65 q 71 130 68 115 l 72 130 l 90 217 l 220 217 l 202 130 l 332 130 l 335 148 l 140 456 l 154 521 q 212 613 165 575 q 312 651 258 651 l 442 651 q 526 613 496 651 q 548 550 548 586 q 545 521 548 536 l 526 434 l 396 434 l 414 521 l 284 521 l 281 503 l 475 195 l 462 130 q 404 38 450 76 q 304 0 358 0 l 174 0 z "},"t":{"ha":347,"x_min":133,"x_max":442,"o":"m 267 130 l 332 130 l 304 0 l 239 0 q 155 38 185 0 q 133 101 133 65 q 136 130 133 115 l 219 521 l 154 521 l 182 651 l 247 651 l 275 781 l 405 781 l 377 651 l 442 651 l 414 521 l 349 521 l 267 130 z "},"u":{"ha":477,"x_min":68,"x_max":572,"o":"m 332 130 q 287 38 320 76 q 217 0 253 0 l 174 0 q 90 38 120 0 q 68 101 68 65 q 71 130 68 115 l 182 651 l 312 651 l 201 130 l 332 130 m 442 651 l 572 651 l 434 0 l 347 0 l 332 130 l 442 651 z "},"v":{"ha":477,"x_min":172,"x_max":572,"o":"m 172 0 l 182 651 l 314 651 l 294 260 l 440 651 l 572 651 l 306 0 l 172 0 z "},"w":{"ha":738,"x_min":172,"x_max":833,"o":"m 172 0 l 182 651 l 314 651 l 294 260 l 440 651 l 574 651 l 555 260 l 701 651 l 833 651 l 566 0 l 432 0 l 452 391 l 306 0 l 172 0 z "},"x":{"ha":477,"x_min":43,"x_max":572,"o":"m 378 326 l 434 0 l 294 0 l 280 195 l 184 0 l 43 0 l 238 326 l 182 651 l 322 651 l 336 456 l 432 651 l 572 651 l 378 326 z "},"y":{"ha":477,"x_min":16,"x_max":572,"o":"m 16 -130 l 87 0 l 172 0 l 182 651 l 314 651 l 294 260 l 440 651 l 572 651 l 306 0 l 304 0 q 246 -92 292 -54 q 146 -130 200 -130 l 16 -130 z "},"z":{"ha":477,"x_min":43,"x_max":572,"o":"m 43 0 l 71 130 l 392 521 l 154 521 l 182 651 l 572 651 l 545 521 l 224 130 l 462 130 l 434 0 l 43 0 z "},"A":{"ha":477,"x_min":43,"x_max":515,"o":"m 331 260 l 377 651 l 258 260 l 331 260 m 434 0 l 304 0 l 317 130 l 216 130 l 174 0 l 43 0 l 295 781 l 515 781 l 434 0 z "},"B":{"ha":477,"x_min":43,"x_max":532,"o":"m 271 456 l 357 456 l 399 651 l 312 651 l 271 456 m 503 326 l 462 130 q 404 38 450 76 q 304 0 357 0 l 43 0 l 210 781 l 427 781 q 511 743 481 781 q 532 680 532 716 q 529 651 532 666 l 488 456 q 439 410 481 429 q 343 391 397 391 l 387 391 q 475 372 441 391 q 504 334 504 355 q 503 326 504 330 m 332 130 l 373 326 l 243 326 l 201 130 l 332 130 z "},"C":{"ha":477,"x_min":68,"x_max":576,"o":"m 332 130 l 359 260 l 490 260 l 462 130 q 404 38 450 76 q 304 0 358 0 l 174 0 q 90 38 120 0 q 68 101 68 65 q 71 130 68 115 l 182 651 q 240 743 193 705 q 340 781 286 781 l 470 781 q 554 743 524 781 q 576 680 576 715 q 572 651 576 666 l 545 521 l 414 521 l 442 651 l 312 651 l 201 130 l 332 130 z "},"D":{"ha":477,"x_min":43,"x_max":576,"o":"m 442 651 l 312 651 l 201 130 l 332 130 l 442 651 m 462 130 q 404 38 450 76 q 304 0 357 0 l 43 0 l 210 781 l 470 781 q 553 743 524 781 q 576 680 576 715 q 572 651 576 666 l 462 130 z "},"E":{"ha":477,"x_min":43,"x_max":600,"o":"m 600 781 l 572 651 l 312 651 l 271 456 l 488 456 l 460 326 l 243 326 l 201 130 l 462 130 l 434 0 l 43 0 l 210 781 l 600 781 z "},"F":{"ha":477,"x_min":43,"x_max":600,"o":"m 600 781 l 572 651 l 312 651 l 271 456 l 488 456 l 460 326 l 243 326 l 174 0 l 43 0 l 210 781 l 600 781 z "},"G":{"ha":477,"x_min":68,"x_max":576,"o":"m 373 326 l 330 326 l 357 456 l 531 456 l 434 0 l 347 0 l 332 130 l 373 326 m 572 651 l 554 564 l 424 564 l 442 651 l 312 651 l 201 130 l 332 130 q 287 38 320 76 q 217 0 253 0 l 174 0 q 90 38 120 0 q 68 101 68 65 q 71 130 68 115 l 182 651 q 240 743 193 705 q 340 781 286 781 l 470 781 q 554 743 524 781 q 576 680 576 715 q 572 651 576 666 z "},"H":{"ha":477,"x_min":43,"x_max":600,"o":"m 210 781 l 340 781 l 271 456 l 401 456 l 470 781 l 600 781 l 434 0 l 304 0 l 373 326 l 243 326 l 174 0 l 43 0 l 210 781 z "},"I":{"ha":217,"x_min":43,"x_max":340,"o":"m 174 0 l 43 0 l 210 781 l 340 781 l 174 0 z "},"J":{"ha":477,"x_min":68,"x_max":600,"o":"m 174 0 q 90 38 120 0 q 68 101 68 65 q 71 130 68 115 l 72 130 l 100 260 l 230 260 l 202 130 l 332 130 l 470 781 l 600 781 l 462 130 q 404 38 450 76 q 304 0 358 0 l 174 0 z "},"K":{"ha":477,"x_min":43,"x_max":600,"o":"m 229 260 l 174 0 l 43 0 l 210 781 l 340 781 l 256 391 l 460 781 l 600 781 l 345 302 l 434 0 l 281 0 l 229 260 z "},"L":{"ha":412,"x_min":43,"x_max":397,"o":"m 210 781 l 340 781 l 201 130 l 397 130 l 369 0 l 43 0 l 210 781 z "},"M":{"ha":738,"x_min":43,"x_max":861,"o":"m 256 391 l 174 0 l 43 0 l 210 781 l 350 781 l 410 195 l 720 781 l 861 781 l 694 0 l 564 0 l 647 391 l 444 0 l 294 0 l 256 391 z "},"N":{"ha":477,"x_min":43,"x_max":600,"o":"m 210 781 l 350 781 l 387 391 l 470 781 l 600 781 l 434 0 l 294 0 l 256 391 l 174 0 l 43 0 l 210 781 z "},"O":{"ha":477,"x_min":68,"x_max":576,"o":"m 201 130 l 332 130 l 442 651 l 312 651 l 201 130 m 71 130 l 182 651 q 240 743 193 705 q 340 781 286 781 l 470 781 q 554 743 524 781 q 576 680 576 715 q 572 651 576 666 l 462 130 q 404 38 450 76 q 304 0 358 0 l 174 0 q 90 38 120 0 q 68 101 68 65 q 71 130 68 115 z "},"P":{"ha":477,"x_min":43,"x_max":576,"o":"m 442 651 l 312 651 l 256 391 l 387 391 l 442 651 m 572 651 l 517 391 q 459 298 505 336 q 359 260 413 260 l 229 260 l 174 0 l 43 0 l 210 781 l 470 781 q 553 743 524 781 q 576 680 576 715 q 572 651 576 666 z "},"Q":{"ha":477,"x_min":68,"x_max":576,"o":"m 201 130 l 332 130 l 442 651 l 312 651 l 201 130 m 71 130 l 182 651 q 240 743 193 705 q 340 781 286 781 l 470 781 q 554 743 524 781 q 576 680 576 715 q 572 651 576 666 l 462 130 l 304 0 l 434 0 l 363 -130 l 233 -130 q 180 -92 197 -130 q 169 -41 169 -69 q 174 0 169 -22 q 90 38 120 0 q 68 101 68 65 q 71 130 68 115 z "},"R":{"ha":477,"x_min":43,"x_max":576,"o":"m 442 651 l 312 651 l 256 391 l 387 391 l 442 651 m 572 651 l 517 391 q 459 298 505 336 q 389 263 426 271 l 434 0 l 294 0 l 249 260 l 229 260 l 174 0 l 43 0 l 210 781 l 470 781 q 553 743 524 781 q 576 680 576 715 q 572 651 576 666 z "},"S":{"ha":477,"x_min":68,"x_max":576,"o":"m 174 0 q 90 38 120 0 q 68 101 68 65 q 71 130 68 115 l 72 130 l 100 260 l 230 260 l 202 130 l 332 130 l 349 213 l 154 521 l 182 651 q 240 743 193 705 q 340 781 286 781 l 470 781 q 554 743 524 781 q 576 680 576 716 q 572 651 576 666 l 545 521 l 414 521 l 442 651 l 312 651 l 294 568 l 490 260 l 462 130 q 404 38 450 76 q 304 0 358 0 l 174 0 z "},"T":{"ha":477,"x_min":174,"x_max":600,"o":"m 304 0 l 174 0 l 312 651 l 182 651 l 210 781 l 600 781 l 572 651 l 442 651 l 304 0 z "},"U":{"ha":477,"x_min":68,"x_max":600,"o":"m 470 781 l 600 781 l 462 130 q 404 38 450 76 q 304 0 358 0 l 174 0 q 90 38 120 0 q 68 101 68 65 q 71 130 68 115 l 210 781 l 340 781 l 201 130 l 332 130 l 470 781 z "},"V":{"ha":477,"x_min":172,"x_max":600,"o":"m 172 0 l 210 781 l 342 781 l 294 260 l 468 781 l 600 781 l 306 0 l 172 0 z "},"W":{"ha":738,"x_min":172,"x_max":861,"o":"m 566 0 l 432 0 l 452 391 l 306 0 l 172 0 l 210 781 l 342 781 l 294 260 l 468 781 l 602 781 l 555 260 l 728 781 l 861 781 l 566 0 z "},"X":{"ha":477,"x_min":43,"x_max":600,"o":"m 392 391 l 434 0 l 294 0 l 294 260 l 184 0 l 43 0 l 252 391 l 210 781 l 350 781 l 349 521 l 460 781 l 600 781 l 392 391 z "},"Y":{"ha":477,"x_min":174,"x_max":600,"o":"m 321 391 l 468 781 l 600 781 l 359 260 l 304 0 l 174 0 l 229 260 l 210 781 l 342 781 l 321 391 z "},"Z":{"ha":477,"x_min":43,"x_max":600,"o":"m 43 0 l 71 130 l 420 651 l 182 651 l 210 781 l 600 781 l 572 651 l 224 130 l 462 130 l 434 0 l 43 0 z "},".":{"ha":217,"x_min":43,"x_max":201,"o":"m 71 130 l 201 130 l 174 0 l 43 0 l 71 130 z "},":":{"ha":217,"x_min":43,"x_max":312,"o":"m 71 130 l 201 130 l 174 0 l 43 0 l 71 130 m 182 651 l 312 651 l 284 521 l 154 521 l 182 651 z "},",":{"ha":217,"x_min":16,"x_max":201,"o":"m 71 130 l 201 130 l 164 -43 l 16 -130 l 71 130 z "},";":{"ha":217,"x_min":16,"x_max":312,"o":"m 71 130 l 201 130 l 164 -43 l 16 -130 l 71 130 m 182 651 l 312 651 l 284 521 l 154 521 l 182 651 z "},"'":{"ha":217,"x_min":182,"x_max":340,"o":"m 197 521 l 182 651 l 210 781 l 340 781 l 312 651 l 241 521 l 197 521 z "},"\"":{"ha":412,"x_min":182,"x_max":535,"o":"m 197 521 l 182 651 l 210 781 l 340 781 l 312 651 l 241 521 l 197 521 m 393 521 l 377 651 l 405 781 l 535 781 l 507 651 l 436 521 l 393 521 z "},"(":{"ha":347,"x_min":126,"x_max":498,"o":"m 126 391 l 366 911 l 498 911 l 258 391 l 276 -130 l 144 -130 l 126 391 z "},"!":{"ha":217,"x_min":43,"x_max":340,"o":"m 174 0 l 43 0 l 71 130 l 201 130 l 174 0 m 256 391 l 176 217 l 133 217 l 126 391 l 210 781 l 340 781 l 256 391 z "},"?":{"ha":477,"x_min":154,"x_max":576,"o":"m 304 0 l 174 0 l 201 130 l 332 130 l 304 0 m 359 260 l 350 217 l 220 217 l 229 260 l 414 521 l 442 651 l 312 651 l 284 521 l 154 521 l 182 651 q 239 743 193 705 q 340 781 286 781 l 470 781 q 554 743 524 781 q 576 680 576 716 q 572 651 576 666 l 545 521 l 359 260 z "},")":{"ha":347,"x_min":16,"x_max":387,"o":"m 254 391 l 237 911 l 370 911 l 387 391 l 148 -130 l 16 -130 l 254 391 z "},"+":{"ha":477,"x_min":99,"x_max":517,"o":"m 256 391 l 284 521 l 414 521 l 387 391 l 517 391 l 490 260 l 359 260 l 332 130 l 201 130 l 229 260 l 99 260 l 126 391 l 256 391 z "},"-":{"ha":347,"x_min":99,"x_max":387,"o":"m 387 391 l 359 260 l 99 260 l 126 391 l 387 391 z "},"*":{"ha":477,"x_min":161,"x_max":566,"o":"m 435 553 l 500 471 l 444 425 l 379 507 l 354 391 l 289 391 l 314 507 l 214 425 l 178 471 l 277 553 l 161 553 l 175 618 l 292 618 l 227 701 l 282 747 l 347 665 l 372 781 l 437 781 l 412 665 l 513 747 l 549 701 l 449 618 l 566 618 l 551 553 l 435 553 z "},"/":{"ha":347,"x_min":16,"x_max":470,"o":"m 148 -130 l 16 -130 l 338 781 l 470 781 l 148 -130 z "},"=":{"ha":347,"x_min":80,"x_max":406,"o":"m 80 174 l 99 260 l 359 260 l 340 174 l 80 174 m 126 391 l 145 477 l 406 477 l 387 391 l 126 391 z "},"\\":{"ha":347,"x_min":144,"x_max":342,"o":"m 144 -130 l 210 781 l 342 781 l 276 -130 l 144 -130 z "},"#":{"ha":608,"x_min":76,"x_max":698,"o":"m 380 456 l 331 326 l 394 326 l 443 456 l 380 456 m 199 326 l 248 456 l 140 456 l 168 586 l 297 586 l 370 781 l 503 781 l 429 586 l 492 586 l 566 781 l 698 781 l 625 586 l 689 586 l 661 456 l 575 456 l 526 326 l 633 326 l 606 195 l 477 195 l 404 0 l 271 0 l 345 195 l 281 195 l 208 0 l 76 0 l 149 195 l 85 195 l 113 326 l 199 326 z "},"☡":{"ha":477,"x_min":43,"x_max":535,"o":"m 349 521 l 176 0 l 43 0 l 338 781 l 535 781 l 397 130 l 462 130 l 434 0 l 239 0 l 349 521 z "},"�":{"ha":608,"x_min":126,"x_max":647,"o":"m 394 195 l 296 195 l 276 98 l 374 98 l 394 195 m 415 293 l 554 488 l 575 586 q 577 607 577 597 q 558 659 577 634 q 498 684 538 684 l 400 684 q 325 655 359 684 q 282 586 290 627 l 261 488 l 359 488 l 380 586 l 477 586 l 456 488 l 317 293 l 311 260 l 408 260 l 415 293 m 366 -130 l 186 -130 l 126 391 l 408 911 l 587 911 l 647 391 l 366 -130 z "},"￼":{"ha":738,"x_min":97,"x_max":819,"o":"m 427 423 l 470 423 l 490 521 l 447 521 l 427 423 m 543 358 l 522 260 q 493 214 516 233 q 443 195 470 195 l 313 195 l 396 586 l 505 586 q 547 567 532 586 q 557 536 557 553 q 555 521 557 529 l 535 423 q 511 400 532 410 q 463 391 490 391 l 484 391 q 528 381 511 391 q 543 361 543 373 l 543 358 m 457 260 l 477 358 l 412 358 l 392 260 l 457 260 m 164 260 l 229 260 l 284 521 l 219 521 l 164 260 m 99 260 l 154 521 q 183 567 160 548 q 233 586 206 586 l 298 586 q 340 567 326 586 q 351 536 351 553 q 349 521 351 529 l 294 260 q 265 214 288 233 q 215 195 242 195 l 150 195 q 108 214 123 195 q 97 245 97 228 q 99 260 97 252 m 606 195 q 564 214 579 195 q 553 245 553 228 q 555 260 553 252 l 569 326 l 634 326 l 620 260 l 685 260 l 754 586 l 819 586 l 750 260 q 721 214 744 233 q 671 195 698 195 l 606 195 z "},"[":{"ha":347,"x_min":16,"x_max":498,"o":"m 498 911 l 470 781 l 340 781 l 174 0 l 304 0 l 276 -130 l 16 -130 l 237 911 l 498 911 z "},"]":{"ha":347,"x_min":16,"x_max":498,"o":"m 340 781 l 210 781 l 237 911 l 498 911 l 276 -130 l 16 -130 l 43 0 l 174 0 l 340 781 z "},"{":{"ha":347,"x_min":105,"x_max":498,"o":"m 275 781 q 333 873 286 836 q 433 911 379 911 l 498 911 l 470 781 l 405 781 l 349 521 q 292 429 338 467 q 260 408 276 416 l 253 374 q 276 353 266 366 q 298 290 298 326 q 294 260 298 275 l 239 0 l 304 0 l 276 -130 l 211 -130 q 127 -92 157 -130 q 105 -28 105 -64 q 109 0 105 -15 l 168 277 q 146 298 155 286 q 123 363 123 326 q 126 391 123 376 q 184 483 138 445 q 216 504 199 495 l 275 781 z "},"}":{"ha":347,"x_min":16,"x_max":408,"o":"m 405 781 l 346 504 q 368 483 358 495 q 390 419 390 455 q 387 391 390 406 q 329 298 375 336 q 298 277 314 286 l 239 0 q 181 -92 227 -54 q 81 -130 134 -130 l 16 -130 l 43 0 l 109 0 l 164 260 q 222 353 176 315 q 253 374 237 366 l 260 408 q 237 429 248 416 q 216 492 216 456 q 219 521 216 506 l 275 781 l 210 781 l 237 911 l 302 911 q 386 873 356 911 q 408 810 408 846 q 405 781 408 796 z "},"_":{"ha":477,"x_min":16,"x_max":434,"o":"m 434 0 l 406 -130 l 16 -130 l 43 0 l 434 0 z "},"‾":{"ha":477,"x_min":210,"x_max":628,"o":"m 628 911 l 600 781 l 210 781 l 237 911 l 628 911 z "},"…":{"ha":608,"x_min":43,"x_max":592,"o":"m 71 130 l 201 130 l 174 0 l 43 0 l 71 130 m 267 130 l 397 130 l 369 0 l 239 0 l 267 130 m 462 130 l 592 130 l 564 0 l 434 0 l 462 130 z "},"­":{"ha":347,"x_min":99,"x_max":387,"o":"m 387 391 l 359 260 l 99 260 l 126 391 l 387 391 z "},"−":{"ha":477,"x_min":99,"x_max":517,"o":"m 517 391 l 490 260 l 99 260 l 126 391 l 517 391 z "},"‐":{"ha":347,"x_min":99,"x_max":387,"o":"m 387 391 l 359 260 l 99 260 l 126 391 l 387 391 z "},"‑":{"ha":391,"x_min":56,"x_max":473,"o":"m 473 391 l 446 260 l 56 260 l 83 391 l 473 391 z "},"‒":{"ha":477,"x_min":99,"x_max":517,"o":"m 517 391 l 490 260 l 99 260 l 126 391 l 517 391 z "},"–":{"ha":477,"x_min":99,"x_max":517,"o":"m 517 391 l 490 260 l 99 260 l 126 391 l 517 391 z "},"—":{"ha":608,"x_min":99,"x_max":647,"o":"m 647 391 l 620 260 l 99 260 l 126 391 l 647 391 z "},"―":{"ha":868,"x_min":99,"x_max":907,"o":"m 907 391 l 880 260 l 99 260 l 126 391 l 907 391 z "},"|":{"ha":217,"x_min":16,"x_max":368,"o":"m 237 911 l 368 911 l 146 -130 l 16 -130 l 237 911 z "},"¦":{"ha":217,"x_min":16,"x_max":368,"o":"m 146 -130 l 16 -130 l 99 260 l 229 260 l 146 -130 m 237 911 l 368 911 l 284 521 l 154 521 l 237 911 z "},"⁄":{"ha":347,"x_min":43,"x_max":470,"o":"m 176 0 l 43 0 l 338 781 l 470 781 l 176 0 z "},"∕":{"ha":347,"x_min":43,"x_max":470,"o":"m 176 0 l 43 0 l 338 781 l 470 781 l 176 0 z "},"·":{"ha":217,"x_min":113,"x_max":271,"o":"m 140 456 l 271 456 l 243 326 l 113 326 l 140 456 z "},"∙":{"ha":217,"x_min":99,"x_max":256,"o":"m 126 391 l 256 391 l 229 260 l 99 260 l 126 391 z "},"•":{"ha":347,"x_min":123,"x_max":390,"o":"m 229 260 q 145 298 175 260 q 123 363 123 326 q 126 391 123 376 q 184 483 138 445 q 284 521 231 521 q 368 483 338 521 q 390 420 390 456 q 387 391 390 406 q 329 298 376 336 q 229 260 283 260 z "},"‣":{"ha":347,"x_min":99,"x_max":387,"o":"m 387 391 l 99 260 l 154 521 l 387 391 z "},"‥":{"ha":412,"x_min":43,"x_max":397,"o":"m 71 130 l 201 130 l 174 0 l 43 0 l 71 130 m 267 130 l 397 130 l 369 0 l 239 0 l 267 130 z "},"․":{"ha":217,"x_min":43,"x_max":201,"o":"m 71 130 l 201 130 l 174 0 l 43 0 l 71 130 z "},"¬":{"ha":477,"x_min":113,"x_max":531,"o":"m 475 195 l 345 195 l 373 326 l 113 326 l 140 456 l 531 456 l 475 195 z "},"⌐":{"ha":477,"x_min":85,"x_max":531,"o":"m 243 326 l 215 195 l 85 195 l 140 456 l 531 456 l 503 326 l 243 326 z "},"ʹ":{"ha":217,"x_min":182,"x_max":340,"o":"m 197 521 l 182 651 l 210 781 l 340 781 l 312 651 l 241 521 l 197 521 z "},"ʺ":{"ha":412,"x_min":182,"x_max":535,"o":"m 197 521 l 182 651 l 210 781 l 340 781 l 312 651 l 241 521 l 197 521 m 393 521 l 377 651 l 405 781 l 535 781 l 507 651 l 436 521 l 393 521 z "},"ʻ":{"ha":217,"x_min":182,"x_max":340,"o":"m 197 521 l 182 651 l 210 781 l 340 781 l 312 651 l 241 521 l 197 521 z "},"ʼ":{"ha":217,"x_min":182,"x_max":340,"o":"m 197 521 l 182 651 l 210 781 l 340 781 l 312 651 l 241 521 l 197 521 z "},"ʽ":{"ha":217,"x_min":182,"x_max":340,"o":"m 197 521 l 182 651 l 210 781 l 340 781 l 312 651 l 241 521 l 197 521 z "},"‘":{"ha":217,"x_min":182,"x_max":340,"o":"m 197 521 l 182 651 l 210 781 l 340 781 l 312 651 l 241 521 l 197 521 z "},"’":{"ha":217,"x_min":182,"x_max":340,"o":"m 197 521 l 182 651 l 210 781 l 340 781 l 312 651 l 241 521 l 197 521 z "},"‚":{"ha":217,"x_min":43,"x_max":201,"o":"m 59 -130 l 43 0 l 71 130 l 201 130 l 174 0 l 102 -130 l 59 -130 z "},"‛":{"ha":217,"x_min":182,"x_max":340,"o":"m 197 521 l 182 651 l 210 781 l 340 781 l 312 651 l 241 521 l 197 521 z "},"“":{"ha":412,"x_min":182,"x_max":535,"o":"m 197 521 l 182 651 l 210 781 l 340 781 l 312 651 l 241 521 l 197 521 m 393 521 l 377 651 l 405 781 l 535 781 l 507 651 l 436 521 l 393 521 z "},"”":{"ha":412,"x_min":182,"x_max":535,"o":"m 197 521 l 182 651 l 210 781 l 340 781 l 312 651 l 241 521 l 197 521 m 393 521 l 377 651 l 405 781 l 535 781 l 507 651 l 436 521 l 393 521 z "},"„":{"ha":412,"x_min":43,"x_max":397,"o":"m 59 -130 l 43 0 l 71 130 l 201 130 l 174 0 l 102 -130 l 59 -130 m 254 -130 l 239 0 l 267 130 l 397 130 l 369 0 l 298 -130 l 254 -130 z "},"‟":{"ha":412,"x_min":182,"x_max":535,"o":"m 197 521 l 182 651 l 210 781 l 340 781 l 312 651 l 241 521 l 197 521 m 393 521 l 377 651 l 405 781 l 535 781 l 507 651 l 436 521 l 393 521 z "},"′":{"ha":217,"x_min":182,"x_max":340,"o":"m 197 521 l 182 651 l 210 781 l 340 781 l 312 651 l 241 521 l 197 521 z "},"″":{"ha":412,"x_min":182,"x_max":535,"o":"m 197 521 l 182 651 l 210 781 l 340 781 l 312 651 l 241 521 l 197 521 m 393 521 l 377 651 l 405 781 l 535 781 l 507 651 l 436 521 l 393 521 z "},"%":{"ha":738,"x_min":170,"x_max":733,"o":"m 365 694 l 278 694 l 259 608 l 346 608 l 365 694 m 314 0 l 174 0 l 590 781 l 730 781 l 314 0 m 663 260 q 719 235 699 260 q 733 193 733 217 q 731 174 733 184 l 713 87 q 674 25 705 50 q 608 0 644 0 l 521 0 q 465 25 485 0 q 450 68 450 43 q 452 87 450 77 l 471 174 q 510 235 479 210 q 576 260 541 260 l 663 260 m 644 174 l 557 174 l 539 87 l 626 87 l 644 174 m 383 781 q 439 756 419 781 q 454 713 454 737 q 452 694 454 704 l 433 608 q 394 546 425 571 q 328 521 363 521 l 241 521 q 185 546 205 521 q 170 589 170 564 q 172 608 170 598 l 191 694 q 230 756 199 730 q 296 781 260 781 l 383 781 z "},"‰":{"ha":1042,"x_min":170,"x_max":1037,"o":"m 948 174 l 861 174 l 843 87 l 930 87 l 948 174 m 314 0 l 174 0 l 590 781 l 730 781 l 314 0 m 663 260 q 719 235 699 260 q 733 193 733 217 q 731 174 733 184 l 713 87 q 674 25 705 50 q 608 0 644 0 l 521 0 q 465 25 485 0 q 450 68 450 43 q 452 87 450 77 l 471 174 q 510 235 479 210 q 576 260 541 260 l 663 260 m 644 174 l 557 174 l 539 87 l 626 87 l 644 174 m 383 781 q 439 756 419 781 q 454 713 454 737 q 452 694 454 704 l 433 608 q 394 546 425 571 q 328 521 363 521 l 241 521 q 185 546 205 521 q 170 589 170 564 q 172 608 170 598 l 191 694 q 230 756 199 730 q 296 781 260 781 l 383 781 m 365 694 l 278 694 l 259 608 l 346 608 l 365 694 m 967 260 q 1023 235 1003 260 q 1037 193 1037 217 q 1035 174 1037 184 l 1017 87 q 978 25 1009 51 q 911 0 947 0 l 825 0 q 768 26 789 0 q 754 68 754 44 q 756 87 754 77 l 774 174 q 813 235 783 210 q 880 260 844 260 l 967 260 z "},"℅":{"ha":738,"x_min":170,"x_max":733,"o":"m 346 608 l 351 629 l 437 629 l 433 608 q 394 546 425 571 q 328 521 363 521 l 241 521 q 185 546 205 521 q 170 589 170 564 q 172 608 170 598 l 191 694 q 230 756 199 730 q 296 781 260 781 l 383 781 q 439 756 419 781 q 454 713 454 737 q 452 694 454 704 l 447 673 l 360 673 l 365 694 l 278 694 l 259 608 l 346 608 m 314 0 l 174 0 l 590 781 l 730 781 l 314 0 m 663 260 q 719 235 699 260 q 733 193 733 217 q 731 174 733 184 l 713 87 q 674 25 705 50 q 608 0 644 0 l 521 0 q 465 25 485 0 q 450 68 450 43 q 452 87 450 77 l 471 174 q 510 235 479 210 q 576 260 541 260 l 663 260 m 644 174 l 557 174 l 539 87 l 626 87 l 644 174 z "},"⁒":{"ha":477,"x_min":43,"x_max":600,"o":"m 184 0 l 43 0 l 460 781 l 600 781 l 184 0 m 294 564 l 163 564 l 191 694 l 321 694 l 294 564 m 452 87 l 322 87 l 350 217 l 480 217 l 452 87 z "},"™":{"ha":673,"x_min":191,"x_max":795,"o":"m 256 391 l 191 391 l 260 716 l 195 716 l 210 781 l 405 781 l 391 716 l 326 716 l 256 391 m 492 578 l 452 391 l 387 391 l 470 781 l 540 781 l 571 492 l 725 781 l 795 781 l 712 391 l 647 391 l 687 578 l 587 391 l 512 391 l 492 578 z "},"℠":{"ha":673,"x_min":138,"x_max":795,"o":"m 492 578 l 452 391 l 387 391 l 470 781 l 540 781 l 571 492 l 725 781 l 795 781 l 712 391 l 647 391 l 687 578 l 587 391 l 512 391 l 492 578 m 191 391 q 150 410 165 391 q 138 441 138 423 q 140 456 138 448 l 155 521 l 220 521 l 205 456 l 271 456 l 279 497 l 182 651 l 195 716 q 224 762 201 743 q 275 781 248 781 l 340 781 q 382 762 367 781 q 393 731 393 749 q 391 716 393 724 l 377 651 l 312 651 l 326 716 l 260 716 l 252 675 l 349 521 l 336 456 q 307 410 330 429 q 256 391 283 391 l 191 391 z "},"ↄ":{"ha":477,"x_min":68,"x_max":548,"o":"m 201 130 l 332 130 l 414 521 l 284 521 l 266 434 l 136 434 l 154 521 q 212 613 165 574 q 312 651 258 651 l 442 651 q 526 613 496 651 q 548 549 548 585 q 545 521 548 536 l 462 130 q 404 38 450 76 q 304 0 357 0 l 174 0 q 90 38 119 0 q 68 101 68 65 q 71 130 68 115 l 90 217 l 220 217 l 201 130 z "},"@":{"ha":608,"x_min":40,"x_max":706,"o":"m 366 87 q 282 125 312 87 q 260 189 260 153 q 263 217 260 202 l 393 217 l 366 87 m 393 218 l 263 218 l 304 412 l 435 412 l 393 218 m 521 0 l 450 -130 l 146 -130 q 62 -92 92 -130 q 40 -28 40 -64 q 43 0 40 -15 l 182 651 q 240 743 193 705 q 340 781 286 781 l 600 781 q 684 743 654 781 q 706 680 706 715 q 703 651 706 666 l 583 87 l 496 87 l 480 215 q 436 125 469 162 q 366 87 402 87 l 394 217 l 480 217 l 522 412 l 435 412 l 463 543 q 517 505 499 543 q 527 452 527 481 q 526 429 527 441 l 572 651 l 312 651 l 174 0 l 521 0 m 435 413 l 304 413 q 362 505 316 467 q 463 543 409 543 l 435 413 z "},"©":{"ha":608,"x_min":117,"x_max":657,"o":"m 399 293 l 408 336 l 473 336 l 464 293 q 435 247 458 266 q 385 228 412 228 l 319 228 q 278 247 293 228 q 267 278 267 260 q 269 293 267 286 l 310 488 q 339 534 315 515 q 389 553 362 553 l 454 553 q 496 534 481 553 q 507 502 507 520 q 505 488 507 496 l 496 445 l 431 445 l 440 488 l 375 488 l 334 293 l 399 293 m 317 65 q 154 161 210 65 q 117 304 117 224 q 126 391 117 345 q 252 621 155 526 q 456 716 348 716 q 620 621 564 716 q 657 478 657 558 q 647 391 657 437 q 522 160 618 256 q 317 65 425 65 m 332 130 q 486 207 412 130 q 582 391 559 283 q 590 465 590 430 q 556 589 590 526 q 442 651 523 651 q 288 575 361 651 q 191 391 214 498 q 183 318 183 353 q 217 193 183 256 q 332 130 251 130 z "},"®":{"ha":608,"x_min":117,"x_max":657,"o":"m 317 65 q 154 161 210 65 q 117 304 117 224 q 126 391 117 345 q 252 621 155 526 q 456 716 348 716 q 620 621 564 716 q 657 478 657 558 q 647 391 657 437 q 522 160 618 256 q 317 65 425 65 m 332 130 q 486 207 412 130 q 582 391 559 283 q 590 465 590 430 q 556 589 590 526 q 442 651 523 651 q 288 575 361 651 q 191 391 214 498 q 183 318 183 353 q 217 193 183 256 q 332 130 251 130 m 513 488 l 500 423 q 471 377 494 396 q 435 359 454 363 l 458 228 l 388 228 l 366 358 l 355 358 l 328 228 l 262 228 l 332 553 l 462 553 q 504 534 489 553 q 515 503 515 521 q 513 488 515 496 m 435 423 l 448 488 l 383 488 l 370 423 l 435 423 z "},"℗":{"ha":608,"x_min":117,"x_max":657,"o":"m 317 65 q 154 161 210 65 q 117 304 117 224 q 126 391 117 345 q 252 621 155 526 q 456 716 348 716 q 620 621 564 716 q 657 478 657 558 q 647 391 657 437 q 522 160 618 256 q 317 65 425 65 m 332 130 q 486 207 412 130 q 582 391 559 283 q 590 465 590 430 q 556 589 590 526 q 442 651 523 651 q 288 575 361 651 q 191 391 214 498 q 183 318 183 353 q 217 193 183 256 q 332 130 251 130 m 513 488 l 500 423 q 471 377 494 396 q 420 358 448 358 l 355 358 l 328 228 l 262 228 l 332 553 l 462 553 q 504 534 489 553 q 515 503 515 521 q 513 488 515 496 m 435 423 l 448 488 l 383 488 l 370 423 l 435 423 z "},"¡":{"ha":217,"x_min":16,"x_max":312,"o":"m 146 -130 l 16 -130 l 99 260 l 179 433 l 222 433 l 229 260 l 146 -130 m 284 521 l 154 521 l 182 651 l 312 651 l 284 521 z "},"¿":{"ha":477,"x_min":40,"x_max":462,"o":"m 414 521 l 284 521 l 312 651 l 442 651 l 414 521 m 256 391 l 266 434 l 396 434 l 387 391 l 201 130 l 174 0 l 304 0 l 332 130 l 462 130 l 434 0 q 376 -92 422 -54 q 276 -130 330 -130 l 146 -130 q 62 -92 92 -130 q 40 -28 40 -64 q 43 0 40 -15 l 71 130 l 256 391 z "},"±":{"ha":477,"x_min":43,"x_max":517,"o":"m 452 87 l 434 0 l 43 0 l 62 87 l 452 87 m 256 391 l 284 521 l 414 521 l 387 391 l 517 391 l 490 260 l 359 260 l 340 174 l 210 174 l 229 260 l 99 260 l 126 391 l 256 391 z "},"÷":{"ha":477,"x_min":103,"x_max":513,"o":"m 215 195 l 345 195 l 317 65 l 187 65 l 215 195 m 298 586 l 429 586 l 401 456 l 271 456 l 298 586 m 103 282 l 122 369 l 513 369 l 494 282 l 103 282 z "},"×":{"ha":477,"x_min":104,"x_max":512,"o":"m 216 326 l 143 417 l 255 509 l 328 417 l 439 509 l 512 417 l 400 326 l 473 233 l 361 141 l 288 233 l 176 141 l 104 233 l 216 326 z "},"$":{"ha":477,"x_min":68,"x_max":576,"o":"m 271 0 l 243 -130 l 178 -130 l 206 0 l 174 0 q 90 38 120 0 q 68 101 68 65 q 71 130 68 115 l 72 130 l 100 260 l 230 260 l 202 130 l 234 130 l 276 328 l 154 521 l 182 651 q 240 743 193 705 q 340 781 286 781 l 372 781 l 400 911 l 465 911 l 437 781 l 470 781 q 554 743 524 781 q 576 680 576 716 q 572 651 576 666 l 545 521 l 414 521 l 442 651 l 410 651 l 368 453 l 490 260 l 462 130 q 404 38 450 76 q 304 0 358 0 l 271 0 m 319 530 l 345 651 l 312 651 l 294 568 l 319 530 m 325 252 l 299 130 l 332 130 l 349 213 l 325 252 z "},"€":{"ha":477,"x_min":99,"x_max":576,"o":"m 479 521 l 396 434 l 331 434 l 313 347 l 443 347 l 359 260 l 294 260 l 267 130 l 332 130 l 345 195 l 475 195 l 462 130 q 404 38 450 76 q 304 0 358 0 l 239 0 q 155 38 185 0 q 133 101 133 65 q 136 130 133 115 l 164 260 l 99 260 l 117 347 l 182 347 l 201 434 l 136 434 l 154 521 l 219 521 l 247 651 q 305 743 258 705 q 405 781 351 781 l 470 781 q 554 743 524 781 q 576 680 576 715 q 572 651 576 666 l 559 586 l 429 586 l 442 651 l 377 651 l 349 521 l 479 521 z "},"⃀":{"ha":477,"x_min":43,"x_max":576,"o":"m 434 0 l 43 0 l 71 130 l 462 130 l 434 0 m 572 651 l 559 586 l 429 586 l 442 651 l 312 651 l 256 391 l 387 391 l 401 456 l 531 456 l 517 391 q 459 298 505 336 q 359 260 414 260 l 229 260 q 145 298 176 260 q 123 362 123 326 q 126 391 123 376 l 182 651 q 240 743 193 705 q 340 781 286 781 l 470 781 q 554 743 524 781 q 576 680 576 715 q 572 651 576 666 z "},"₸":{"ha":477,"x_min":136,"x_max":600,"o":"m 600 781 l 572 651 l 182 651 l 210 781 l 600 781 m 304 0 l 174 0 l 266 434 l 136 434 l 163 564 l 554 564 l 526 434 l 396 434 l 304 0 z "},"〒":{"ha":608,"x_min":126,"x_max":730,"o":"m 452 391 l 369 0 l 239 0 l 321 391 l 126 391 l 154 521 l 675 521 l 647 391 l 452 391 m 703 651 l 182 651 l 210 781 l 730 781 l 703 651 z "},"°":{"ha":477,"x_min":151,"x_max":576,"o":"m 442 651 l 312 651 l 284 521 l 414 521 l 442 651 m 470 781 q 554 743 524 781 q 576 680 576 715 q 572 651 576 666 l 545 521 q 487 429 533 467 q 387 391 441 391 l 256 391 q 173 429 203 391 q 151 492 151 456 q 154 521 151 506 l 182 651 q 240 743 193 705 q 340 781 286 781 l 470 781 z "},"µ":{"ha":477,"x_min":16,"x_max":572,"o":"m 434 0 l 347 0 l 332 130 l 442 651 l 572 651 l 434 0 m 182 651 l 312 651 l 201 130 l 332 130 q 287 38 320 76 q 217 0 253 0 l 174 0 l 146 -130 l 16 -130 l 182 651 z "},"<":{"ha":477,"x_min":93,"x_max":549,"o":"m 264 326 l 487 249 l 457 109 l 93 234 l 132 418 l 549 543 l 519 402 l 264 326 z "},">":{"ha":477,"x_min":66,"x_max":523,"o":"m 484 234 l 66 109 l 96 249 l 352 326 l 129 402 l 159 543 l 523 418 l 484 234 z "},"^":{"ha":477,"x_min":126,"x_max":517,"o":"m 358 562 l 267 391 l 126 391 l 335 781 l 475 781 l 517 391 l 376 391 l 358 562 z "},"≤":{"ha":477,"x_min":43,"x_max":549,"o":"m 434 0 l 43 0 l 62 87 l 452 87 l 434 0 m 264 326 l 487 249 l 457 109 l 93 234 l 132 418 l 549 543 l 519 402 l 264 326 z "},"≥":{"ha":477,"x_min":43,"x_max":523,"o":"m 434 0 l 43 0 l 62 87 l 452 87 l 434 0 m 484 234 l 66 109 l 96 249 l 352 326 l 129 402 l 159 543 l 523 418 l 484 234 z "},"₵":{"ha":477,"x_min":68,"x_max":576,"o":"m 271 0 l 243 -130 l 178 -130 l 206 0 l 174 0 q 90 38 120 0 q 68 101 68 65 q 71 130 68 115 l 182 651 q 240 743 193 705 q 340 781 286 781 l 372 781 l 400 911 l 465 911 l 437 781 l 470 781 q 554 743 524 781 q 576 680 576 715 q 572 651 576 666 l 545 521 l 414 521 l 442 651 l 410 651 l 299 130 l 332 130 l 359 260 l 490 260 l 462 130 q 404 38 450 76 q 304 0 358 0 l 271 0 m 234 130 l 345 651 l 312 651 l 201 130 l 234 130 z "},"¢":{"ha":477,"x_min":68,"x_max":548,"o":"m 271 0 l 243 -130 l 178 -130 l 206 0 l 174 0 q 90 38 120 0 q 68 101 68 65 q 71 130 68 115 l 154 521 q 212 613 165 574 q 312 651 258 651 l 345 651 l 372 781 l 437 781 l 410 651 l 442 651 q 526 613 496 651 q 548 549 548 585 q 545 521 548 536 l 526 434 l 396 434 l 414 521 l 382 521 l 299 130 l 332 130 l 350 217 l 480 217 l 462 130 q 404 38 450 76 q 304 0 358 0 l 271 0 m 234 130 l 317 521 l 284 521 l 201 130 l 234 130 z "},"¥":{"ha":477,"x_min":71,"x_max":600,"o":"m 419 391 l 517 391 l 498 304 l 379 304 l 359 260 l 350 217 l 480 217 l 462 130 l 332 130 l 304 0 l 174 0 l 201 130 l 71 130 l 90 217 l 220 217 l 229 260 l 227 304 l 108 304 l 126 391 l 224 391 l 210 781 l 342 781 l 351 525 l 468 781 l 600 781 l 419 391 z "},"円":{"ha":608,"x_min":43,"x_max":730,"o":"m 564 0 l 434 0 l 490 260 l 229 260 l 174 0 l 43 0 l 210 781 l 730 781 l 564 0 m 507 651 l 452 391 l 517 391 l 572 651 l 507 651 m 321 391 l 377 651 l 312 651 l 256 391 l 321 391 z "}," ":{"ha":217,"x_min":0,"x_max":0,"o":""},"​":{"ha":0,"x_min":0,"x_max":0,"o":""},"ℓ":{"ha":477,"x_min":99,"x_max":577,"o":"m 442 651 l 377 651 l 321 391 l 387 391 l 442 651 m 572 651 l 517 391 q 472 299 506 337 q 403 260 439 260 l 294 260 l 267 130 l 332 130 l 340 174 l 471 174 l 462 130 q 417 38 450 76 q 347 0 383 0 l 195 0 q 142 38 159 0 q 132 89 132 60 q 136 130 132 109 l 164 260 l 99 260 l 126 391 l 191 391 l 247 651 q 292 743 258 705 q 361 781 326 781 l 513 781 q 566 743 549 781 q 577 691 577 720 q 572 651 577 672 z "},"℮":{"ha":608,"x_min":68,"x_max":678,"o":"m 675 521 l 620 260 l 294 260 l 267 130 l 462 130 l 475 195 l 606 195 l 592 130 q 534 38 581 76 q 434 0 488 0 l 174 0 q 90 38 120 0 q 68 101 68 65 q 71 130 68 115 l 154 521 q 212 613 165 574 q 312 651 258 651 l 572 651 q 656 613 627 651 q 678 550 678 586 q 675 521 678 536 m 452 391 l 479 521 l 349 521 l 321 391 l 452 391 z "},"≠":{"ha":347,"x_min":80,"x_max":406,"o":"m 277 477 l 326 586 l 396 586 l 347 477 l 406 477 l 387 391 l 307 391 l 249 260 l 359 260 l 340 174 l 210 174 l 160 65 l 90 65 l 139 174 l 80 174 l 99 260 l 178 260 l 237 391 l 126 391 l 145 477 l 277 477 z "},"≡":{"ha":347,"x_min":57,"x_max":429,"o":"m 57 65 l 76 152 l 336 152 l 317 65 l 57 65 m 103 282 l 122 369 l 382 369 l 363 282 l 103 282 m 149 499 l 168 586 l 429 586 l 410 499 l 149 499 z "},"¶":{"ha":608,"x_min":123,"x_max":730,"o":"m 637 651 l 471 -130 l 341 -130 l 507 651 l 442 651 l 276 -130 l 146 -130 l 229 260 q 145 298 176 260 q 123 362 123 326 q 126 391 123 376 l 182 651 q 240 743 193 705 q 340 781 286 781 l 730 781 l 703 651 l 637 651 z "},"⁋":{"ha":608,"x_min":81,"x_max":706,"o":"m 377 651 l 211 -130 l 81 -130 l 247 651 l 182 651 l 210 781 l 600 781 q 684 743 654 781 q 706 680 706 715 q 703 651 706 666 l 647 391 q 589 298 635 336 q 490 260 543 260 l 406 -130 l 276 -130 l 442 651 l 377 651 z "},"‼":{"ha":412,"x_min":43,"x_max":535,"o":"m 369 0 l 239 0 l 267 130 l 397 130 l 369 0 m 256 391 l 176 217 l 133 217 l 126 391 l 210 781 l 340 781 l 256 391 m 174 0 l 43 0 l 71 130 l 201 130 l 174 0 m 452 391 l 372 217 l 328 217 l 321 391 l 405 781 l 535 781 l 452 391 z "},"†":{"ha":477,"x_min":140,"x_max":559,"o":"m 276 -130 l 146 -130 l 271 456 l 140 456 l 168 586 l 298 586 l 340 781 l 470 781 l 429 586 l 559 586 l 531 456 l 401 456 l 276 -130 z "},"‡":{"ha":477,"x_min":57,"x_max":559,"o":"m 187 65 l 57 65 l 85 195 l 215 195 l 271 456 l 140 456 l 168 586 l 298 586 l 340 781 l 470 781 l 429 586 l 559 586 l 531 456 l 401 456 l 345 195 l 475 195 l 448 65 l 317 65 l 276 -130 l 146 -130 l 187 65 z "},"‖":{"ha":347,"x_min":43,"x_max":470,"o":"m 130 0 l 43 0 l 210 781 l 296 781 l 130 0 m 304 0 l 217 0 l 383 781 l 470 781 l 304 0 z "},"‗":{"ha":477,"x_min":-12,"x_max":434,"o":"m 25 -87 l 43 0 l 434 0 l 416 -87 l 25 -87 m -12 -260 l 7 -174 l 397 -174 l 378 -260 l -12 -260 z "},"⁅":{"ha":347,"x_min":16,"x_max":498,"o":"m 276 -130 l 16 -130 l 237 911 l 498 911 l 470 781 l 340 781 l 264 423 l 394 423 l 380 358 l 250 358 l 174 0 l 304 0 l 276 -130 z "},"⁆":{"ha":347,"x_min":16,"x_max":498,"o":"m 276 -130 l 16 -130 l 43 0 l 174 0 l 250 358 l 119 358 l 134 423 l 264 423 l 340 781 l 210 781 l 237 911 l 498 911 l 276 -130 z "},"⁃":{"ha":347,"x_min":113,"x_max":401,"o":"m 113 326 l 140 456 l 401 456 l 373 326 l 113 326 z "},"⁇":{"ha":933,"x_min":154,"x_max":1031,"o":"m 201 130 l 332 130 l 304 0 l 174 0 l 201 130 m 312 651 l 284 521 l 154 521 l 182 651 q 239 743 193 705 q 340 781 286 781 l 470 781 q 554 743 524 781 q 576 680 576 716 q 572 651 576 666 l 545 521 l 359 260 l 350 217 l 220 217 l 229 260 l 414 521 l 442 651 l 312 651 m 657 130 l 787 130 l 760 0 l 629 0 l 657 130 m 768 651 l 740 521 l 610 521 l 637 651 q 695 743 649 705 q 795 781 741 781 l 926 781 q 1010 743 980 781 q 1031 680 1031 716 q 1028 651 1031 666 l 1000 521 l 815 260 l 806 217 l 675 217 l 685 260 l 870 521 l 898 651 l 768 651 z "},"⁈":{"ha":673,"x_min":154,"x_max":795,"o":"m 201 130 l 332 130 l 304 0 l 174 0 l 201 130 m 312 651 l 284 521 l 154 521 l 182 651 q 239 743 193 705 q 340 781 286 781 l 470 781 q 554 743 524 781 q 576 680 576 716 q 572 651 576 666 l 545 521 l 359 260 l 350 217 l 220 217 l 229 260 l 414 521 l 442 651 l 312 651 m 527 130 l 657 130 l 629 0 l 499 0 l 527 130 m 665 781 l 795 781 l 712 391 l 632 217 l 589 217 l 582 391 l 665 781 z "},"⁉":{"ha":673,"x_min":43,"x_max":771,"o":"m 397 130 l 527 130 l 499 0 l 369 0 l 397 130 m 507 651 l 479 521 l 349 521 l 377 651 q 435 743 389 705 q 535 781 481 781 l 665 781 q 749 743 720 781 q 771 680 771 716 q 768 651 771 666 l 740 521 l 555 260 l 545 217 l 415 217 l 425 260 l 610 521 l 637 651 l 507 651 m 71 130 l 201 130 l 174 0 l 43 0 l 71 130 m 210 781 l 340 781 l 256 391 l 176 217 l 133 217 l 126 391 l 210 781 z "},"ﬁ":{"ha":543,"x_min":109,"x_max":665,"o":"m 651 716 l 521 716 l 535 781 l 665 781 l 651 716 m 494 586 l 507 651 l 637 651 l 499 0 l 369 0 l 466 456 l 336 456 l 239 0 l 109 0 l 205 456 l 140 456 l 168 586 l 233 586 l 247 651 q 305 743 258 705 q 405 781 351 781 l 470 781 l 442 651 l 377 651 l 363 586 l 494 586 z "},"ﬂ":{"ha":543,"x_min":109,"x_max":665,"o":"m 665 781 l 499 0 l 456 0 q 402 38 420 0 q 392 89 392 60 q 397 130 392 109 l 507 651 l 377 651 l 363 586 l 429 586 l 401 456 l 336 456 l 239 0 l 109 0 l 205 456 l 140 456 l 168 586 l 233 586 l 247 651 q 305 743 258 705 q 405 781 351 781 l 665 781 z "},"&":{"ha":543,"x_min":68,"x_max":596,"o":"m 572 651 l 545 521 l 414 521 l 442 651 l 312 651 l 271 456 l 357 456 l 330 326 l 243 326 l 201 130 l 332 130 l 373 326 q 431 418 385 380 q 531 456 477 456 l 596 456 l 568 326 l 503 326 l 462 130 q 404 38 450 76 q 304 0 358 0 l 174 0 q 90 38 120 0 q 68 101 68 65 q 71 130 68 115 l 99 260 q 157 353 111 315 q 243 391 197 386 q 173 429 199 395 q 151 492 151 456 q 154 521 151 506 l 182 651 q 240 743 193 705 q 340 781 286 781 l 470 781 q 554 743 524 781 q 576 680 576 715 q 572 651 576 666 z "},"~":{"ha":608,"x_min":85,"x_max":661,"o":"m 517 391 q 565 437 523 418 q 661 456 607 456 l 633 326 q 576 234 622 272 q 475 195 530 195 l 410 195 q 326 234 356 195 q 304 297 304 261 q 308 326 304 311 l 243 326 l 229 260 q 181 214 223 233 q 85 195 139 195 l 113 326 q 171 417 124 379 q 271 456 217 456 l 336 456 q 420 418 390 456 q 441 355 441 391 q 438 326 441 340 l 503 326 l 517 391 z "},"≈":{"ha":608,"x_min":53,"x_max":698,"o":"m 266 434 q 218 388 260 407 q 122 369 176 369 l 149 499 q 207 591 161 553 q 307 629 254 629 l 372 629 q 456 591 427 629 q 478 528 478 564 q 475 499 478 514 l 540 499 l 554 564 q 602 610 559 591 q 698 629 644 629 l 670 499 q 613 407 659 446 q 513 369 567 369 l 448 369 q 363 408 393 369 q 342 472 342 435 q 345 499 342 485 l 279 499 l 266 434 m 197 109 q 149 62 191 81 q 53 43 107 43 l 80 174 q 138 266 92 227 q 238 304 184 304 l 303 304 q 387 266 357 304 q 409 203 409 239 q 406 174 409 189 l 471 174 l 485 239 q 532 285 490 266 q 629 304 574 304 l 601 174 q 544 82 590 120 q 444 43 498 43 l 378 43 q 294 82 324 43 q 273 146 273 110 q 275 174 273 159 l 210 174 l 197 109 z "},"§":{"ha":477,"x_min":54,"x_max":589,"o":"m 267 438 l 364 284 l 377 343 l 279 497 l 267 438 m 317 65 l 321 83 l 126 391 l 140 456 q 198 548 152 510 q 233 570 215 562 l 182 651 l 195 716 q 253 808 207 770 q 353 846 300 846 l 484 846 q 568 808 538 846 q 589 745 589 781 q 586 716 589 731 l 568 629 l 437 629 l 456 716 l 326 716 l 322 699 l 517 391 l 503 326 q 446 233 492 271 q 411 211 429 219 l 462 130 l 448 65 q 390 -27 436 11 q 290 -65 345 -65 l 160 -65 q 76 -27 106 -65 q 54 37 54 1 q 57 65 54 50 l 58 65 l 77 152 l 207 152 l 188 65 l 317 65 z "},"«":{"ha":543,"x_min":81,"x_max":610,"o":"m 164 260 l 267 130 l 239 0 l 81 178 l 117 343 l 349 521 l 321 391 l 164 260 m 425 260 l 527 130 l 499 0 l 342 178 l 377 343 l 610 521 l 582 391 l 425 260 z "},"»":{"ha":543,"x_min":43,"x_max":572,"o":"m 490 260 l 387 391 l 414 521 l 572 343 l 537 178 l 304 0 l 332 130 l 490 260 m 229 260 l 126 391 l 154 521 l 312 343 l 277 178 l 43 0 l 71 130 l 229 260 z "},"‹":{"ha":282,"x_min":81,"x_max":349,"o":"m 164 260 l 267 130 l 239 0 l 81 178 l 117 343 l 349 521 l 321 391 l 164 260 z "},"›":{"ha":282,"x_min":43,"x_max":312,"o":"m 229 260 l 126 391 l 154 521 l 312 343 l 277 178 l 43 0 l 71 130 l 229 260 z "},"¤":{"ha":651,"x_min":94,"x_max":724,"o":"m 460 326 l 488 456 l 357 456 l 330 326 l 460 326 m 268 199 l 165 115 l 94 206 l 196 291 l 196 296 q 199 326 196 310 l 227 456 q 239 490 231 474 l 172 575 l 283 667 l 349 582 q 385 586 367 586 l 515 586 q 549 582 534 586 l 652 667 l 724 575 l 621 490 l 621 486 q 618 456 621 471 l 590 326 q 578 291 586 307 l 646 206 l 534 115 l 467 199 q 432 195 450 195 l 302 195 q 268 199 283 195 z "},"£":{"ha":477,"x_min":43,"x_max":576,"o":"m 43 0 l 71 130 l 136 130 l 182 347 l 117 347 l 136 434 l 201 434 l 247 651 q 305 743 258 705 q 405 781 351 781 l 470 781 q 554 743 524 781 q 576 680 576 715 q 572 651 576 666 l 545 521 l 414 521 l 442 651 l 377 651 l 331 434 l 461 434 l 443 347 l 313 347 l 267 130 l 462 130 l 434 0 l 43 0 z "},"₽":{"ha":608,"x_min":71,"x_max":706,"o":"m 359 260 l 555 260 l 527 130 l 332 130 l 304 0 l 174 0 l 201 130 l 71 130 l 99 260 l 229 260 l 243 326 l 113 326 l 140 456 l 271 456 l 340 781 l 600 781 q 684 743 654 781 q 706 680 706 715 q 703 651 706 666 l 661 456 q 603 364 650 402 q 503 326 557 326 l 373 326 l 359 260 m 401 456 l 531 456 l 572 651 l 442 651 l 401 456 z "},"₿":{"ha":608,"x_min":43,"x_max":663,"o":"m 357 456 l 488 456 l 529 651 l 399 651 l 357 456 m 462 130 l 503 326 l 330 326 l 288 130 l 462 130 m 557 781 q 641 743 611 781 q 663 680 663 716 q 659 651 663 666 l 618 456 q 570 410 612 429 q 473 391 528 391 l 517 391 q 605 372 571 391 q 634 334 634 355 q 633 326 634 330 l 592 130 q 534 38 581 76 q 434 0 488 0 l 391 0 l 363 -130 l 276 -130 l 304 0 l 217 0 l 189 -130 l 102 -130 l 130 0 l 43 0 l 62 87 l 149 87 l 278 694 l 191 694 l 210 781 l 296 781 l 324 911 l 411 911 l 383 781 l 470 781 l 498 911 l 585 911 l 557 781 z "},"₴":{"ha":543,"x_min":100,"x_max":608,"o":"m 406 358 l 575 358 l 557 271 l 328 271 l 245 180 l 234 130 l 363 130 l 372 174 l 503 174 l 494 130 l 494 130 q 436 38 483 76 q 336 0 390 0 l 206 0 q 122 38 152 0 q 100 101 100 65 q 104 130 100 115 l 124 228 l 164 271 l 101 271 l 119 358 l 243 358 l 302 423 l 134 423 l 152 510 l 381 510 l 464 601 l 475 651 l 345 651 l 335 608 l 205 608 l 214 651 q 272 743 226 705 q 372 781 318 781 l 503 781 q 586 743 556 781 q 608 680 608 715 q 605 651 608 666 l 584 553 l 545 510 l 608 510 l 589 423 l 466 423 l 406 358 z "},"₮":{"ha":608,"x_min":134,"x_max":730,"o":"m 431 294 l 369 0 l 239 0 l 290 241 l 150 187 l 134 268 l 310 335 l 322 393 l 182 339 l 166 420 l 342 487 l 377 651 l 182 651 l 210 781 l 730 781 l 703 651 l 507 651 l 484 541 l 624 594 l 640 513 l 464 446 l 452 389 l 592 442 l 608 361 l 431 294 z "},"₲":{"ha":477,"x_min":68,"x_max":576,"o":"m 410 651 l 368 456 l 531 456 l 462 130 q 404 38 450 76 q 304 0 358 0 l 271 0 l 243 -130 l 178 -130 l 206 0 l 174 0 q 90 38 120 0 q 68 101 68 65 q 71 130 68 115 l 182 651 q 240 743 193 705 q 340 781 286 781 l 372 781 l 400 911 l 465 911 l 437 781 l 470 781 q 554 743 524 781 q 576 680 576 715 q 572 651 576 666 l 554 564 l 424 564 l 442 651 l 410 651 m 340 326 l 299 130 l 332 130 l 373 326 l 340 326 m 234 130 l 345 651 l 312 651 l 201 130 l 234 130 z "},"₩":{"ha":738,"x_min":140,"x_max":839,"o":"m 612 456 l 572 456 l 555 260 l 612 456 m 381 521 l 403 586 l 338 586 l 329 521 l 381 521 m 320 456 l 294 260 l 359 456 l 320 456 m 631 521 l 650 586 l 585 586 l 578 521 l 631 521 m 770 586 l 748 521 l 805 521 l 791 456 l 725 456 l 566 0 l 432 0 l 452 391 l 306 0 l 172 0 l 206 456 l 140 456 l 154 521 l 212 521 l 216 586 l 168 586 l 182 651 l 221 651 l 231 781 l 363 781 l 346 651 l 425 651 l 468 781 l 602 781 l 590 651 l 669 651 l 707 781 l 839 781 l 793 651 l 833 651 l 819 586 l 770 586 z "},"₱":{"ha":608,"x_min":109,"x_max":696,"o":"m 603 488 l 668 488 l 654 423 l 589 423 l 582 391 q 524 298 570 336 q 425 260 478 260 l 294 260 l 239 0 l 109 0 l 199 423 l 134 423 l 147 488 l 212 488 l 226 553 l 161 553 l 175 618 l 240 618 l 275 781 l 535 781 q 618 743 589 781 q 641 680 641 715 q 637 651 641 666 l 631 618 l 696 618 l 682 553 l 616 553 l 603 488 m 370 618 l 500 618 l 507 651 l 377 651 l 370 618 m 342 488 l 473 488 l 486 553 l 356 553 l 342 488 m 459 423 l 329 423 l 321 391 l 452 391 l 459 423 z "},"₺":{"ha":608,"x_min":114,"x_max":633,"o":"m 236 292 l 130 252 l 114 333 l 256 387 l 268 444 l 163 404 l 146 485 l 288 538 l 340 781 l 470 781 l 430 593 l 605 659 l 621 578 l 410 498 l 397 441 l 572 507 l 589 427 l 378 347 l 332 130 l 462 130 l 503 326 l 633 326 l 592 130 q 534 38 581 76 q 434 0 488 0 l 174 0 l 236 292 z "},"₹":{"ha":543,"x_min":149,"x_max":665,"o":"m 324 263 l 369 0 l 229 0 l 161 391 l 321 391 l 345 499 l 149 499 l 168 586 l 363 586 l 387 694 l 191 694 l 210 781 l 665 781 l 582 694 l 517 694 l 494 586 l 624 586 l 540 499 l 475 499 l 452 391 q 394 298 440 336 q 324 263 361 271 z "},"֏":{"ha":608,"x_min":154,"x_max":661,"o":"m 494 282 l 624 282 l 606 195 l 475 195 l 434 0 l 304 0 l 345 195 l 215 195 l 233 282 l 363 282 l 382 369 l 252 369 l 271 456 l 401 456 l 442 651 l 312 651 l 284 521 l 154 521 l 182 651 q 240 743 193 705 q 340 781 286 781 l 470 781 q 554 743 524 781 q 576 680 576 715 q 572 651 576 666 l 531 456 l 661 456 l 643 369 l 513 369 l 494 282 z "},"ẞ":{"ha":477,"x_min":43,"x_max":557,"o":"m 174 0 l 43 0 l 182 651 q 239 743 193 705 q 340 781 286 781 l 557 781 l 488 456 q 439 410 481 429 q 388 394 416 399 l 387 391 q 475 372 441 391 q 504 334 504 355 q 503 326 504 330 l 462 130 q 404 38 450 76 q 304 0 357 0 l 239 0 l 267 130 l 332 130 l 373 326 l 308 326 l 336 456 l 357 456 l 399 651 l 312 651 l 174 0 z "},"ß":{"ha":477,"x_min":25,"x_max":532,"o":"m 146 -130 l 25 -87 l 182 651 q 239 743 193 705 q 340 781 286 781 l 427 781 q 511 743 481 781 q 532 680 532 716 q 529 651 532 666 l 488 456 q 439 410 481 429 q 388 394 416 399 l 387 391 q 475 372 441 391 q 504 334 504 355 q 503 326 504 330 l 462 130 q 404 38 450 76 q 304 0 357 0 l 239 0 l 267 130 l 332 130 l 373 326 l 308 326 l 336 456 l 357 456 l 399 651 l 312 651 l 146 -130 z "},"Þ":{"ha":477,"x_min":43,"x_max":548,"o":"m 201 130 l 174 0 l 43 0 l 210 781 l 340 781 l 312 651 l 442 651 q 526 613 496 651 q 548 550 548 586 q 545 521 548 536 l 490 260 q 432 168 478 206 q 332 130 385 130 l 201 130 m 229 260 l 359 260 l 414 521 l 284 521 l 229 260 z "},"þ":{"ha":477,"x_min":16,"x_max":548,"o":"m 286 530 q 330 613 298 578 q 399 651 363 651 l 442 651 q 526 613 496 651 q 548 550 548 586 q 545 521 548 536 l 462 130 q 404 38 450 76 q 304 0 357 0 l 260 0 q 207 38 224 0 q 197 89 197 60 q 201 130 197 109 l 332 130 l 414 521 l 284 521 l 146 -130 l 16 -130 l 210 781 l 340 781 l 286 530 z "},"Æ":{"ha":738,"x_min":43,"x_max":861,"o":"m 258 260 l 359 260 l 442 651 l 383 651 l 258 260 m 332 130 l 216 130 l 174 0 l 43 0 l 295 781 l 861 781 l 833 651 l 572 651 l 531 456 l 748 456 l 720 326 l 503 326 l 462 130 l 722 130 l 694 0 l 304 0 l 332 130 z "},"æ":{"ha":738,"x_min":68,"x_max":808,"o":"m 517 391 l 647 391 l 675 521 l 545 521 l 517 391 m 332 130 l 373 326 l 243 326 l 201 130 l 332 130 m 332 130 q 287 38 320 76 q 217 0 253 0 l 174 0 q 90 38 120 0 q 68 101 68 65 q 71 130 68 115 l 113 326 q 158 418 124 380 q 227 456 191 456 l 271 456 q 355 418 325 456 q 376 355 376 391 q 374 330 376 342 l 414 521 l 197 521 q 255 613 209 575 q 355 651 301 651 l 442 651 q 504 634 479 651 q 572 651 536 651 l 703 651 q 787 613 757 651 q 808 549 808 585 q 805 521 808 536 l 750 260 l 490 260 l 462 130 l 592 130 l 606 195 l 736 195 l 722 130 q 665 38 711 76 q 564 0 618 0 l 347 0 l 332 130 z "},"Œ":{"ha":738,"x_min":68,"x_max":861,"o":"m 442 651 l 513 781 l 861 781 l 833 651 l 572 651 l 531 456 l 748 456 l 720 326 l 503 326 l 462 130 l 722 130 l 694 0 l 347 0 l 332 130 l 442 651 m 332 130 q 287 38 320 76 q 217 0 253 0 l 174 0 q 90 38 120 0 q 68 101 68 65 q 71 130 68 115 l 182 651 q 240 743 193 705 q 340 781 286 781 l 383 781 q 436 743 419 781 q 447 692 447 720 q 442 651 447 673 l 312 651 l 201 130 l 332 130 z "},"œ":{"ha":738,"x_min":68,"x_max":808,"o":"m 647 391 l 675 521 l 545 521 l 517 391 l 647 391 m 414 521 l 284 521 l 201 130 l 332 130 l 414 521 m 414 521 q 472 613 426 574 q 572 651 519 651 l 703 651 q 787 613 757 651 q 808 549 808 585 q 805 521 808 536 l 750 260 l 490 260 l 462 130 l 592 130 l 606 195 l 736 195 l 722 130 q 665 38 711 76 q 564 0 618 0 l 434 0 q 351 38 380 0 q 319 57 335 57 q 278 28 303 57 q 217 0 253 0 l 174 0 q 90 38 120 0 q 68 101 68 65 q 71 130 68 115 l 154 521 q 212 613 165 574 q 312 651 258 651 l 355 651 q 409 613 391 651 q 419 562 419 591 q 414 521 419 543 z "},"Ɔ":{"ha":477,"x_min":68,"x_max":576,"o":"m 108 304 l 238 304 l 201 130 l 332 130 l 442 651 l 312 651 l 275 477 l 145 477 l 182 651 q 239 743 193 705 q 340 781 286 781 l 470 781 q 554 743 524 781 q 576 680 576 715 q 572 651 576 666 l 462 130 q 404 38 450 76 q 304 0 358 0 l 174 0 q 90 38 119 0 q 68 101 68 65 q 71 130 68 115 l 108 304 z "},"ɔ":{"ha":477,"x_min":68,"x_max":548,"o":"m 284 521 l 256 391 l 126 391 l 154 521 q 212 613 165 574 q 312 651 258 651 l 442 651 q 526 613 496 651 q 548 549 548 585 q 545 521 548 536 l 462 130 q 404 38 450 76 q 304 0 358 0 l 174 0 q 90 38 119 0 q 68 101 68 65 q 71 130 68 115 l 99 260 l 229 260 l 201 130 l 332 130 l 414 521 l 284 521 z "},"Ɛ":{"ha":477,"x_min":68,"x_max":576,"o":"m 154 521 l 182 651 q 239 743 193 705 q 340 781 286 781 l 470 781 q 553 743 524 781 q 576 680 576 715 q 572 651 576 666 l 554 564 l 424 564 l 442 651 l 312 651 l 271 456 l 401 456 l 373 326 l 243 326 l 201 130 l 332 130 l 350 217 l 480 217 l 462 130 q 404 38 450 76 q 304 0 357 0 l 174 0 q 90 38 119 0 q 68 101 68 65 q 71 130 68 115 l 99 260 q 157 353 111 315 q 256 391 202 391 q 172 429 202 391 q 151 492 151 456 q 154 521 151 506 z "},"ɛ":{"ha":477,"x_min":68,"x_max":548,"o":"m 140 456 l 154 521 q 212 613 165 574 q 312 651 258 651 l 442 651 q 526 613 496 651 q 548 549 548 585 q 545 521 548 536 l 526 434 l 396 434 l 414 521 l 284 521 l 256 391 l 365 391 l 338 260 l 229 260 l 201 130 l 332 130 l 350 217 l 480 217 l 462 130 q 404 38 450 76 q 304 0 357 0 l 174 0 q 90 38 119 0 q 68 101 68 65 q 71 130 68 115 l 85 195 q 142 288 96 250 q 243 326 189 326 q 159 363 189 326 q 137 427 137 391 q 140 456 137 441 z "},"Ə":{"ha":477,"x_min":68,"x_max":576,"o":"m 373 326 l 243 326 l 201 130 l 332 130 l 373 326 m 462 130 q 404 38 450 76 q 304 0 358 0 l 174 0 q 90 38 119 0 q 68 101 68 65 q 71 130 68 115 l 140 456 l 401 456 l 442 651 l 312 651 l 298 586 l 168 586 l 182 651 q 239 743 193 705 q 340 781 286 781 l 470 781 q 554 743 524 781 q 576 680 576 716 q 572 651 576 666 l 462 130 z "},"ə":{"ha":477,"x_min":68,"x_max":548,"o":"m 229 260 l 201 130 l 332 130 l 359 260 l 229 260 m 71 130 l 126 391 l 387 391 l 414 521 l 284 521 l 275 477 l 145 477 l 154 521 q 212 613 165 575 q 312 651 258 651 l 442 651 q 526 613 496 651 q 548 550 548 586 q 545 521 548 536 l 462 130 q 404 38 450 76 q 304 0 358 0 l 174 0 q 90 38 119 0 q 68 101 68 65 q 71 130 68 115 z "},"Ɣ":{"ha":477,"x_min":77,"x_max":600,"o":"m 202 -174 q 237 -155 220 -174 q 259 -109 253 -136 q 261 -88 261 -98 q 254 -59 261 -74 q 229 -43 248 -43 q 194 -62 211 -43 q 172 -109 178 -81 q 170 -130 170 -119 q 177 -158 170 -143 q 202 -174 184 -174 m 183 -260 q 99 -222 129 -260 q 77 -159 77 -195 q 81 -130 77 -145 l 210 175 l 210 781 l 342 781 l 308 326 l 468 781 l 600 781 l 342 175 l 341 -130 q 283 -222 330 -184 q 183 -260 237 -260 z "},"ɣ":{"ha":477,"x_min":77,"x_max":572,"o":"m 183 -260 q 99 -222 129 -260 q 77 -159 77 -195 q 81 -130 77 -145 l 201 132 l 182 651 l 314 651 l 308 326 l 440 651 l 572 651 l 332 132 l 341 -130 q 283 -222 330 -184 q 183 -260 237 -260 m 170 -130 q 175 -155 170 -144 q 202 -174 184 -174 q 237 -155 220 -174 q 252 -130 246 -144 q 259 -109 256 -120 q 261 -88 261 -98 q 254 -59 261 -74 q 229 -43 248 -43 q 194 -62 211 -43 q 172 -109 178 -81 q 170 -126 170 -118 l 170 -130 z "},"Ƣ":{"ha":673,"x_min":68,"x_max":795,"o":"m 442 651 l 312 651 l 201 130 l 332 130 l 442 651 m 795 781 l 629 0 l 499 0 l 637 651 l 572 651 l 434 0 l 174 0 q 90 38 120 0 q 68 101 68 65 q 71 130 68 115 l 182 651 q 240 743 193 705 q 340 781 286 781 l 795 781 z "},"ƣ":{"ha":673,"x_min":68,"x_max":768,"o":"m 414 521 l 284 521 l 201 130 l 332 130 l 414 521 m 768 651 l 602 -130 l 471 -130 l 610 521 l 545 521 l 434 0 l 174 0 q 90 38 120 0 q 68 101 68 65 q 71 130 68 115 l 154 521 q 212 613 165 574 q 312 651 258 651 l 768 651 z "},"Ŋ":{"ha":477,"x_min":43,"x_max":600,"o":"m 332 130 l 387 391 l 184 0 l 43 0 l 210 781 l 340 781 l 256 391 l 460 781 l 600 781 l 462 130 q 404 38 450 76 q 304 0 358 0 l 260 0 l 288 130 l 332 130 z "},"ŋ":{"ha":477,"x_min":43,"x_max":548,"o":"m 174 0 l 43 0 l 182 651 l 269 651 l 284 521 l 174 0 m 276 -130 l 211 -130 l 239 0 l 304 0 l 414 521 l 284 521 q 329 613 296 575 q 399 651 363 651 l 442 651 q 526 613 496 651 q 548 550 548 586 q 545 521 548 536 l 434 0 q 376 -92 422 -54 q 276 -130 330 -130 z "},"Ɲ":{"ha":477,"x_min":-28,"x_max":600,"o":"m 43 0 l 210 781 l 350 781 l 387 391 l 470 781 l 600 781 l 434 0 l 294 0 l 256 391 l 174 0 q 116 -92 162 -54 q 16 -130 70 -130 l -28 -130 l 0 0 l 43 0 z "},"ɲ":{"ha":477,"x_min":-28,"x_max":548,"o":"m 16 -130 l -28 -130 l 0 0 l 43 0 l 182 651 l 269 651 l 284 521 l 174 0 q 116 -92 162 -54 q 16 -130 70 -130 m 434 0 l 304 0 l 414 521 l 284 521 q 329 613 296 575 q 399 651 363 651 l 442 651 q 526 613 496 651 q 548 550 548 586 q 545 521 548 536 l 434 0 z "},"Ʋ":{"ha":477,"x_min":68,"x_max":576,"o":"m 442 651 l 377 651 l 405 781 l 470 781 q 554 743 524 781 q 576 680 576 715 q 572 651 576 666 l 462 130 q 404 38 450 76 q 304 0 358 0 l 174 0 q 90 38 120 0 q 68 101 68 65 q 71 130 68 115 l 210 781 l 340 781 l 201 130 l 332 130 l 442 651 z "},"ʋ":{"ha":477,"x_min":68,"x_max":548,"o":"m 414 521 l 349 521 l 377 651 l 442 651 q 526 613 496 651 q 548 549 548 585 q 545 521 548 536 l 462 130 q 404 38 450 76 q 304 0 358 0 l 174 0 q 90 38 120 0 q 68 101 68 65 q 71 130 68 115 l 182 651 l 312 651 l 201 130 l 332 130 l 414 521 z "},"ǀ":{"ha":217,"x_min":43,"x_max":340,"o":"m 210 781 l 340 781 l 174 0 l 43 0 l 210 781 z "},"ǁ":{"ha":412,"x_min":43,"x_max":535,"o":"m 405 781 l 535 781 l 369 0 l 239 0 l 405 781 m 210 781 l 340 781 l 174 0 l 43 0 l 210 781 z "},"ǂ":{"ha":477,"x_min":99,"x_max":545,"o":"m 271 456 l 140 456 l 154 521 l 284 521 l 340 781 l 470 781 l 414 521 l 545 521 l 531 456 l 401 456 l 373 326 l 503 326 l 490 260 l 359 260 l 304 0 l 174 0 l 229 260 l 99 260 l 113 326 l 243 326 l 271 456 z "},"ǃ":{"ha":217,"x_min":43,"x_max":340,"o":"m 174 0 l 43 0 l 71 130 l 201 130 l 174 0 m 220 217 l 90 217 l 210 781 l 340 781 l 220 217 z "},"`":{"ha":477,"x_min":317,"x_max":465,"o":"m 408 798 l 317 913 l 374 960 l 465 844 l 408 798 z "},"ˋ":{"ha":477,"x_min":317,"x_max":465,"o":"m 408 798 l 317 913 l 374 960 l 465 844 l 408 798 z "},"´":{"ha":477,"x_min":372,"x_max":548,"o":"m 408 798 l 372 844 l 512 960 l 548 913 l 408 798 z "},"ˊ":{"ha":477,"x_min":372,"x_max":548,"o":"m 408 798 l 372 844 l 512 960 l 548 913 l 408 798 z "},"¯":{"ha":477,"x_min":288,"x_max":563,"o":"m 549 846 l 288 846 l 302 911 l 563 911 l 549 846 z "},"ˉ":{"ha":477,"x_min":288,"x_max":563,"o":"m 549 846 l 288 846 l 302 911 l 563 911 l 549 846 z "},"¨":{"ha":477,"x_min":288,"x_max":563,"o":"m 549 846 l 462 846 l 476 911 l 563 911 l 549 846 m 375 846 l 288 846 l 302 911 l 389 911 l 375 846 z "},"˙":{"ha":477,"x_min":375,"x_max":476,"o":"m 462 846 l 375 846 l 389 911 l 476 911 l 462 846 z "},"˚":{"ha":477,"x_min":323,"x_max":528,"o":"m 385 841 l 450 841 l 466 917 l 401 917 l 385 841 m 324 863 l 332 895 q 360 941 337 922 q 410 960 383 960 l 475 960 q 517 941 503 960 q 528 909 528 927 q 527 895 528 903 l 519 863 q 491 817 514 836 q 441 798 468 798 l 376 798 q 334 817 349 798 q 323 849 323 831 q 324 863 323 855 z "},"ˇ":{"ha":477,"x_min":317,"x_max":548,"o":"m 408 798 l 317 913 l 374 960 l 428 890 l 512 960 l 548 913 l 408 798 z "},"ˆ":{"ha":477,"x_min":303,"x_max":534,"o":"m 477 798 l 423 867 l 339 798 l 303 844 l 443 960 l 534 844 l 477 798 z "},"˘":{"ha":477,"x_min":315,"x_max":548,"o":"m 469 879 l 483 944 l 548 944 l 534 879 q 505 833 528 852 q 455 814 482 814 l 368 814 q 326 833 341 814 q 315 865 315 847 q 317 879 315 871 l 331 944 l 396 944 l 382 879 l 469 879 z "},"˜":{"ha":477,"x_min":281,"x_max":570,"o":"m 353 846 q 330 823 351 833 q 281 814 309 814 l 295 879 q 324 925 301 906 q 374 944 347 944 l 407 944 q 449 925 434 944 q 460 894 460 911 q 458 879 460 887 l 490 879 l 498 911 q 522 935 500 925 q 570 944 543 944 l 555 879 q 527 833 550 852 q 477 814 504 814 l 444 814 q 402 833 417 814 q 391 865 391 847 q 393 879 391 872 l 360 879 l 353 846 z "},"˝":{"ha":477,"x_min":303,"x_max":617,"o":"m 477 798 l 441 844 l 581 960 l 617 913 l 477 798 m 339 798 l 303 844 l 443 960 l 479 913 l 339 798 z "},"¸":{"ha":477,"x_min":130,"x_max":306,"o":"m 166 -178 l 130 -132 l 214 -63 l 306 -63 l 166 -178 z "},"˛":{"ha":477,"x_min":223,"x_max":425,"o":"m 317 65 l 339 65 l 326 0 l 304 0 l 290 -65 l 355 -65 l 359 -43 l 425 -43 l 420 -65 q 391 -111 414 -92 q 341 -130 368 -130 l 276 -130 q 235 -111 250 -130 q 223 -80 223 -98 q 225 -65 223 -73 l 239 0 q 268 46 245 27 q 317 65 291 65 z "},"ˈ":{"ha":477,"x_min":372,"x_max":465,"o":"m 465 911 l 437 781 l 372 781 l 400 911 l 465 911 z "},"ˌ":{"ha":477,"x_min":178,"x_max":271,"o":"m 243 -130 l 178 -130 l 206 0 l 271 0 l 243 -130 z "},"ˍ":{"ha":477,"x_min":81,"x_max":355,"o":"m 355 -65 l 341 -130 l 81 -130 l 95 -65 l 355 -65 z "},"Ā":{"ha":477,"x_min":43,"x_max":563,"o":"m 549 846 l 288 846 l 302 911 l 563 911 l 549 846 m 331 260 l 377 651 l 258 260 l 331 260 m 434 0 l 304 0 l 317 130 l 216 130 l 174 0 l 43 0 l 295 781 l 515 781 l 434 0 z "},"ā":{"ha":477,"x_min":68,"x_max":548,"o":"m 521 716 l 260 716 l 275 781 l 535 781 l 521 716 m 332 130 l 373 326 l 243 326 l 201 130 l 332 130 m 332 130 q 287 38 320 76 q 217 0 253 0 l 174 0 q 90 38 120 0 q 68 101 68 65 q 71 130 68 115 l 113 326 q 158 418 124 380 q 227 456 191 456 l 271 456 q 355 418 325 456 q 376 355 376 391 q 374 330 376 342 l 414 521 l 197 521 q 255 613 209 575 q 355 651 301 651 l 442 651 q 526 613 496 651 q 548 549 548 585 q 545 521 548 536 l 434 0 l 347 0 l 332 130 z "},"Ē":{"ha":477,"x_min":43,"x_max":600,"o":"m 600 781 l 572 651 l 312 651 l 271 456 l 488 456 l 460 326 l 243 326 l 201 130 l 462 130 l 434 0 l 43 0 l 210 781 l 600 781 m 549 846 l 288 846 l 302 911 l 563 911 l 549 846 z "},"ē":{"ha":477,"x_min":68,"x_max":548,"o":"m 256 391 l 387 391 l 414 521 l 284 521 l 256 391 m 332 130 l 345 195 l 475 195 l 462 130 q 404 38 450 76 q 304 0 358 0 l 174 0 q 90 38 120 0 q 68 101 68 65 q 71 130 68 115 l 154 521 q 212 613 165 574 q 312 651 258 651 l 442 651 q 526 613 496 651 q 548 549 548 585 q 545 521 548 536 l 490 260 l 229 260 l 201 130 l 332 130 m 521 716 l 260 716 l 275 781 l 535 781 l 521 716 z "},"Ī":{"ha":217,"x_min":43,"x_max":411,"o":"m 174 0 l 43 0 l 210 781 l 340 781 l 174 0 m 397 846 l 180 846 l 194 911 l 411 911 l 397 846 z "},"ī":{"ha":217,"x_min":43,"x_max":383,"o":"m 174 0 l 43 0 l 182 651 l 312 651 l 174 0 m 166 781 l 383 781 l 369 716 l 152 716 l 166 781 z "},"Ō":{"ha":477,"x_min":68,"x_max":576,"o":"m 201 130 l 332 130 l 442 651 l 312 651 l 201 130 m 71 130 l 182 651 q 240 743 193 705 q 340 781 286 781 l 470 781 q 554 743 524 781 q 576 680 576 715 q 572 651 576 666 l 462 130 q 404 38 450 76 q 304 0 358 0 l 174 0 q 90 38 120 0 q 68 101 68 65 q 71 130 68 115 m 549 846 l 288 846 l 302 911 l 563 911 l 549 846 z "},"ō":{"ha":477,"x_min":68,"x_max":548,"o":"m 201 130 l 332 130 l 414 521 l 284 521 l 201 130 m 71 130 l 154 521 q 212 613 165 574 q 312 651 258 651 l 442 651 q 526 613 496 651 q 548 549 548 585 q 545 521 548 536 l 462 130 q 404 38 450 76 q 304 0 358 0 l 174 0 q 90 38 120 0 q 68 101 68 65 q 71 130 68 115 m 521 716 l 260 716 l 275 781 l 535 781 l 521 716 z "},"Ū":{"ha":477,"x_min":68,"x_max":600,"o":"m 470 781 l 600 781 l 462 130 q 404 38 450 76 q 304 0 358 0 l 174 0 q 90 38 120 0 q 68 101 68 65 q 71 130 68 115 l 210 781 l 340 781 l 201 130 l 332 130 l 470 781 m 549 846 l 288 846 l 302 911 l 563 911 l 549 846 z "},"ū":{"ha":477,"x_min":68,"x_max":572,"o":"m 521 716 l 260 716 l 275 781 l 535 781 l 521 716 m 442 651 l 572 651 l 434 0 l 347 0 l 332 130 l 442 651 m 332 130 q 287 38 320 76 q 217 0 253 0 l 174 0 q 90 38 120 0 q 68 101 68 65 q 71 130 68 115 l 182 651 l 312 651 l 201 130 l 332 130 z "},"Ǣ":{"ha":738,"x_min":43,"x_max":861,"o":"m 679 846 l 418 846 l 433 911 l 693 911 l 679 846 m 332 130 l 216 130 l 174 0 l 43 0 l 295 781 l 861 781 l 833 651 l 572 651 l 531 456 l 748 456 l 720 326 l 503 326 l 462 130 l 722 130 l 694 0 l 304 0 l 332 130 m 258 260 l 359 260 l 442 651 l 383 651 l 258 260 z "},"ǣ":{"ha":738,"x_min":68,"x_max":808,"o":"m 517 391 l 647 391 l 675 521 l 545 521 l 517 391 m 651 716 l 391 716 l 405 781 l 665 781 l 651 716 m 332 130 l 373 326 l 243 326 l 201 130 l 332 130 m 332 130 q 287 38 320 76 q 217 0 253 0 l 174 0 q 90 38 120 0 q 68 101 68 65 q 71 130 68 115 l 113 326 q 158 418 124 380 q 227 456 191 456 l 271 456 q 355 418 325 456 q 376 355 376 391 q 374 330 376 342 l 414 521 l 197 521 q 255 613 209 575 q 355 651 301 651 l 442 651 q 504 634 479 651 q 572 651 536 651 l 703 651 q 787 613 757 651 q 808 549 808 585 q 805 521 808 536 l 750 260 l 490 260 l 462 130 l 592 130 l 606 195 l 736 195 l 722 130 q 665 38 711 76 q 564 0 618 0 l 347 0 l 332 130 z "},"Ȳ":{"ha":477,"x_min":174,"x_max":600,"o":"m 549 846 l 288 846 l 302 911 l 563 911 l 549 846 m 321 391 l 468 781 l 600 781 l 359 260 l 304 0 l 174 0 l 229 260 l 210 781 l 342 781 l 321 391 z "},"ȳ":{"ha":477,"x_min":16,"x_max":572,"o":"m 521 716 l 260 716 l 275 781 l 535 781 l 521 716 m 16 -130 l 87 0 l 172 0 l 182 651 l 314 651 l 294 260 l 440 651 l 572 651 l 306 0 l 304 0 q 246 -92 292 -54 q 146 -130 200 -130 l 16 -130 z "},"Ḡ":{"ha":477,"x_min":68,"x_max":576,"o":"m 549 846 l 288 846 l 302 911 l 563 911 l 549 846 m 572 651 l 554 564 l 424 564 l 442 651 l 312 651 l 201 130 l 332 130 q 287 38 320 76 q 217 0 253 0 l 174 0 q 90 38 120 0 q 68 101 68 65 q 71 130 68 115 l 182 651 q 240 743 193 705 q 340 781 286 781 l 470 781 q 554 743 524 781 q 576 680 576 715 q 572 651 576 666 m 373 326 l 330 326 l 357 456 l 531 456 l 434 0 l 347 0 l 332 130 l 373 326 z "},"ḡ":{"ha":477,"x_min":59,"x_max":572,"o":"m 355 651 q 409 613 391 651 q 419 562 419 591 q 414 521 419 543 l 284 521 l 210 174 l 340 174 q 296 82 330 120 q 227 43 262 43 l 183 43 q 99 82 129 43 q 77 146 77 110 q 80 174 77 159 l 154 521 q 212 613 165 575 q 312 651 258 651 l 355 651 m 414 521 l 486 651 l 572 651 l 434 0 q 376 -92 422 -54 q 276 -130 330 -130 l 59 -130 l 174 0 l 304 0 l 414 521 m 521 716 l 260 716 l 275 781 l 535 781 l 521 716 z "},"Ä":{"ha":477,"x_min":43,"x_max":563,"o":"m 549 846 l 462 846 l 476 911 l 563 911 l 549 846 m 375 846 l 288 846 l 302 911 l 389 911 l 375 846 m 331 260 l 377 651 l 258 260 l 331 260 m 434 0 l 304 0 l 317 130 l 216 130 l 174 0 l 43 0 l 295 781 l 515 781 l 434 0 z "},"ä":{"ha":477,"x_min":68,"x_max":548,"o":"m 347 716 l 260 716 l 275 781 l 361 781 l 347 716 m 332 130 l 373 326 l 243 326 l 201 130 l 332 130 m 332 130 q 287 38 320 76 q 217 0 253 0 l 174 0 q 90 38 120 0 q 68 101 68 65 q 71 130 68 115 l 113 326 q 158 418 124 380 q 227 456 191 456 l 271 456 q 355 418 325 456 q 376 355 376 391 q 374 330 376 342 l 414 521 l 197 521 q 255 613 209 575 q 355 651 301 651 l 442 651 q 526 613 496 651 q 548 549 548 585 q 545 521 548 536 l 434 0 l 347 0 l 332 130 m 521 716 l 434 716 l 448 781 l 535 781 l 521 716 z "},"Ë":{"ha":477,"x_min":43,"x_max":600,"o":"m 600 781 l 572 651 l 312 651 l 271 456 l 488 456 l 460 326 l 243 326 l 201 130 l 462 130 l 434 0 l 43 0 l 210 781 l 600 781 m 549 846 l 462 846 l 476 911 l 563 911 l 549 846 m 375 846 l 288 846 l 302 911 l 389 911 l 375 846 z "},"ë":{"ha":477,"x_min":68,"x_max":548,"o":"m 256 391 l 387 391 l 414 521 l 284 521 l 256 391 m 332 130 l 345 195 l 475 195 l 462 130 q 404 38 450 76 q 304 0 358 0 l 174 0 q 90 38 120 0 q 68 101 68 65 q 71 130 68 115 l 154 521 q 212 613 165 574 q 312 651 258 651 l 442 651 q 526 613 496 651 q 548 549 548 585 q 545 521 548 536 l 490 260 l 229 260 l 201 130 l 332 130 m 521 716 l 434 716 l 448 781 l 535 781 l 521 716 m 347 716 l 260 716 l 275 781 l 361 781 l 347 716 z "},"Ï":{"ha":217,"x_min":43,"x_max":411,"o":"m 174 0 l 43 0 l 210 781 l 340 781 l 174 0 m 397 846 l 310 846 l 324 911 l 411 911 l 397 846 m 267 846 l 180 846 l 194 911 l 281 911 l 267 846 z "},"ï":{"ha":217,"x_min":43,"x_max":383,"o":"m 174 0 l 43 0 l 182 651 l 312 651 l 174 0 m 369 716 l 282 716 l 296 781 l 383 781 l 369 716 m 239 716 l 152 716 l 166 781 l 253 781 l 239 716 z "},"Ö":{"ha":477,"x_min":68,"x_max":576,"o":"m 201 130 l 332 130 l 442 651 l 312 651 l 201 130 m 71 130 l 182 651 q 240 743 193 705 q 340 781 286 781 l 470 781 q 554 743 524 781 q 576 680 576 715 q 572 651 576 666 l 462 130 q 404 38 450 76 q 304 0 358 0 l 174 0 q 90 38 120 0 q 68 101 68 65 q 71 130 68 115 m 549 846 l 462 846 l 476 911 l 563 911 l 549 846 m 375 846 l 288 846 l 302 911 l 389 911 l 375 846 z "},"ö":{"ha":477,"x_min":68,"x_max":548,"o":"m 201 130 l 332 130 l 414 521 l 284 521 l 201 130 m 71 130 l 154 521 q 212 613 165 574 q 312 651 258 651 l 442 651 q 526 613 496 651 q 548 549 548 585 q 545 521 548 536 l 462 130 q 404 38 450 76 q 304 0 358 0 l 174 0 q 90 38 120 0 q 68 101 68 65 q 71 130 68 115 m 521 716 l 434 716 l 448 781 l 535 781 l 521 716 m 347 716 l 260 716 l 275 781 l 361 781 l 347 716 z "},"Ü":{"ha":477,"x_min":68,"x_max":600,"o":"m 470 781 l 600 781 l 462 130 q 404 38 450 76 q 304 0 358 0 l 174 0 q 90 38 120 0 q 68 101 68 65 q 71 130 68 115 l 210 781 l 340 781 l 201 130 l 332 130 l 470 781 m 549 846 l 462 846 l 476 911 l 563 911 l 549 846 m 375 846 l 288 846 l 302 911 l 389 911 l 375 846 z "},"ü":{"ha":477,"x_min":68,"x_max":572,"o":"m 347 716 l 260 716 l 275 781 l 361 781 l 347 716 m 442 651 l 572 651 l 434 0 l 347 0 l 332 130 l 442 651 m 332 130 q 287 38 320 76 q 217 0 253 0 l 174 0 q 90 38 120 0 q 68 101 68 65 q 71 130 68 115 l 182 651 l 312 651 l 201 130 l 332 130 m 521 716 l 434 716 l 448 781 l 535 781 l 521 716 z "},"Ÿ":{"ha":477,"x_min":174,"x_max":600,"o":"m 549 846 l 462 846 l 476 911 l 563 911 l 549 846 m 375 846 l 288 846 l 302 911 l 389 911 l 375 846 m 321 391 l 468 781 l 600 781 l 359 260 l 304 0 l 174 0 l 229 260 l 210 781 l 342 781 l 321 391 z "},"ÿ":{"ha":477,"x_min":16,"x_max":572,"o":"m 521 716 l 434 716 l 448 781 l 535 781 l 521 716 m 347 716 l 260 716 l 275 781 l 361 781 l 347 716 m 16 -130 l 87 0 l 172 0 l 182 651 l 314 651 l 294 260 l 440 651 l 572 651 l 306 0 l 304 0 q 246 -92 292 -54 q 146 -130 200 -130 l 16 -130 z "},"Ḧ":{"ha":477,"x_min":43,"x_max":600,"o":"m 210 781 l 340 781 l 271 456 l 401 456 l 470 781 l 600 781 l 434 0 l 304 0 l 373 326 l 243 326 l 174 0 l 43 0 l 210 781 m 549 846 l 462 846 l 476 911 l 563 911 l 549 846 m 375 846 l 288 846 l 302 911 l 389 911 l 375 846 z "},"ḧ":{"ha":477,"x_min":43,"x_max":548,"o":"m 267 846 l 180 846 l 194 911 l 281 911 l 267 846 m 284 521 l 174 0 l 43 0 l 210 781 l 340 781 l 287 531 q 330 613 299 578 q 399 651 363 651 l 442 651 q 526 613 496 651 q 548 550 548 586 q 545 521 548 536 l 434 0 l 304 0 l 414 521 l 284 521 m 397 846 l 310 846 l 324 911 l 411 911 l 397 846 z "},"Ẅ":{"ha":738,"x_min":172,"x_max":861,"o":"m 679 846 l 592 846 l 606 911 l 693 911 l 679 846 m 505 846 l 418 846 l 433 911 l 519 911 l 505 846 m 566 0 l 432 0 l 452 391 l 306 0 l 172 0 l 210 781 l 342 781 l 294 260 l 468 781 l 602 781 l 555 260 l 728 781 l 861 781 l 566 0 z "},"ẅ":{"ha":738,"x_min":172,"x_max":833,"o":"m 651 716 l 564 716 l 578 781 l 665 781 l 651 716 m 477 716 l 391 716 l 405 781 l 492 781 l 477 716 m 172 0 l 182 651 l 314 651 l 294 260 l 440 651 l 574 651 l 555 260 l 701 651 l 833 651 l 566 0 l 432 0 l 452 391 l 306 0 l 172 0 z "},"Ẍ":{"ha":477,"x_min":43,"x_max":600,"o":"m 549 846 l 462 846 l 476 911 l 563 911 l 549 846 m 375 846 l 288 846 l 302 911 l 389 911 l 375 846 m 392 391 l 434 0 l 294 0 l 294 260 l 184 0 l 43 0 l 252 391 l 210 781 l 350 781 l 349 521 l 460 781 l 600 781 l 392 391 z "},"ẍ":{"ha":477,"x_min":43,"x_max":572,"o":"m 521 716 l 434 716 l 448 781 l 535 781 l 521 716 m 347 716 l 260 716 l 275 781 l 361 781 l 347 716 m 378 326 l 434 0 l 294 0 l 280 195 l 184 0 l 43 0 l 238 326 l 182 651 l 322 651 l 336 456 l 432 651 l 572 651 l 378 326 z "},"ẗ":{"ha":347,"x_min":133,"x_max":498,"o":"m 267 130 l 332 130 l 304 0 l 239 0 q 155 38 185 0 q 133 101 133 65 q 136 130 133 115 l 219 521 l 154 521 l 182 651 l 247 651 l 275 781 l 405 781 l 377 651 l 442 651 l 414 521 l 349 521 l 267 130 m 484 846 l 397 846 l 411 911 l 498 911 l 484 846 m 310 846 l 223 846 l 237 911 l 324 911 l 310 846 z "},"Ċ":{"ha":477,"x_min":68,"x_max":576,"o":"m 332 130 l 359 260 l 490 260 l 462 130 q 404 38 450 76 q 304 0 358 0 l 174 0 q 90 38 120 0 q 68 101 68 65 q 71 130 68 115 l 182 651 q 240 743 193 705 q 340 781 286 781 l 470 781 q 554 743 524 781 q 576 680 576 715 q 572 651 576 666 l 545 521 l 414 521 l 442 651 l 312 651 l 201 130 l 332 130 m 462 846 l 375 846 l 389 911 l 476 911 l 462 846 z "},"ċ":{"ha":477,"x_min":68,"x_max":548,"o":"m 332 130 l 350 217 l 480 217 l 462 130 q 404 38 450 76 q 304 0 358 0 l 174 0 q 90 38 120 0 q 68 101 68 65 q 71 130 68 115 l 154 521 q 212 613 165 574 q 312 651 258 651 l 442 651 q 526 613 496 651 q 548 549 548 585 q 545 521 548 536 l 526 434 l 396 434 l 414 521 l 284 521 l 201 130 l 332 130 m 434 716 l 347 716 l 361 781 l 448 781 l 434 716 z "},"Ė":{"ha":477,"x_min":43,"x_max":600,"o":"m 600 781 l 572 651 l 312 651 l 271 456 l 488 456 l 460 326 l 243 326 l 201 130 l 462 130 l 434 0 l 43 0 l 210 781 l 600 781 m 462 846 l 375 846 l 389 911 l 476 911 l 462 846 z "},"ė":{"ha":477,"x_min":68,"x_max":548,"o":"m 256 391 l 387 391 l 414 521 l 284 521 l 256 391 m 332 130 l 345 195 l 475 195 l 462 130 q 404 38 450 76 q 304 0 358 0 l 174 0 q 90 38 120 0 q 68 101 68 65 q 71 130 68 115 l 154 521 q 212 613 165 574 q 312 651 258 651 l 442 651 q 526 613 496 651 q 548 549 548 585 q 545 521 548 536 l 490 260 l 229 260 l 201 130 l 332 130 m 434 716 l 347 716 l 361 781 l 448 781 l 434 716 z "},"Ġ":{"ha":477,"x_min":68,"x_max":576,"o":"m 462 846 l 375 846 l 389 911 l 476 911 l 462 846 m 572 651 l 554 564 l 424 564 l 442 651 l 312 651 l 201 130 l 332 130 q 287 38 320 76 q 217 0 253 0 l 174 0 q 90 38 120 0 q 68 101 68 65 q 71 130 68 115 l 182 651 q 240 743 193 705 q 340 781 286 781 l 470 781 q 554 743 524 781 q 576 680 576 715 q 572 651 576 666 m 373 326 l 330 326 l 357 456 l 531 456 l 434 0 l 347 0 l 332 130 l 373 326 z "},"ġ":{"ha":477,"x_min":59,"x_max":572,"o":"m 355 651 q 409 613 391 651 q 419 562 419 591 q 414 521 419 543 l 284 521 l 210 174 l 340 174 q 296 82 330 120 q 227 43 262 43 l 183 43 q 99 82 129 43 q 77 146 77 110 q 80 174 77 159 l 154 521 q 212 613 165 575 q 312 651 258 651 l 355 651 m 414 521 l 486 651 l 572 651 l 434 0 q 376 -92 422 -54 q 276 -130 330 -130 l 59 -130 l 174 0 l 304 0 l 414 521 m 434 716 l 347 716 l 361 781 l 448 781 l 434 716 z "},"İ":{"ha":217,"x_min":43,"x_max":346,"o":"m 174 0 l 43 0 l 210 781 l 340 781 l 174 0 m 332 846 l 245 846 l 259 911 l 346 911 l 332 846 z "},"ı":{"ha":217,"x_min":43,"x_max":312,"o":"m 174 0 l 43 0 l 182 651 l 312 651 l 174 0 z "},"Ż":{"ha":477,"x_min":43,"x_max":600,"o":"m 43 0 l 71 130 l 420 651 l 182 651 l 210 781 l 600 781 l 572 651 l 224 130 l 462 130 l 434 0 l 43 0 m 462 846 l 375 846 l 389 911 l 476 911 l 462 846 z "},"ż":{"ha":477,"x_min":43,"x_max":572,"o":"m 43 0 l 71 130 l 392 521 l 154 521 l 182 651 l 572 651 l 545 521 l 224 130 l 462 130 l 434 0 l 43 0 m 434 716 l 347 716 l 361 781 l 448 781 l 434 716 z "},"Ȧ":{"ha":477,"x_min":43,"x_max":515,"o":"m 462 846 l 375 846 l 389 911 l 476 911 l 462 846 m 331 260 l 377 651 l 258 260 l 331 260 m 434 0 l 304 0 l 317 130 l 216 130 l 174 0 l 43 0 l 295 781 l 515 781 l 434 0 z "},"ȧ":{"ha":477,"x_min":68,"x_max":548,"o":"m 456 716 l 369 716 l 383 781 l 470 781 l 456 716 m 332 130 l 373 326 l 243 326 l 201 130 l 332 130 m 332 130 q 287 38 320 76 q 217 0 253 0 l 174 0 q 90 38 120 0 q 68 101 68 65 q 71 130 68 115 l 113 326 q 158 418 124 380 q 227 456 191 456 l 271 456 q 355 418 325 456 q 376 355 376 391 q 374 330 376 342 l 414 521 l 197 521 q 255 613 209 575 q 355 651 301 651 l 442 651 q 526 613 496 651 q 548 549 548 585 q 545 521 548 536 l 434 0 l 347 0 l 332 130 z "},"Ȯ":{"ha":477,"x_min":68,"x_max":576,"o":"m 201 130 l 332 130 l 442 651 l 312 651 l 201 130 m 71 130 l 182 651 q 240 743 193 705 q 340 781 286 781 l 470 781 q 554 743 524 781 q 576 680 576 715 q 572 651 576 666 l 462 130 q 404 38 450 76 q 304 0 358 0 l 174 0 q 90 38 120 0 q 68 101 68 65 q 71 130 68 115 m 462 846 l 375 846 l 389 911 l 476 911 l 462 846 z "},"ȯ":{"ha":477,"x_min":68,"x_max":548,"o":"m 201 130 l 332 130 l 414 521 l 284 521 l 201 130 m 71 130 l 154 521 q 212 613 165 574 q 312 651 258 651 l 442 651 q 526 613 496 651 q 548 549 548 585 q 545 521 548 536 l 462 130 q 404 38 450 76 q 304 0 358 0 l 174 0 q 90 38 120 0 q 68 101 68 65 q 71 130 68 115 m 434 716 l 347 716 l 361 781 l 448 781 l 434 716 z "},"Ḃ":{"ha":477,"x_min":43,"x_max":532,"o":"m 271 456 l 357 456 l 399 651 l 312 651 l 271 456 m 503 326 l 462 130 q 404 38 450 76 q 304 0 357 0 l 43 0 l 210 781 l 427 781 q 511 743 481 781 q 532 680 532 716 q 529 651 532 666 l 488 456 q 439 410 481 429 q 343 391 397 391 l 387 391 q 475 372 441 391 q 504 334 504 355 q 503 326 504 330 m 332 130 l 373 326 l 243 326 l 201 130 l 332 130 m 440 846 l 353 846 l 368 911 l 454 911 l 440 846 z "},"ḃ":{"ha":477,"x_min":43,"x_max":548,"o":"m 332 846 l 245 846 l 259 911 l 346 911 l 332 846 m 201 130 l 130 0 l 43 0 l 210 781 l 340 781 l 287 531 q 330 613 299 578 q 399 651 363 651 l 442 651 q 526 613 496 651 q 548 549 548 585 q 545 521 548 536 l 462 130 q 404 38 450 76 q 304 0 357 0 l 260 0 q 207 38 224 0 q 197 89 197 60 q 201 130 197 109 m 201 130 l 332 130 l 414 521 l 284 521 l 201 130 z "},"Ḋ":{"ha":477,"x_min":43,"x_max":576,"o":"m 442 651 l 312 651 l 201 130 l 332 130 l 442 651 m 462 130 q 404 38 450 76 q 304 0 357 0 l 43 0 l 210 781 l 470 781 q 553 743 524 781 q 576 680 576 715 q 572 651 576 666 l 462 130 m 440 846 l 353 846 l 368 911 l 454 911 l 440 846 z "},"ḋ":{"ha":477,"x_min":68,"x_max":606,"o":"m 592 846 l 505 846 l 519 911 l 606 911 l 592 846 m 332 130 q 287 38 320 76 q 217 0 253 0 l 174 0 q 90 38 120 0 q 68 101 68 65 q 71 130 68 115 l 154 521 q 212 613 165 574 q 312 651 258 651 l 355 651 q 409 613 391 651 q 419 562 419 590 q 414 521 419 543 l 284 521 l 201 130 l 332 130 m 470 781 l 600 781 l 434 0 l 347 0 l 332 130 l 470 781 z "},"Ḟ":{"ha":477,"x_min":43,"x_max":600,"o":"m 600 781 l 572 651 l 312 651 l 271 456 l 488 456 l 460 326 l 243 326 l 174 0 l 43 0 l 210 781 l 600 781 m 462 846 l 375 846 l 389 911 l 476 911 l 462 846 z "},"ḟ":{"ha":347,"x_min":109,"x_max":476,"o":"m 239 0 l 109 0 l 205 456 l 140 456 l 168 586 l 233 586 l 247 651 q 305 743 258 705 q 405 781 351 781 l 470 781 l 442 651 l 377 651 l 363 586 l 429 586 l 401 456 l 336 456 l 239 0 m 462 846 l 375 846 l 389 911 l 476 911 l 462 846 z "},"Ḣ":{"ha":477,"x_min":43,"x_max":600,"o":"m 210 781 l 340 781 l 271 456 l 401 456 l 470 781 l 600 781 l 434 0 l 304 0 l 373 326 l 243 326 l 174 0 l 43 0 l 210 781 m 462 846 l 375 846 l 389 911 l 476 911 l 462 846 z "},"ḣ":{"ha":477,"x_min":43,"x_max":548,"o":"m 332 846 l 245 846 l 259 911 l 346 911 l 332 846 m 284 521 l 174 0 l 43 0 l 210 781 l 340 781 l 287 531 q 330 613 299 578 q 399 651 363 651 l 442 651 q 526 613 496 651 q 548 550 548 586 q 545 521 548 536 l 434 0 l 304 0 l 414 521 l 284 521 z "},"Ṁ":{"ha":738,"x_min":43,"x_max":861,"o":"m 592 846 l 505 846 l 519 911 l 606 911 l 592 846 m 256 391 l 174 0 l 43 0 l 210 781 l 350 781 l 410 195 l 720 781 l 861 781 l 694 0 l 564 0 l 647 391 l 444 0 l 294 0 l 256 391 z "},"ṁ":{"ha":608,"x_min":43,"x_max":678,"o":"m 499 716 l 412 716 l 427 781 l 513 781 l 499 716 m 479 521 l 369 0 l 239 0 l 349 521 l 284 521 q 323 613 296 575 q 377 651 350 651 q 461 613 431 651 q 483 550 483 586 q 480 524 483 537 q 518 613 492 576 q 572 651 545 651 q 656 613 627 651 q 678 550 678 586 q 675 521 678 536 l 564 0 l 434 0 l 545 521 l 479 521 m 182 651 l 269 651 l 284 521 l 174 0 l 43 0 l 182 651 z "},"Ṅ":{"ha":477,"x_min":43,"x_max":600,"o":"m 462 846 l 375 846 l 389 911 l 476 911 l 462 846 m 210 781 l 350 781 l 387 391 l 470 781 l 600 781 l 434 0 l 294 0 l 256 391 l 174 0 l 43 0 l 210 781 z "},"ṅ":{"ha":477,"x_min":43,"x_max":548,"o":"m 434 716 l 347 716 l 361 781 l 448 781 l 434 716 m 182 651 l 269 651 l 284 521 l 174 0 l 43 0 l 182 651 m 284 521 q 329 613 296 575 q 399 651 363 651 l 442 651 q 526 613 496 651 q 548 550 548 586 q 545 521 548 536 l 434 0 l 304 0 l 414 521 l 284 521 z "},"Ṗ":{"ha":477,"x_min":43,"x_max":576,"o":"m 442 651 l 312 651 l 256 391 l 387 391 l 442 651 m 572 651 l 517 391 q 459 298 505 336 q 359 260 413 260 l 229 260 l 174 0 l 43 0 l 210 781 l 470 781 q 553 743 524 781 q 576 680 576 715 q 572 651 576 666 m 440 846 l 353 846 l 368 911 l 454 911 l 440 846 z "},"ṗ":{"ha":477,"x_min":16,"x_max":548,"o":"m 434 716 l 347 716 l 361 781 l 448 781 l 434 716 m 284 521 q 329 613 296 575 q 399 651 363 651 l 442 651 q 526 613 496 651 q 548 550 548 586 q 545 521 548 536 l 462 130 q 404 38 450 76 q 304 0 357 0 l 260 0 q 207 38 224 0 q 197 89 197 60 q 201 130 197 109 l 332 130 l 414 521 l 284 521 m 146 -130 l 16 -130 l 182 651 l 269 651 l 284 521 l 146 -130 z "},"Ṙ":{"ha":477,"x_min":43,"x_max":576,"o":"m 442 651 l 312 651 l 256 391 l 387 391 l 442 651 m 572 651 l 517 391 q 459 298 505 336 q 389 263 426 271 l 434 0 l 294 0 l 249 260 l 229 260 l 174 0 l 43 0 l 210 781 l 470 781 q 553 743 524 781 q 576 680 576 715 q 572 651 576 666 m 440 846 l 353 846 l 368 911 l 454 911 l 440 846 z "},"ṙ":{"ha":477,"x_min":43,"x_max":548,"o":"m 434 716 l 347 716 l 361 781 l 448 781 l 434 716 m 182 651 l 269 651 l 284 521 l 174 0 l 43 0 l 182 651 m 545 521 l 526 434 l 396 434 l 414 521 l 284 521 q 329 613 296 575 q 399 651 363 651 l 442 651 q 526 613 496 651 q 548 550 548 586 q 545 521 548 536 z "},"Ṡ":{"ha":477,"x_min":68,"x_max":576,"o":"m 174 0 q 90 38 120 0 q 68 101 68 65 q 71 130 68 115 l 72 130 l 100 260 l 230 260 l 202 130 l 332 130 l 349 213 l 154 521 l 182 651 q 240 743 193 705 q 340 781 286 781 l 470 781 q 554 743 524 781 q 576 680 576 716 q 572 651 576 666 l 545 521 l 414 521 l 442 651 l 312 651 l 294 568 l 490 260 l 462 130 q 404 38 450 76 q 304 0 358 0 l 174 0 m 462 846 l 375 846 l 389 911 l 476 911 l 462 846 z "},"ṡ":{"ha":477,"x_min":68,"x_max":548,"o":"m 174 0 q 90 38 120 0 q 68 101 68 65 q 71 130 68 115 l 72 130 l 90 217 l 220 217 l 202 130 l 332 130 l 335 148 l 140 456 l 154 521 q 212 613 165 575 q 312 651 258 651 l 442 651 q 526 613 496 651 q 548 550 548 586 q 545 521 548 536 l 526 434 l 396 434 l 414 521 l 284 521 l 281 503 l 475 195 l 462 130 q 404 38 450 76 q 304 0 358 0 l 174 0 m 434 716 l 347 716 l 361 781 l 448 781 l 434 716 z "},"Ṫ":{"ha":477,"x_min":174,"x_max":600,"o":"m 304 0 l 174 0 l 312 651 l 182 651 l 210 781 l 600 781 l 572 651 l 442 651 l 304 0 m 462 846 l 375 846 l 389 911 l 476 911 l 462 846 z "},"ṫ":{"ha":347,"x_min":133,"x_max":442,"o":"m 267 130 l 332 130 l 304 0 l 239 0 q 155 38 185 0 q 133 101 133 65 q 136 130 133 115 l 219 521 l 154 521 l 182 651 l 247 651 l 275 781 l 405 781 l 377 651 l 442 651 l 414 521 l 349 521 l 267 130 m 397 846 l 310 846 l 324 911 l 411 911 l 397 846 z "},"Ẇ":{"ha":738,"x_min":172,"x_max":861,"o":"m 592 846 l 505 846 l 519 911 l 606 911 l 592 846 m 566 0 l 432 0 l 452 391 l 306 0 l 172 0 l 210 781 l 342 781 l 294 260 l 468 781 l 602 781 l 555 260 l 728 781 l 861 781 l 566 0 z "},"ẇ":{"ha":738,"x_min":172,"x_max":833,"o":"m 564 716 l 477 716 l 492 781 l 578 781 l 564 716 m 172 0 l 182 651 l 314 651 l 294 260 l 440 651 l 574 651 l 555 260 l 701 651 l 833 651 l 566 0 l 432 0 l 452 391 l 306 0 l 172 0 z "},"Ẋ":{"ha":477,"x_min":43,"x_max":600,"o":"m 462 846 l 375 846 l 389 911 l 476 911 l 462 846 m 392 391 l 434 0 l 294 0 l 294 260 l 184 0 l 43 0 l 252 391 l 210 781 l 350 781 l 349 521 l 460 781 l 600 781 l 392 391 z "},"ẋ":{"ha":477,"x_min":43,"x_max":572,"o":"m 434 716 l 347 716 l 361 781 l 448 781 l 434 716 m 378 326 l 434 0 l 294 0 l 280 195 l 184 0 l 43 0 l 238 326 l 182 651 l 322 651 l 336 456 l 432 651 l 572 651 l 378 326 z "},"Ẏ":{"ha":477,"x_min":174,"x_max":600,"o":"m 462 846 l 375 846 l 389 911 l 476 911 l 462 846 m 321 391 l 468 781 l 600 781 l 359 260 l 304 0 l 174 0 l 229 260 l 210 781 l 342 781 l 321 391 z "},"ẏ":{"ha":477,"x_min":16,"x_max":572,"o":"m 434 716 l 347 716 l 361 781 l 448 781 l 434 716 m 16 -130 l 87 0 l 172 0 l 182 651 l 314 651 l 294 260 l 440 651 l 572 651 l 306 0 l 304 0 q 246 -92 292 -54 q 146 -130 200 -130 l 16 -130 z "},"Å":{"ha":477,"x_min":43,"x_max":528,"o":"m 331 260 l 377 651 l 258 260 l 331 260 m 434 0 l 304 0 l 317 130 l 216 130 l 174 0 l 43 0 l 295 781 l 515 781 l 434 0 m 385 841 l 450 841 l 466 917 l 401 917 l 385 841 m 324 863 l 332 895 q 360 941 337 922 q 410 960 383 960 l 475 960 q 517 941 503 960 q 528 909 528 927 q 527 895 528 903 l 519 863 q 491 817 514 836 q 441 798 468 798 l 376 798 q 334 817 349 798 q 323 849 323 831 q 324 863 323 855 z "},"å":{"ha":477,"x_min":68,"x_max":548,"o":"m 379 711 l 444 711 l 460 787 l 395 787 l 379 711 m 319 732 l 326 765 q 354 811 331 792 q 404 830 377 830 l 469 830 q 511 811 496 830 q 522 779 522 797 q 521 765 522 772 l 514 732 q 485 686 508 705 q 435 667 462 667 l 370 667 q 328 686 342 667 q 317 718 317 700 q 319 732 317 724 m 332 130 l 373 326 l 243 326 l 201 130 l 332 130 m 332 130 q 287 38 320 76 q 217 0 253 0 l 174 0 q 90 38 120 0 q 68 101 68 65 q 71 130 68 115 l 113 326 q 158 418 124 380 q 227 456 191 456 l 271 456 q 355 418 325 456 q 376 355 376 391 q 374 330 376 342 l 414 521 l 197 521 q 255 613 209 575 q 355 651 301 651 l 442 651 q 526 613 496 651 q 548 549 548 585 q 545 521 548 536 l 434 0 l 347 0 l 332 130 z "},"Ů":{"ha":477,"x_min":68,"x_max":600,"o":"m 470 781 l 600 781 l 462 130 q 404 38 450 76 q 304 0 358 0 l 174 0 q 90 38 120 0 q 68 101 68 65 q 71 130 68 115 l 210 781 l 340 781 l 201 130 l 332 130 l 470 781 m 324 863 l 332 895 q 360 941 337 922 q 410 960 383 960 l 475 960 q 517 941 503 960 q 528 909 528 927 q 527 895 528 903 l 519 863 q 491 817 514 836 q 441 798 468 798 l 376 798 q 334 817 349 798 q 323 849 323 831 q 324 863 323 855 m 385 841 l 450 841 l 466 917 l 401 917 l 385 841 z "},"ů":{"ha":477,"x_min":68,"x_max":572,"o":"m 357 711 l 422 711 l 439 787 l 374 787 l 357 711 m 332 130 q 287 38 320 76 q 217 0 253 0 l 174 0 q 90 38 120 0 q 68 101 68 65 q 71 130 68 115 l 182 651 l 312 651 l 201 130 l 332 130 m 442 651 l 572 651 l 434 0 l 347 0 l 332 130 l 442 651 m 297 732 l 304 765 q 332 811 309 792 q 382 830 355 830 l 448 830 q 490 811 475 830 q 500 779 500 797 q 499 765 500 772 l 492 732 q 463 686 486 705 q 413 667 440 667 l 348 667 q 306 686 321 667 q 295 718 295 700 q 297 732 295 724 z "},"ẘ":{"ha":738,"x_min":172,"x_max":833,"o":"m 488 711 l 553 711 l 569 787 l 504 787 l 488 711 m 172 0 l 182 651 l 314 651 l 294 260 l 440 651 l 574 651 l 555 260 l 701 651 l 833 651 l 566 0 l 432 0 l 452 391 l 306 0 l 172 0 m 427 732 l 434 765 q 463 811 439 792 q 513 830 486 830 l 578 830 q 620 811 605 830 q 631 779 631 797 q 629 765 631 772 l 623 732 q 593 686 616 705 q 543 667 570 667 l 478 667 q 436 686 451 667 q 425 718 425 700 q 427 732 425 724 z "},"ẙ":{"ha":477,"x_min":16,"x_max":572,"o":"m 357 711 l 422 711 l 439 787 l 374 787 l 357 711 m 16 -130 l 87 0 l 172 0 l 182 651 l 314 651 l 294 260 l 440 651 l 572 651 l 306 0 l 304 0 q 246 -92 292 -54 q 146 -130 200 -130 l 16 -130 m 297 732 l 304 765 q 332 811 309 792 q 382 830 355 830 l 448 830 q 490 811 475 830 q 500 779 500 797 q 499 765 500 772 l 492 732 q 463 686 486 705 q 413 667 440 667 l 348 667 q 306 686 321 667 q 295 718 295 700 q 297 732 295 724 z "},"Č":{"ha":477,"x_min":68,"x_max":576,"o":"m 332 130 l 359 260 l 490 260 l 462 130 q 404 38 450 76 q 304 0 358 0 l 174 0 q 90 38 120 0 q 68 101 68 65 q 71 130 68 115 l 182 651 q 240 743 193 705 q 340 781 286 781 l 470 781 q 554 743 524 781 q 576 680 576 715 q 572 651 576 666 l 545 521 l 414 521 l 442 651 l 312 651 l 201 130 l 332 130 m 428 890 l 512 960 l 548 913 l 408 798 l 317 913 l 374 960 l 428 890 z "},"č":{"ha":477,"x_min":68,"x_max":548,"o":"m 332 130 l 350 217 l 480 217 l 462 130 q 404 38 450 76 q 304 0 358 0 l 174 0 q 90 38 120 0 q 68 101 68 65 q 71 130 68 115 l 154 521 q 212 613 165 574 q 312 651 258 651 l 442 651 q 526 613 496 651 q 548 549 548 585 q 545 521 548 536 l 526 434 l 396 434 l 414 521 l 284 521 l 201 130 l 332 130 m 400 760 l 484 829 l 521 783 l 380 668 l 290 783 l 346 829 l 400 760 z "},"Ď":{"ha":477,"x_min":43,"x_max":576,"o":"m 442 651 l 312 651 l 201 130 l 332 130 l 442 651 m 462 130 q 404 38 450 76 q 304 0 357 0 l 43 0 l 210 781 l 470 781 q 553 743 524 781 q 576 680 576 715 q 572 651 576 666 l 462 130 m 406 890 l 490 960 l 526 913 l 387 798 l 296 913 l 352 960 l 406 890 z "},"ď":{"ha":477,"x_min":68,"x_max":687,"o":"m 622 781 l 687 781 l 659 651 l 581 586 l 622 781 m 332 130 q 287 38 320 76 q 217 0 253 0 l 174 0 q 90 38 120 0 q 68 101 68 65 q 71 130 68 115 l 154 521 q 212 613 165 574 q 312 651 258 651 l 355 651 q 409 613 391 651 q 419 562 419 590 q 414 521 419 543 l 284 521 l 201 130 l 332 130 m 470 781 l 600 781 l 434 0 l 347 0 l 332 130 l 470 781 z "},"Ě":{"ha":477,"x_min":43,"x_max":600,"o":"m 600 781 l 572 651 l 312 651 l 271 456 l 488 456 l 460 326 l 243 326 l 201 130 l 462 130 l 434 0 l 43 0 l 210 781 l 600 781 m 428 890 l 512 960 l 548 913 l 408 798 l 317 913 l 374 960 l 428 890 z "},"ě":{"ha":477,"x_min":68,"x_max":548,"o":"m 256 391 l 387 391 l 414 521 l 284 521 l 256 391 m 332 130 l 345 195 l 475 195 l 462 130 q 404 38 450 76 q 304 0 358 0 l 174 0 q 90 38 120 0 q 68 101 68 65 q 71 130 68 115 l 154 521 q 212 613 165 574 q 312 651 258 651 l 442 651 q 526 613 496 651 q 548 549 548 585 q 545 521 548 536 l 490 260 l 229 260 l 201 130 l 332 130 m 400 760 l 484 829 l 521 783 l 380 668 l 290 783 l 346 829 l 400 760 z "},"Ľ":{"ha":412,"x_min":43,"x_max":503,"o":"m 210 781 l 340 781 l 201 130 l 397 130 l 369 0 l 43 0 l 210 781 m 437 781 l 503 781 l 475 651 l 396 586 l 437 781 z "},"ľ":{"ha":217,"x_min":66,"x_max":427,"o":"m 210 781 l 340 781 l 174 0 l 130 0 q 77 38 94 0 q 66 89 66 60 q 71 130 66 109 l 210 781 m 361 781 l 427 781 l 399 651 l 320 586 l 361 781 z "},"Ň":{"ha":477,"x_min":43,"x_max":600,"o":"m 428 890 l 512 960 l 548 913 l 408 798 l 317 913 l 374 960 l 428 890 m 210 781 l 350 781 l 387 391 l 470 781 l 600 781 l 434 0 l 294 0 l 256 391 l 174 0 l 43 0 l 210 781 z "},"ň":{"ha":477,"x_min":43,"x_max":548,"o":"m 400 760 l 484 829 l 521 783 l 380 668 l 290 783 l 346 829 l 400 760 m 182 651 l 269 651 l 284 521 l 174 0 l 43 0 l 182 651 m 284 521 q 329 613 296 575 q 399 651 363 651 l 442 651 q 526 613 496 651 q 548 550 548 586 q 545 521 548 536 l 434 0 l 304 0 l 414 521 l 284 521 z "},"Ř":{"ha":477,"x_min":43,"x_max":576,"o":"m 442 651 l 312 651 l 256 391 l 387 391 l 442 651 m 572 651 l 517 391 q 459 298 505 336 q 389 263 426 271 l 434 0 l 294 0 l 249 260 l 229 260 l 174 0 l 43 0 l 210 781 l 470 781 q 553 743 524 781 q 576 680 576 715 q 572 651 576 666 m 406 890 l 490 960 l 526 913 l 387 798 l 296 913 l 352 960 l 406 890 z "},"ř":{"ha":477,"x_min":43,"x_max":548,"o":"m 400 760 l 484 829 l 521 783 l 380 668 l 290 783 l 346 829 l 400 760 m 182 651 l 269 651 l 284 521 l 174 0 l 43 0 l 182 651 m 545 521 l 526 434 l 396 434 l 414 521 l 284 521 q 329 613 296 575 q 399 651 363 651 l 442 651 q 526 613 496 651 q 548 550 548 586 q 545 521 548 536 z "},"Š":{"ha":477,"x_min":68,"x_max":576,"o":"m 174 0 q 90 38 120 0 q 68 101 68 65 q 71 130 68 115 l 72 130 l 100 260 l 230 260 l 202 130 l 332 130 l 349 213 l 154 521 l 182 651 q 240 743 193 705 q 340 781 286 781 l 470 781 q 554 743 524 781 q 576 680 576 716 q 572 651 576 666 l 545 521 l 414 521 l 442 651 l 312 651 l 294 568 l 490 260 l 462 130 q 404 38 450 76 q 304 0 358 0 l 174 0 m 428 890 l 512 960 l 548 913 l 408 798 l 317 913 l 374 960 l 428 890 z "},"š":{"ha":477,"x_min":68,"x_max":548,"o":"m 174 0 q 90 38 120 0 q 68 101 68 65 q 71 130 68 115 l 72 130 l 90 217 l 220 217 l 202 130 l 332 130 l 335 148 l 140 456 l 154 521 q 212 613 165 575 q 312 651 258 651 l 442 651 q 526 613 496 651 q 548 550 548 586 q 545 521 548 536 l 526 434 l 396 434 l 414 521 l 284 521 l 281 503 l 475 195 l 462 130 q 404 38 450 76 q 304 0 358 0 l 174 0 m 400 760 l 484 829 l 521 783 l 380 668 l 290 783 l 346 829 l 400 760 z "},"Ť":{"ha":477,"x_min":174,"x_max":600,"o":"m 304 0 l 174 0 l 312 651 l 182 651 l 210 781 l 600 781 l 572 651 l 442 651 l 304 0 m 428 890 l 512 960 l 548 913 l 408 798 l 317 913 l 374 960 l 428 890 z "},"ť":{"ha":347,"x_min":133,"x_max":541,"o":"m 267 130 l 332 130 l 304 0 l 239 0 q 155 38 185 0 q 133 101 133 65 q 136 130 133 115 l 219 521 l 154 521 l 182 651 l 247 651 l 275 781 l 405 781 l 377 651 l 442 651 l 414 521 l 349 521 l 267 130 m 476 911 l 541 911 l 513 781 l 434 716 l 476 911 z "},"Ž":{"ha":477,"x_min":43,"x_max":600,"o":"m 43 0 l 71 130 l 420 651 l 182 651 l 210 781 l 600 781 l 572 651 l 224 130 l 462 130 l 434 0 l 43 0 m 428 890 l 512 960 l 548 913 l 408 798 l 317 913 l 374 960 l 428 890 z "},"ž":{"ha":477,"x_min":43,"x_max":572,"o":"m 43 0 l 71 130 l 392 521 l 154 521 l 182 651 l 572 651 l 545 521 l 224 130 l 462 130 l 434 0 l 43 0 m 400 760 l 484 829 l 521 783 l 380 668 l 290 783 l 346 829 l 400 760 z "},"Ǎ":{"ha":477,"x_min":43,"x_max":548,"o":"m 428 890 l 512 960 l 548 913 l 408 798 l 317 913 l 374 960 l 428 890 m 331 260 l 377 651 l 258 260 l 331 260 m 434 0 l 304 0 l 317 130 l 216 130 l 174 0 l 43 0 l 295 781 l 515 781 l 434 0 z "},"ǎ":{"ha":477,"x_min":68,"x_max":548,"o":"m 422 760 l 506 829 l 543 783 l 402 668 l 312 783 l 368 829 l 422 760 m 332 130 l 373 326 l 243 326 l 201 130 l 332 130 m 332 130 q 287 38 320 76 q 217 0 253 0 l 174 0 q 90 38 120 0 q 68 101 68 65 q 71 130 68 115 l 113 326 q 158 418 124 380 q 227 456 191 456 l 271 456 q 355 418 325 456 q 376 355 376 391 q 374 330 376 342 l 414 521 l 197 521 q 255 613 209 575 q 355 651 301 651 l 442 651 q 526 613 496 651 q 548 549 548 585 q 545 521 548 536 l 434 0 l 347 0 l 332 130 z "},"Ǐ":{"ha":217,"x_min":43,"x_max":418,"o":"m 174 0 l 43 0 l 210 781 l 340 781 l 174 0 m 298 890 l 382 960 l 418 913 l 278 798 l 187 913 l 243 960 l 298 890 z "},"ǐ":{"ha":217,"x_min":43,"x_max":391,"o":"m 174 0 l 43 0 l 182 651 l 312 651 l 174 0 m 270 760 l 354 829 l 391 783 l 250 668 l 160 783 l 216 829 l 270 760 z "},"Ǒ":{"ha":477,"x_min":68,"x_max":576,"o":"m 201 130 l 332 130 l 442 651 l 312 651 l 201 130 m 71 130 l 182 651 q 240 743 193 705 q 340 781 286 781 l 470 781 q 554 743 524 781 q 576 680 576 715 q 572 651 576 666 l 462 130 q 404 38 450 76 q 304 0 358 0 l 174 0 q 90 38 120 0 q 68 101 68 65 q 71 130 68 115 m 428 890 l 512 960 l 548 913 l 408 798 l 317 913 l 374 960 l 428 890 z "},"ǒ":{"ha":477,"x_min":68,"x_max":548,"o":"m 201 130 l 332 130 l 414 521 l 284 521 l 201 130 m 71 130 l 154 521 q 212 613 165 574 q 312 651 258 651 l 442 651 q 526 613 496 651 q 548 549 548 585 q 545 521 548 536 l 462 130 q 404 38 450 76 q 304 0 358 0 l 174 0 q 90 38 120 0 q 68 101 68 65 q 71 130 68 115 m 400 760 l 484 829 l 521 783 l 380 668 l 290 783 l 346 829 l 400 760 z "},"Ǔ":{"ha":477,"x_min":68,"x_max":600,"o":"m 470 781 l 600 781 l 462 130 q 404 38 450 76 q 304 0 358 0 l 174 0 q 90 38 120 0 q 68 101 68 65 q 71 130 68 115 l 210 781 l 340 781 l 201 130 l 332 130 l 470 781 m 428 890 l 512 960 l 548 913 l 408 798 l 317 913 l 374 960 l 428 890 z "},"ǔ":{"ha":477,"x_min":68,"x_max":572,"o":"m 400 760 l 484 829 l 521 783 l 380 668 l 290 783 l 346 829 l 400 760 m 442 651 l 572 651 l 434 0 l 347 0 l 332 130 l 442 651 m 332 130 q 287 38 320 76 q 217 0 253 0 l 174 0 q 90 38 120 0 q 68 101 68 65 q 71 130 68 115 l 182 651 l 312 651 l 201 130 l 332 130 z "},"Ǧ":{"ha":477,"x_min":68,"x_max":576,"o":"m 428 890 l 512 960 l 548 913 l 408 798 l 317 913 l 374 960 l 428 890 m 572 651 l 554 564 l 424 564 l 442 651 l 312 651 l 201 130 l 332 130 q 287 38 320 76 q 217 0 253 0 l 174 0 q 90 38 120 0 q 68 101 68 65 q 71 130 68 115 l 182 651 q 240 743 193 705 q 340 781 286 781 l 470 781 q 554 743 524 781 q 576 680 576 715 q 572 651 576 666 m 373 326 l 330 326 l 357 456 l 531 456 l 434 0 l 347 0 l 332 130 l 373 326 z "},"ǧ":{"ha":477,"x_min":59,"x_max":572,"o":"m 355 651 q 409 613 391 651 q 419 562 419 591 q 414 521 419 543 l 284 521 l 210 174 l 340 174 q 296 82 330 120 q 227 43 262 43 l 183 43 q 99 82 129 43 q 77 146 77 110 q 80 174 77 159 l 154 521 q 212 613 165 575 q 312 651 258 651 l 355 651 m 414 521 l 486 651 l 572 651 l 434 0 q 376 -92 422 -54 q 276 -130 330 -130 l 59 -130 l 174 0 l 304 0 l 414 521 m 400 760 l 484 829 l 521 783 l 380 668 l 290 783 l 346 829 l 400 760 z "},"Ǩ":{"ha":477,"x_min":43,"x_max":600,"o":"m 428 890 l 512 960 l 548 913 l 408 798 l 317 913 l 374 960 l 428 890 m 229 260 l 174 0 l 43 0 l 210 781 l 340 781 l 256 391 l 460 781 l 600 781 l 345 302 l 434 0 l 281 0 l 229 260 z "},"ǩ":{"ha":477,"x_min":43,"x_max":572,"o":"m 298 890 l 382 960 l 418 913 l 278 798 l 187 913 l 243 960 l 298 890 m 210 781 l 340 781 l 245 338 l 432 651 l 572 651 l 334 252 l 434 0 l 281 0 l 211 177 l 174 0 l 43 0 l 210 781 z "},"ǰ":{"ha":260,"x_min":-71,"x_max":434,"o":"m 225 651 l 355 651 l 217 0 q 159 -92 205 -54 q 59 -130 113 -130 l -71 -130 l 43 0 l 87 0 l 225 651 m 313 760 l 397 829 l 434 783 l 294 668 l 203 783 l 259 829 l 313 760 z "},"Ȟ":{"ha":477,"x_min":43,"x_max":600,"o":"m 210 781 l 340 781 l 271 456 l 401 456 l 470 781 l 600 781 l 434 0 l 304 0 l 373 326 l 243 326 l 174 0 l 43 0 l 210 781 m 428 890 l 512 960 l 548 913 l 408 798 l 317 913 l 374 960 l 428 890 z "},"ȟ":{"ha":477,"x_min":43,"x_max":548,"o":"m 298 890 l 382 960 l 418 913 l 278 798 l 187 913 l 243 960 l 298 890 m 284 521 l 174 0 l 43 0 l 210 781 l 340 781 l 287 531 q 330 613 299 578 q 399 651 363 651 l 442 651 q 526 613 496 651 q 548 550 548 586 q 545 521 548 536 l 434 0 l 304 0 l 414 521 l 284 521 z "},"Â":{"ha":477,"x_min":43,"x_max":534,"o":"m 423 867 l 339 798 l 303 844 l 443 960 l 534 844 l 477 798 l 423 867 m 331 260 l 377 651 l 258 260 l 331 260 m 434 0 l 304 0 l 317 130 l 216 130 l 174 0 l 43 0 l 295 781 l 515 781 l 434 0 z "},"â":{"ha":477,"x_min":68,"x_max":548,"o":"m 417 737 l 333 668 l 297 714 l 437 829 l 528 714 l 471 668 l 417 737 m 332 130 l 373 326 l 243 326 l 201 130 l 332 130 m 332 130 q 287 38 320 76 q 217 0 253 0 l 174 0 q 90 38 120 0 q 68 101 68 65 q 71 130 68 115 l 113 326 q 158 418 124 380 q 227 456 191 456 l 271 456 q 355 418 325 456 q 376 355 376 391 q 374 330 376 342 l 414 521 l 197 521 q 255 613 209 575 q 355 651 301 651 l 442 651 q 526 613 496 651 q 548 549 548 585 q 545 521 548 536 l 434 0 l 347 0 l 332 130 z "},"Ê":{"ha":477,"x_min":43,"x_max":600,"o":"m 600 781 l 572 651 l 312 651 l 271 456 l 488 456 l 460 326 l 243 326 l 201 130 l 462 130 l 434 0 l 43 0 l 210 781 l 600 781 m 423 867 l 339 798 l 303 844 l 443 960 l 534 844 l 477 798 l 423 867 z "},"ê":{"ha":477,"x_min":68,"x_max":548,"o":"m 256 391 l 387 391 l 414 521 l 284 521 l 256 391 m 332 130 l 345 195 l 475 195 l 462 130 q 404 38 450 76 q 304 0 358 0 l 174 0 q 90 38 120 0 q 68 101 68 65 q 71 130 68 115 l 154 521 q 212 613 165 574 q 312 651 258 651 l 442 651 q 526 613 496 651 q 548 549 548 585 q 545 521 548 536 l 490 260 l 229 260 l 201 130 l 332 130 m 395 737 l 311 668 l 275 714 l 415 829 l 506 714 l 450 668 l 395 737 z "},"Î":{"ha":217,"x_min":43,"x_max":404,"o":"m 174 0 l 43 0 l 210 781 l 340 781 l 174 0 m 293 867 l 209 798 l 173 844 l 313 960 l 404 844 l 347 798 l 293 867 z "},"î":{"ha":217,"x_min":43,"x_max":376,"o":"m 174 0 l 43 0 l 182 651 l 312 651 l 174 0 m 265 737 l 181 668 l 145 714 l 285 829 l 376 714 l 319 668 l 265 737 z "},"Ô":{"ha":477,"x_min":68,"x_max":576,"o":"m 201 130 l 332 130 l 442 651 l 312 651 l 201 130 m 71 130 l 182 651 q 240 743 193 705 q 340 781 286 781 l 470 781 q 554 743 524 781 q 576 680 576 715 q 572 651 576 666 l 462 130 q 404 38 450 76 q 304 0 358 0 l 174 0 q 90 38 120 0 q 68 101 68 65 q 71 130 68 115 m 423 867 l 339 798 l 303 844 l 443 960 l 534 844 l 477 798 l 423 867 z "},"ô":{"ha":477,"x_min":68,"x_max":548,"o":"m 201 130 l 332 130 l 414 521 l 284 521 l 201 130 m 71 130 l 154 521 q 212 613 165 574 q 312 651 258 651 l 442 651 q 526 613 496 651 q 548 549 548 585 q 545 521 548 536 l 462 130 q 404 38 450 76 q 304 0 358 0 l 174 0 q 90 38 120 0 q 68 101 68 65 q 71 130 68 115 m 395 737 l 311 668 l 275 714 l 415 829 l 506 714 l 450 668 l 395 737 z "},"Û":{"ha":477,"x_min":68,"x_max":600,"o":"m 470 781 l 600 781 l 462 130 q 404 38 450 76 q 304 0 358 0 l 174 0 q 90 38 120 0 q 68 101 68 65 q 71 130 68 115 l 210 781 l 340 781 l 201 130 l 332 130 l 470 781 m 423 867 l 339 798 l 303 844 l 443 960 l 534 844 l 477 798 l 423 867 z "},"û":{"ha":477,"x_min":68,"x_max":572,"o":"m 395 737 l 311 668 l 275 714 l 415 829 l 506 714 l 450 668 l 395 737 m 442 651 l 572 651 l 434 0 l 347 0 l 332 130 l 442 651 m 332 130 q 287 38 320 76 q 217 0 253 0 l 174 0 q 90 38 120 0 q 68 101 68 65 q 71 130 68 115 l 182 651 l 312 651 l 201 130 l 332 130 z "},"Ĉ":{"ha":477,"x_min":68,"x_max":576,"o":"m 332 130 l 359 260 l 490 260 l 462 130 q 404 38 450 76 q 304 0 358 0 l 174 0 q 90 38 120 0 q 68 101 68 65 q 71 130 68 115 l 182 651 q 240 743 193 705 q 340 781 286 781 l 470 781 q 554 743 524 781 q 576 680 576 715 q 572 651 576 666 l 545 521 l 414 521 l 442 651 l 312 651 l 201 130 l 332 130 m 423 867 l 339 798 l 303 844 l 443 960 l 534 844 l 477 798 l 423 867 z "},"ĉ":{"ha":477,"x_min":68,"x_max":548,"o":"m 332 130 l 350 217 l 480 217 l 462 130 q 404 38 450 76 q 304 0 358 0 l 174 0 q 90 38 120 0 q 68 101 68 65 q 71 130 68 115 l 154 521 q 212 613 165 574 q 312 651 258 651 l 442 651 q 526 613 496 651 q 548 549 548 585 q 545 521 548 536 l 526 434 l 396 434 l 414 521 l 284 521 l 201 130 l 332 130 m 395 737 l 311 668 l 275 714 l 415 829 l 506 714 l 450 668 l 395 737 z "},"Ĝ":{"ha":477,"x_min":68,"x_max":576,"o":"m 423 867 l 339 798 l 303 844 l 443 960 l 534 844 l 477 798 l 423 867 m 572 651 l 554 564 l 424 564 l 442 651 l 312 651 l 201 130 l 332 130 q 287 38 320 76 q 217 0 253 0 l 174 0 q 90 38 120 0 q 68 101 68 65 q 71 130 68 115 l 182 651 q 240 743 193 705 q 340 781 286 781 l 470 781 q 554 743 524 781 q 576 680 576 715 q 572 651 576 666 m 373 326 l 330 326 l 357 456 l 531 456 l 434 0 l 347 0 l 332 130 l 373 326 z "},"ĝ":{"ha":477,"x_min":59,"x_max":572,"o":"m 355 651 q 409 613 391 651 q 419 562 419 591 q 414 521 419 543 l 284 521 l 210 174 l 340 174 q 296 82 330 120 q 227 43 262 43 l 183 43 q 99 82 129 43 q 77 146 77 110 q 80 174 77 159 l 154 521 q 212 613 165 575 q 312 651 258 651 l 355 651 m 414 521 l 486 651 l 572 651 l 434 0 q 376 -92 422 -54 q 276 -130 330 -130 l 59 -130 l 174 0 l 304 0 l 414 521 m 395 737 l 311 668 l 275 714 l 415 829 l 506 714 l 450 668 l 395 737 z "},"Ĥ":{"ha":477,"x_min":43,"x_max":600,"o":"m 210 781 l 340 781 l 271 456 l 401 456 l 470 781 l 600 781 l 434 0 l 304 0 l 373 326 l 243 326 l 174 0 l 43 0 l 210 781 m 423 867 l 339 798 l 303 844 l 443 960 l 534 844 l 477 798 l 423 867 z "},"ĥ":{"ha":477,"x_min":43,"x_max":548,"o":"m 293 867 l 209 798 l 173 844 l 313 960 l 404 844 l 347 798 l 293 867 m 284 521 l 174 0 l 43 0 l 210 781 l 340 781 l 287 531 q 330 613 299 578 q 399 651 363 651 l 442 651 q 526 613 496 651 q 548 550 548 586 q 545 521 548 536 l 434 0 l 304 0 l 414 521 l 284 521 z "},"Ĵ":{"ha":477,"x_min":68,"x_max":664,"o":"m 553 867 l 469 798 l 433 844 l 573 960 l 664 844 l 608 798 l 553 867 m 174 0 q 90 38 120 0 q 68 101 68 65 q 71 130 68 115 l 72 130 l 100 260 l 230 260 l 202 130 l 332 130 l 470 781 l 600 781 l 462 130 q 404 38 450 76 q 304 0 358 0 l 174 0 z "},"ĵ":{"ha":260,"x_min":-71,"x_max":419,"o":"m 225 651 l 355 651 l 217 0 q 159 -92 205 -54 q 59 -130 113 -130 l -71 -130 l 43 0 l 87 0 l 225 651 m 309 737 l 224 668 l 189 714 l 328 829 l 419 714 l 363 668 l 309 737 z "},"Ŝ":{"ha":477,"x_min":68,"x_max":576,"o":"m 174 0 q 90 38 120 0 q 68 101 68 65 q 71 130 68 115 l 72 130 l 100 260 l 230 260 l 202 130 l 332 130 l 349 213 l 154 521 l 182 651 q 240 743 193 705 q 340 781 286 781 l 470 781 q 554 743 524 781 q 576 680 576 716 q 572 651 576 666 l 545 521 l 414 521 l 442 651 l 312 651 l 294 568 l 490 260 l 462 130 q 404 38 450 76 q 304 0 358 0 l 174 0 m 423 867 l 339 798 l 303 844 l 443 960 l 534 844 l 477 798 l 423 867 z "},"ŝ":{"ha":477,"x_min":68,"x_max":548,"o":"m 174 0 q 90 38 120 0 q 68 101 68 65 q 71 130 68 115 l 72 130 l 90 217 l 220 217 l 202 130 l 332 130 l 335 148 l 140 456 l 154 521 q 212 613 165 575 q 312 651 258 651 l 442 651 q 526 613 496 651 q 548 550 548 586 q 545 521 548 536 l 526 434 l 396 434 l 414 521 l 284 521 l 281 503 l 475 195 l 462 130 q 404 38 450 76 q 304 0 358 0 l 174 0 m 395 737 l 311 668 l 275 714 l 415 829 l 506 714 l 450 668 l 395 737 z "},"Ŵ":{"ha":738,"x_min":172,"x_max":861,"o":"m 553 867 l 469 798 l 433 844 l 573 960 l 664 844 l 608 798 l 553 867 m 566 0 l 432 0 l 452 391 l 306 0 l 172 0 l 210 781 l 342 781 l 294 260 l 468 781 l 602 781 l 555 260 l 728 781 l 861 781 l 566 0 z "},"ŵ":{"ha":738,"x_min":172,"x_max":833,"o":"m 526 737 l 441 668 l 406 714 l 545 829 l 636 714 l 580 668 l 526 737 m 172 0 l 182 651 l 314 651 l 294 260 l 440 651 l 574 651 l 555 260 l 701 651 l 833 651 l 566 0 l 432 0 l 452 391 l 306 0 l 172 0 z "},"Ŷ":{"ha":477,"x_min":174,"x_max":600,"o":"m 423 867 l 339 798 l 303 844 l 443 960 l 534 844 l 477 798 l 423 867 m 321 391 l 468 781 l 600 781 l 359 260 l 304 0 l 174 0 l 229 260 l 210 781 l 342 781 l 321 391 z "},"ŷ":{"ha":477,"x_min":16,"x_max":572,"o":"m 395 737 l 311 668 l 275 714 l 415 829 l 506 714 l 450 668 l 395 737 m 16 -130 l 87 0 l 172 0 l 182 651 l 314 651 l 294 260 l 440 651 l 572 651 l 306 0 l 304 0 q 246 -92 292 -54 q 146 -130 200 -130 l 16 -130 z "},"Ẑ":{"ha":477,"x_min":43,"x_max":600,"o":"m 43 0 l 71 130 l 420 651 l 182 651 l 210 781 l 600 781 l 572 651 l 224 130 l 462 130 l 434 0 l 43 0 m 423 867 l 339 798 l 303 844 l 443 960 l 534 844 l 477 798 l 423 867 z "},"ẑ":{"ha":477,"x_min":43,"x_max":572,"o":"m 43 0 l 71 130 l 392 521 l 154 521 l 182 651 l 572 651 l 545 521 l 224 130 l 462 130 l 434 0 l 43 0 m 395 737 l 311 668 l 275 714 l 415 829 l 506 714 l 450 668 l 395 737 z "},"Ă":{"ha":477,"x_min":43,"x_max":548,"o":"m 469 879 l 483 944 l 548 944 l 534 879 q 505 833 528 852 q 455 814 482 814 l 368 814 q 326 833 341 814 q 315 865 315 847 q 317 879 315 871 l 331 944 l 396 944 l 382 879 l 469 879 m 331 260 l 377 651 l 258 260 l 331 260 m 434 0 l 304 0 l 317 130 l 216 130 l 174 0 l 43 0 l 295 781 l 515 781 l 434 0 z "},"ă":{"ha":477,"x_min":68,"x_max":548,"o":"m 463 749 l 477 814 l 542 814 l 528 749 q 499 703 522 722 q 449 684 476 684 l 362 684 q 320 703 335 684 q 309 734 309 716 q 311 749 309 741 l 325 814 l 390 814 l 376 749 l 463 749 m 332 130 l 373 326 l 243 326 l 201 130 l 332 130 m 332 130 q 287 38 320 76 q 217 0 253 0 l 174 0 q 90 38 120 0 q 68 101 68 65 q 71 130 68 115 l 113 326 q 158 418 124 380 q 227 456 191 456 l 271 456 q 355 418 325 456 q 376 355 376 391 q 374 330 376 342 l 414 521 l 197 521 q 255 613 209 575 q 355 651 301 651 l 442 651 q 526 613 496 651 q 548 549 548 585 q 545 521 548 536 l 434 0 l 347 0 l 332 130 z "},"Ĕ":{"ha":477,"x_min":43,"x_max":600,"o":"m 600 781 l 572 651 l 312 651 l 271 456 l 488 456 l 460 326 l 243 326 l 201 130 l 462 130 l 434 0 l 43 0 l 210 781 l 600 781 m 469 879 l 483 944 l 548 944 l 534 879 q 505 833 528 852 q 455 814 482 814 l 368 814 q 326 833 341 814 q 315 865 315 847 q 317 879 315 871 l 331 944 l 396 944 l 382 879 l 469 879 z "},"ĕ":{"ha":477,"x_min":68,"x_max":548,"o":"m 256 391 l 387 391 l 414 521 l 284 521 l 256 391 m 332 130 l 345 195 l 475 195 l 462 130 q 404 38 450 76 q 304 0 358 0 l 174 0 q 90 38 120 0 q 68 101 68 65 q 71 130 68 115 l 154 521 q 212 613 165 574 q 312 651 258 651 l 442 651 q 526 613 496 651 q 548 549 548 585 q 545 521 548 536 l 490 260 l 229 260 l 201 130 l 332 130 m 441 749 l 455 814 l 520 814 l 507 749 q 477 703 500 722 q 427 684 454 684 l 340 684 q 298 703 313 684 q 288 734 288 716 q 290 749 288 741 l 303 814 l 368 814 l 355 749 l 441 749 z "},"Ğ":{"ha":477,"x_min":68,"x_max":576,"o":"m 469 879 l 483 944 l 548 944 l 534 879 q 505 833 528 852 q 455 814 482 814 l 368 814 q 326 833 341 814 q 315 865 315 847 q 317 879 315 871 l 331 944 l 396 944 l 382 879 l 469 879 m 572 651 l 554 564 l 424 564 l 442 651 l 312 651 l 201 130 l 332 130 q 287 38 320 76 q 217 0 253 0 l 174 0 q 90 38 120 0 q 68 101 68 65 q 71 130 68 115 l 182 651 q 240 743 193 705 q 340 781 286 781 l 470 781 q 554 743 524 781 q 576 680 576 715 q 572 651 576 666 m 373 326 l 330 326 l 357 456 l 531 456 l 434 0 l 347 0 l 332 130 l 373 326 z "},"ğ":{"ha":477,"x_min":59,"x_max":572,"o":"m 355 651 q 409 613 391 651 q 419 562 419 591 q 414 521 419 543 l 284 521 l 210 174 l 340 174 q 296 82 330 120 q 227 43 262 43 l 183 43 q 99 82 129 43 q 77 146 77 110 q 80 174 77 159 l 154 521 q 212 613 165 575 q 312 651 258 651 l 355 651 m 414 521 l 486 651 l 572 651 l 434 0 q 376 -92 422 -54 q 276 -130 330 -130 l 59 -130 l 174 0 l 304 0 l 414 521 m 441 749 l 455 814 l 520 814 l 507 749 q 477 703 500 722 q 427 684 454 684 l 340 684 q 298 703 313 684 q 288 734 288 716 q 290 749 288 741 l 303 814 l 368 814 l 355 749 l 441 749 z "},"Ĭ":{"ha":217,"x_min":43,"x_max":418,"o":"m 174 0 l 43 0 l 210 781 l 340 781 l 174 0 m 338 879 l 353 944 l 418 944 l 404 879 q 375 833 398 852 q 325 814 352 814 l 238 814 q 196 833 211 814 q 185 865 185 847 q 186 879 185 871 l 201 944 l 266 944 l 252 879 l 338 879 z "},"ĭ":{"ha":217,"x_min":43,"x_max":390,"o":"m 174 0 l 43 0 l 182 651 l 312 651 l 174 0 m 311 749 l 325 814 l 390 814 l 376 749 q 347 703 370 722 q 297 684 324 684 l 210 684 q 168 703 183 684 q 157 734 157 716 q 159 749 157 741 l 173 814 l 238 814 l 224 749 l 311 749 z "},"Ŏ":{"ha":477,"x_min":68,"x_max":576,"o":"m 201 130 l 332 130 l 442 651 l 312 651 l 201 130 m 71 130 l 182 651 q 240 743 193 705 q 340 781 286 781 l 470 781 q 554 743 524 781 q 576 680 576 715 q 572 651 576 666 l 462 130 q 404 38 450 76 q 304 0 358 0 l 174 0 q 90 38 120 0 q 68 101 68 65 q 71 130 68 115 m 469 879 l 483 944 l 548 944 l 534 879 q 505 833 528 852 q 455 814 482 814 l 368 814 q 326 833 341 814 q 315 865 315 847 q 317 879 315 871 l 331 944 l 396 944 l 382 879 l 469 879 z "},"ŏ":{"ha":477,"x_min":68,"x_max":548,"o":"m 201 130 l 332 130 l 414 521 l 284 521 l 201 130 m 71 130 l 154 521 q 212 613 165 574 q 312 651 258 651 l 442 651 q 526 613 496 651 q 548 549 548 585 q 545 521 548 536 l 462 130 q 404 38 450 76 q 304 0 358 0 l 174 0 q 90 38 120 0 q 68 101 68 65 q 71 130 68 115 m 441 749 l 455 814 l 520 814 l 507 749 q 477 703 500 722 q 427 684 454 684 l 340 684 q 298 703 313 684 q 288 734 288 716 q 290 749 288 741 l 303 814 l 368 814 l 355 749 l 441 749 z "},"Ŭ":{"ha":477,"x_min":68,"x_max":600,"o":"m 470 781 l 600 781 l 462 130 q 404 38 450 76 q 304 0 358 0 l 174 0 q 90 38 120 0 q 68 101 68 65 q 71 130 68 115 l 210 781 l 340 781 l 201 130 l 332 130 l 470 781 m 469 879 l 483 944 l 548 944 l 534 879 q 505 833 528 852 q 455 814 482 814 l 368 814 q 326 833 341 814 q 315 865 315 847 q 317 879 315 871 l 331 944 l 396 944 l 382 879 l 469 879 z "},"ŭ":{"ha":477,"x_min":68,"x_max":572,"o":"m 441 749 l 455 814 l 520 814 l 507 749 q 477 703 500 722 q 427 684 454 684 l 340 684 q 298 703 313 684 q 288 734 288 716 q 290 749 288 741 l 303 814 l 368 814 l 355 749 l 441 749 m 442 651 l 572 651 l 434 0 l 347 0 l 332 130 l 442 651 m 332 130 q 287 38 320 76 q 217 0 253 0 l 174 0 q 90 38 120 0 q 68 101 68 65 q 71 130 68 115 l 182 651 l 312 651 l 201 130 l 332 130 z "},"Ã":{"ha":477,"x_min":43,"x_max":570,"o":"m 353 846 q 330 823 351 833 q 281 814 309 814 l 295 879 q 324 925 301 906 q 374 944 347 944 l 407 944 q 449 925 434 944 q 460 894 460 911 q 458 879 460 887 l 490 879 l 498 911 q 522 935 500 925 q 570 944 543 944 l 555 879 q 527 833 550 852 q 477 814 504 814 l 444 814 q 402 833 417 814 q 391 865 391 847 q 393 879 391 872 l 360 879 l 353 846 m 331 260 l 377 651 l 258 260 l 331 260 m 434 0 l 304 0 l 317 130 l 216 130 l 174 0 l 43 0 l 295 781 l 515 781 l 434 0 z "},"ã":{"ha":477,"x_min":68,"x_max":564,"o":"m 347 716 q 323 693 345 703 q 275 684 302 684 l 290 749 q 318 795 295 776 q 368 814 342 814 l 401 814 q 443 795 428 814 q 454 762 454 781 q 452 749 454 756 l 485 749 l 492 781 q 515 804 494 795 q 564 814 536 814 l 550 749 q 521 703 544 722 q 471 684 498 684 l 438 684 q 396 703 411 684 q 385 734 385 717 q 387 749 385 741 l 355 749 l 347 716 m 332 130 l 373 326 l 243 326 l 201 130 l 332 130 m 332 130 q 287 38 320 76 q 217 0 253 0 l 174 0 q 90 38 120 0 q 68 101 68 65 q 71 130 68 115 l 113 326 q 158 418 124 380 q 227 456 191 456 l 271 456 q 355 418 325 456 q 376 355 376 391 q 374 330 376 342 l 414 521 l 197 521 q 255 613 209 575 q 355 651 301 651 l 442 651 q 526 613 496 651 q 548 549 548 585 q 545 521 548 536 l 434 0 l 347 0 l 332 130 z "},"Ñ":{"ha":477,"x_min":43,"x_max":600,"o":"m 353 846 q 330 823 351 833 q 281 814 309 814 l 295 879 q 324 925 301 906 q 374 944 347 944 l 407 944 q 449 925 434 944 q 460 894 460 911 q 458 879 460 887 l 490 879 l 498 911 q 522 935 500 925 q 570 944 543 944 l 555 879 q 527 833 550 852 q 477 814 504 814 l 444 814 q 402 833 417 814 q 391 865 391 847 q 393 879 391 872 l 360 879 l 353 846 m 210 781 l 350 781 l 387 391 l 470 781 l 600 781 l 434 0 l 294 0 l 256 391 l 174 0 l 43 0 l 210 781 z "},"ñ":{"ha":477,"x_min":43,"x_max":548,"o":"m 326 716 q 302 693 323 703 q 254 684 281 684 l 268 749 q 297 795 273 776 q 347 814 320 814 l 379 814 q 421 795 406 814 q 432 762 432 781 q 431 749 432 756 l 463 749 l 470 781 q 494 804 473 795 q 542 814 515 814 l 528 749 q 499 703 522 722 q 449 684 476 684 l 416 684 q 374 703 389 684 q 363 734 363 717 q 366 749 363 741 l 333 749 l 326 716 m 182 651 l 269 651 l 284 521 l 174 0 l 43 0 l 182 651 m 284 521 q 329 613 296 575 q 399 651 363 651 l 442 651 q 526 613 496 651 q 548 550 548 586 q 545 521 548 536 l 434 0 l 304 0 l 414 521 l 284 521 z "},"Õ":{"ha":477,"x_min":68,"x_max":576,"o":"m 201 130 l 332 130 l 442 651 l 312 651 l 201 130 m 71 130 l 182 651 q 240 743 193 705 q 340 781 286 781 l 470 781 q 554 743 524 781 q 576 680 576 715 q 572 651 576 666 l 462 130 q 404 38 450 76 q 304 0 358 0 l 174 0 q 90 38 120 0 q 68 101 68 65 q 71 130 68 115 m 353 846 q 330 823 351 833 q 281 814 309 814 l 295 879 q 324 925 301 906 q 374 944 347 944 l 407 944 q 449 925 434 944 q 460 894 460 911 q 458 879 460 887 l 490 879 l 498 911 q 522 935 500 925 q 570 944 543 944 l 555 879 q 527 833 550 852 q 477 814 504 814 l 444 814 q 402 833 417 814 q 391 865 391 847 q 393 879 391 872 l 360 879 l 353 846 z "},"õ":{"ha":477,"x_min":68,"x_max":548,"o":"m 201 130 l 332 130 l 414 521 l 284 521 l 201 130 m 71 130 l 154 521 q 212 613 165 574 q 312 651 258 651 l 442 651 q 526 613 496 651 q 548 549 548 585 q 545 521 548 536 l 462 130 q 404 38 450 76 q 304 0 358 0 l 174 0 q 90 38 120 0 q 68 101 68 65 q 71 130 68 115 m 326 716 q 302 693 323 703 q 254 684 281 684 l 268 749 q 297 795 273 776 q 347 814 320 814 l 379 814 q 421 795 406 814 q 432 762 432 781 q 431 749 432 756 l 463 749 l 470 781 q 494 804 473 795 q 542 814 515 814 l 528 749 q 499 703 522 722 q 449 684 476 684 l 416 684 q 374 703 389 684 q 363 734 363 717 q 366 749 363 741 l 333 749 l 326 716 z "},"Ĩ":{"ha":217,"x_min":43,"x_max":439,"o":"m 174 0 l 43 0 l 210 781 l 340 781 l 174 0 m 223 846 q 199 823 220 833 q 151 814 178 814 l 165 879 q 194 925 171 906 q 244 944 217 944 l 277 944 q 319 925 304 944 q 330 894 330 911 q 328 879 330 887 l 360 879 l 368 911 q 391 935 370 925 q 439 944 412 944 l 425 879 q 397 833 420 852 q 347 814 374 814 l 314 814 q 272 833 287 814 q 261 865 261 847 q 262 879 261 872 l 230 879 l 223 846 z "},"ĩ":{"ha":217,"x_min":43,"x_max":412,"o":"m 174 0 l 43 0 l 182 651 l 312 651 l 174 0 m 195 716 q 172 693 193 703 q 123 684 151 684 l 138 749 q 166 795 143 776 q 216 814 190 814 l 249 814 q 291 795 276 814 q 302 762 302 781 q 300 749 302 756 l 333 749 l 340 781 q 363 804 342 795 q 412 814 385 814 l 398 749 q 369 703 392 722 q 319 684 346 684 l 286 684 q 244 703 259 684 q 233 734 233 717 q 235 749 233 741 l 203 749 l 195 716 z "},"Ũ":{"ha":477,"x_min":68,"x_max":600,"o":"m 470 781 l 600 781 l 462 130 q 404 38 450 76 q 304 0 358 0 l 174 0 q 90 38 120 0 q 68 101 68 65 q 71 130 68 115 l 210 781 l 340 781 l 201 130 l 332 130 l 470 781 m 353 846 q 330 823 351 833 q 281 814 309 814 l 295 879 q 324 925 301 906 q 374 944 347 944 l 407 944 q 449 925 434 944 q 460 894 460 911 q 458 879 460 887 l 490 879 l 498 911 q 522 935 500 925 q 570 944 543 944 l 555 879 q 527 833 550 852 q 477 814 504 814 l 444 814 q 402 833 417 814 q 391 865 391 847 q 393 879 391 872 l 360 879 l 353 846 z "},"ũ":{"ha":477,"x_min":68,"x_max":572,"o":"m 326 716 q 302 693 323 703 q 254 684 281 684 l 268 749 q 297 795 273 776 q 347 814 320 814 l 379 814 q 421 795 406 814 q 432 762 432 781 q 431 749 432 756 l 463 749 l 470 781 q 494 804 473 795 q 542 814 515 814 l 528 749 q 499 703 522 722 q 449 684 476 684 l 416 684 q 374 703 389 684 q 363 734 363 717 q 366 749 363 741 l 333 749 l 326 716 m 442 651 l 572 651 l 434 0 l 347 0 l 332 130 l 442 651 m 332 130 q 287 38 320 76 q 217 0 253 0 l 174 0 q 90 38 120 0 q 68 101 68 65 q 71 130 68 115 l 182 651 l 312 651 l 201 130 l 332 130 z "},"Ṽ":{"ha":477,"x_min":172,"x_max":600,"o":"m 353 846 q 330 823 351 833 q 281 814 309 814 l 295 879 q 324 925 301 906 q 374 944 347 944 l 407 944 q 449 925 434 944 q 460 894 460 911 q 458 879 460 887 l 490 879 l 498 911 q 522 935 500 925 q 570 944 543 944 l 555 879 q 527 833 550 852 q 477 814 504 814 l 444 814 q 402 833 417 814 q 391 865 391 847 q 393 879 391 872 l 360 879 l 353 846 m 172 0 l 210 781 l 342 781 l 294 260 l 468 781 l 600 781 l 306 0 l 172 0 z "},"ṽ":{"ha":477,"x_min":172,"x_max":572,"o":"m 326 716 q 302 693 323 703 q 254 684 281 684 l 268 749 q 297 795 273 776 q 347 814 320 814 l 379 814 q 421 795 406 814 q 432 762 432 781 q 431 749 432 756 l 463 749 l 470 781 q 494 804 473 795 q 542 814 515 814 l 528 749 q 499 703 522 722 q 449 684 476 684 l 416 684 q 374 703 389 684 q 363 734 363 717 q 366 749 363 741 l 333 749 l 326 716 m 172 0 l 182 651 l 314 651 l 294 260 l 440 651 l 572 651 l 306 0 l 172 0 z "},"Ẽ":{"ha":477,"x_min":43,"x_max":600,"o":"m 600 781 l 572 651 l 312 651 l 271 456 l 488 456 l 460 326 l 243 326 l 201 130 l 462 130 l 434 0 l 43 0 l 210 781 l 600 781 m 353 846 q 330 823 351 833 q 281 814 309 814 l 295 879 q 324 925 301 906 q 374 944 347 944 l 407 944 q 449 925 434 944 q 460 894 460 911 q 458 879 460 887 l 490 879 l 498 911 q 522 935 500 925 q 570 944 543 944 l 555 879 q 527 833 550 852 q 477 814 504 814 l 444 814 q 402 833 417 814 q 391 865 391 847 q 393 879 391 872 l 360 879 l 353 846 z "},"ẽ":{"ha":477,"x_min":68,"x_max":548,"o":"m 256 391 l 387 391 l 414 521 l 284 521 l 256 391 m 332 130 l 345 195 l 475 195 l 462 130 q 404 38 450 76 q 304 0 358 0 l 174 0 q 90 38 120 0 q 68 101 68 65 q 71 130 68 115 l 154 521 q 212 613 165 574 q 312 651 258 651 l 442 651 q 526 613 496 651 q 548 549 548 585 q 545 521 548 536 l 490 260 l 229 260 l 201 130 l 332 130 m 326 716 q 302 693 323 703 q 254 684 281 684 l 268 749 q 297 795 273 776 q 347 814 320 814 l 379 814 q 421 795 406 814 q 432 762 432 781 q 431 749 432 756 l 463 749 l 470 781 q 494 804 473 795 q 542 814 515 814 l 528 749 q 499 703 522 722 q 449 684 476 684 l 416 684 q 374 703 389 684 q 363 734 363 717 q 366 749 363 741 l 333 749 l 326 716 z "},"Ỹ":{"ha":477,"x_min":174,"x_max":600,"o":"m 353 846 q 330 823 351 833 q 281 814 309 814 l 295 879 q 324 925 301 906 q 374 944 347 944 l 407 944 q 449 925 434 944 q 460 894 460 911 q 458 879 460 887 l 490 879 l 498 911 q 522 935 500 925 q 570 944 543 944 l 555 879 q 527 833 550 852 q 477 814 504 814 l 444 814 q 402 833 417 814 q 391 865 391 847 q 393 879 391 872 l 360 879 l 353 846 m 321 391 l 468 781 l 600 781 l 359 260 l 304 0 l 174 0 l 229 260 l 210 781 l 342 781 l 321 391 z "},"ỹ":{"ha":477,"x_min":16,"x_max":572,"o":"m 326 716 q 302 693 323 703 q 254 684 281 684 l 268 749 q 297 795 273 776 q 347 814 320 814 l 379 814 q 421 795 406 814 q 432 762 432 781 q 431 749 432 756 l 463 749 l 470 781 q 494 804 473 795 q 542 814 515 814 l 528 749 q 499 703 522 722 q 449 684 476 684 l 416 684 q 374 703 389 684 q 363 734 363 717 q 366 749 363 741 l 333 749 l 326 716 m 16 -130 l 87 0 l 172 0 l 182 651 l 314 651 l 294 260 l 440 651 l 572 651 l 306 0 l 304 0 q 246 -92 292 -54 q 146 -130 200 -130 l 16 -130 z "},"Ő":{"ha":477,"x_min":68,"x_max":640,"o":"m 201 130 l 332 130 l 442 651 l 312 651 l 201 130 m 71 130 l 182 651 q 240 743 193 705 q 340 781 286 781 l 470 781 q 554 743 524 781 q 576 680 576 715 q 572 651 576 666 l 462 130 q 404 38 450 76 q 304 0 358 0 l 174 0 q 90 38 120 0 q 68 101 68 65 q 71 130 68 115 m 604 960 l 640 913 l 500 798 l 465 844 l 604 960 m 420 960 l 456 913 l 316 798 l 280 844 l 420 960 z "},"ő":{"ha":477,"x_min":68,"x_max":613,"o":"m 201 130 l 332 130 l 414 521 l 284 521 l 201 130 m 71 130 l 154 521 q 212 613 165 574 q 312 651 258 651 l 442 651 q 526 613 496 651 q 548 549 548 585 q 545 521 548 536 l 462 130 q 404 38 450 76 q 304 0 358 0 l 174 0 q 90 38 120 0 q 68 101 68 65 q 71 130 68 115 m 576 829 l 613 783 l 473 668 l 437 714 l 576 829 m 392 829 l 429 783 l 288 668 l 252 714 l 392 829 z "},"Ű":{"ha":477,"x_min":68,"x_max":640,"o":"m 470 781 l 600 781 l 462 130 q 404 38 450 76 q 304 0 358 0 l 174 0 q 90 38 120 0 q 68 101 68 65 q 71 130 68 115 l 210 781 l 340 781 l 201 130 l 332 130 l 470 781 m 604 960 l 640 913 l 500 798 l 465 844 l 604 960 m 420 960 l 456 913 l 316 798 l 280 844 l 420 960 z "},"ű":{"ha":477,"x_min":68,"x_max":613,"o":"m 392 829 l 429 783 l 288 668 l 252 714 l 392 829 m 442 651 l 572 651 l 434 0 l 347 0 l 332 130 l 442 651 m 332 130 q 287 38 320 76 q 217 0 253 0 l 174 0 q 90 38 120 0 q 68 101 68 65 q 71 130 68 115 l 182 651 l 312 651 l 201 130 l 332 130 m 576 829 l 613 783 l 473 668 l 437 714 l 576 829 z "},"Ç":{"ha":477,"x_min":68,"x_max":576,"o":"m 304 0 l 290 -65 q 261 -111 284 -92 q 211 -130 237 -130 l 146 -130 q 104 -111 119 -130 q 93 -80 93 -98 q 95 -65 93 -73 l 225 -65 l 239 0 l 174 0 q 90 38 120 0 q 68 101 68 65 q 71 130 68 115 l 182 651 q 240 743 193 705 q 340 781 286 781 l 470 781 q 554 743 524 781 q 576 680 576 715 q 572 651 576 666 l 545 521 l 414 521 l 442 651 l 312 651 l 201 130 l 332 130 l 359 260 l 490 260 l 462 130 q 404 38 450 76 q 304 0 358 0 z "},"ç":{"ha":477,"x_min":68,"x_max":548,"o":"m 304 0 l 290 -65 q 261 -111 284 -92 q 211 -130 237 -130 l 146 -130 q 104 -111 119 -130 q 93 -80 93 -98 q 95 -65 93 -73 l 225 -65 l 239 0 l 174 0 q 90 38 120 0 q 68 101 68 65 q 71 130 68 115 l 154 521 q 212 613 165 574 q 312 651 258 651 l 442 651 q 526 613 496 651 q 548 549 548 585 q 545 521 548 536 l 526 434 l 396 434 l 414 521 l 284 521 l 201 130 l 332 130 l 350 217 l 480 217 l 462 130 q 404 38 450 76 q 304 0 358 0 z "},"Ģ":{"ha":477,"x_min":68,"x_max":576,"o":"m 121 -178 l 85 -132 l 168 -63 l 260 -63 l 121 -178 m 572 651 l 554 564 l 424 564 l 442 651 l 312 651 l 201 130 l 332 130 q 287 38 320 76 q 217 0 253 0 l 174 0 q 90 38 120 0 q 68 101 68 65 q 71 130 68 115 l 182 651 q 240 743 193 705 q 340 781 286 781 l 470 781 q 554 743 524 781 q 576 680 576 715 q 572 651 576 666 m 373 326 l 330 326 l 357 456 l 531 456 l 434 0 l 347 0 l 332 130 l 373 326 z "},"ģ":{"ha":477,"x_min":59,"x_max":572,"o":"m 477 829 l 514 783 l 430 714 l 338 714 l 477 829 m 355 651 q 409 613 391 651 q 419 562 419 591 q 414 521 419 543 l 284 521 l 210 174 l 340 174 q 296 82 330 120 q 227 43 262 43 l 183 43 q 99 82 129 43 q 77 146 77 110 q 80 174 77 159 l 154 521 q 212 613 165 575 q 312 651 258 651 l 355 651 m 414 521 l 486 651 l 572 651 l 434 0 q 376 -92 422 -54 q 276 -130 330 -130 l 59 -130 l 174 0 l 304 0 l 414 521 z "},"Ķ":{"ha":477,"x_min":43,"x_max":600,"o":"m 121 -178 l 85 -132 l 168 -63 l 260 -63 l 121 -178 m 229 260 l 174 0 l 43 0 l 210 781 l 340 781 l 256 391 l 460 781 l 600 781 l 345 302 l 434 0 l 281 0 l 229 260 z "},"ķ":{"ha":477,"x_min":43,"x_max":572,"o":"m 121 -178 l 85 -132 l 168 -63 l 260 -63 l 121 -178 m 210 781 l 340 781 l 245 338 l 432 651 l 572 651 l 334 252 l 434 0 l 281 0 l 211 177 l 174 0 l 43 0 l 210 781 z "},"Ļ":{"ha":412,"x_min":43,"x_max":397,"o":"m 210 781 l 340 781 l 201 130 l 397 130 l 369 0 l 43 0 l 210 781 m 121 -178 l 85 -132 l 168 -63 l 260 -63 l 121 -178 z "},"ļ":{"ha":217,"x_min":-16,"x_max":340,"o":"m 210 781 l 340 781 l 174 0 l 130 0 q 77 38 94 0 q 66 89 66 60 q 71 130 66 109 l 210 781 m 20 -178 l -16 -132 l 68 -63 l 160 -63 l 20 -178 z "},"Ņ":{"ha":477,"x_min":43,"x_max":600,"o":"m 121 -178 l 85 -132 l 168 -63 l 260 -63 l 121 -178 m 210 781 l 350 781 l 387 391 l 470 781 l 600 781 l 434 0 l 294 0 l 256 391 l 174 0 l 43 0 l 210 781 z "},"ņ":{"ha":477,"x_min":43,"x_max":548,"o":"m 132 -178 l 96 -132 l 179 -63 l 271 -63 l 132 -178 m 182 651 l 269 651 l 284 521 l 174 0 l 43 0 l 182 651 m 284 521 q 329 613 296 575 q 399 651 363 651 l 442 651 q 526 613 496 651 q 548 550 548 586 q 545 521 548 536 l 434 0 l 304 0 l 414 521 l 284 521 z "},"Ŗ":{"ha":477,"x_min":43,"x_max":576,"o":"m 442 651 l 312 651 l 256 391 l 387 391 l 442 651 m 572 651 l 517 391 q 459 298 505 336 q 389 263 426 271 l 434 0 l 294 0 l 249 260 l 229 260 l 174 0 l 43 0 l 210 781 l 470 781 q 553 743 524 781 q 576 680 576 715 q 572 651 576 666 m 121 -178 l 85 -132 l 168 -63 l 260 -63 l 121 -178 z "},"ŗ":{"ha":477,"x_min":-16,"x_max":548,"o":"m 20 -178 l -16 -132 l 68 -63 l 160 -63 l 20 -178 m 182 651 l 269 651 l 284 521 l 174 0 l 43 0 l 182 651 m 545 521 l 526 434 l 396 434 l 414 521 l 284 521 q 329 613 296 575 q 399 651 363 651 l 442 651 q 526 613 496 651 q 548 550 548 586 q 545 521 548 536 z "},"Ş":{"ha":477,"x_min":68,"x_max":576,"o":"m 304 0 l 290 -65 q 261 -111 284 -92 q 211 -130 237 -130 l 146 -130 q 104 -111 119 -130 q 93 -80 93 -98 q 95 -65 93 -73 l 225 -65 l 239 0 l 174 0 q 90 38 120 0 q 68 101 68 65 q 71 130 68 115 l 72 130 l 100 260 l 230 260 l 202 130 l 332 130 l 349 213 l 154 521 l 182 651 q 240 743 193 705 q 340 781 286 781 l 470 781 q 554 743 524 781 q 576 680 576 716 q 572 651 576 666 l 545 521 l 414 521 l 442 651 l 312 651 l 294 568 l 490 260 l 462 130 q 404 38 450 76 q 304 0 358 0 z "},"ş":{"ha":477,"x_min":68,"x_max":548,"o":"m 304 0 l 290 -65 q 261 -111 284 -92 q 211 -130 237 -130 l 146 -130 q 104 -111 119 -130 q 93 -80 93 -98 q 95 -65 93 -73 l 225 -65 l 239 0 l 174 0 q 90 38 120 0 q 68 101 68 65 q 71 130 68 115 l 72 130 l 90 217 l 220 217 l 202 130 l 332 130 l 335 148 l 140 456 l 154 521 q 212 613 165 575 q 312 651 258 651 l 442 651 q 526 613 496 651 q 548 550 548 586 q 545 521 548 536 l 526 434 l 396 434 l 414 521 l 284 521 l 281 503 l 475 195 l 462 130 q 404 38 450 76 q 304 0 358 0 z "},"Ţ":{"ha":477,"x_min":93,"x_max":600,"o":"m 290 -65 q 261 -111 284 -92 q 211 -130 237 -130 l 146 -130 q 104 -111 119 -130 q 93 -80 93 -98 q 95 -65 93 -73 l 225 -65 l 239 0 l 174 0 l 312 651 l 182 651 l 210 781 l 600 781 l 572 651 l 442 651 l 290 -65 z "},"ţ":{"ha":347,"x_min":93,"x_max":442,"o":"m 290 -65 q 261 -111 284 -92 q 211 -130 237 -130 l 146 -130 q 104 -111 119 -130 q 93 -80 93 -98 q 95 -65 93 -73 l 225 -65 l 239 0 q 155 38 185 0 q 133 101 133 65 q 136 130 133 115 l 219 521 l 154 521 l 182 651 l 247 651 l 275 781 l 405 781 l 377 651 l 442 651 l 414 521 l 349 521 l 267 130 l 332 130 l 290 -65 z "},"Ȩ":{"ha":477,"x_min":43,"x_max":600,"o":"m 304 0 l 290 -65 q 261 -111 284 -92 q 211 -130 237 -130 l 146 -130 q 104 -111 119 -130 q 93 -80 93 -98 q 95 -65 93 -73 l 225 -65 l 239 0 l 43 0 l 210 781 l 600 781 l 572 651 l 312 651 l 271 456 l 488 456 l 460 326 l 243 326 l 201 130 l 462 130 l 434 0 l 304 0 z "},"ȩ":{"ha":477,"x_min":68,"x_max":548,"o":"m 387 391 l 414 521 l 284 521 l 256 391 l 387 391 m 304 0 l 290 -65 q 261 -111 284 -92 q 211 -130 237 -130 l 146 -130 q 104 -111 119 -130 q 93 -80 93 -98 q 95 -65 93 -73 l 225 -65 l 239 0 l 174 0 q 90 38 120 0 q 68 101 68 65 q 71 130 68 115 l 154 521 q 212 613 165 574 q 312 651 258 651 l 442 651 q 526 613 496 651 q 548 549 548 585 q 545 521 548 536 l 490 260 l 229 260 l 201 130 l 332 130 l 345 195 l 475 195 l 462 130 q 404 38 450 76 q 304 0 358 0 z "},"Ḑ":{"ha":477,"x_min":43,"x_max":576,"o":"m 442 651 l 312 651 l 201 130 l 332 130 l 442 651 m 462 130 q 404 38 450 76 q 304 0 357 0 l 43 0 l 210 781 l 470 781 q 553 743 524 781 q 576 680 576 715 q 572 651 576 666 l 462 130 m 121 -178 l 85 -132 l 168 -63 l 260 -63 l 121 -178 z "},"ḑ":{"ha":477,"x_min":68,"x_max":600,"o":"m 121 -178 l 85 -132 l 168 -63 l 260 -63 l 121 -178 m 332 130 q 287 38 320 76 q 217 0 253 0 l 174 0 q 90 38 120 0 q 68 101 68 65 q 71 130 68 115 l 154 521 q 212 613 165 574 q 312 651 258 651 l 355 651 q 409 613 391 651 q 419 562 419 590 q 414 521 419 543 l 284 521 l 201 130 l 332 130 m 470 781 l 600 781 l 434 0 l 347 0 l 332 130 l 470 781 z "},"Ḩ":{"ha":477,"x_min":-16,"x_max":600,"o":"m 160 -65 q 131 -111 154 -92 q 81 -130 107 -130 l 37 -130 q -5 -111 10 -130 q -16 -80 -16 -98 q -14 -65 -16 -73 l 95 -65 l 109 0 l 43 0 l 210 781 l 340 781 l 271 456 l 401 456 l 470 781 l 600 781 l 434 0 l 304 0 l 373 326 l 243 326 l 160 -65 z "},"ḩ":{"ha":477,"x_min":-16,"x_max":548,"o":"m 287 532 q 330 613 299 579 q 399 651 363 651 l 442 651 q 526 613 496 651 q 548 550 548 586 q 545 521 548 536 l 434 0 l 304 0 l 414 521 l 284 521 l 160 -65 q 131 -111 154 -92 q 81 -130 107 -130 l 37 -130 q -5 -111 10 -130 q -16 -80 -16 -98 q -14 -65 -16 -73 l 95 -65 l 109 0 l 43 0 l 210 781 l 340 781 l 287 532 z "},"Ą":{"ha":477,"x_min":43,"x_max":515,"o":"m 331 260 l 377 651 l 258 260 l 331 260 m 311 64 l 317 130 l 216 130 l 174 0 l 43 0 l 295 781 l 515 781 l 434 0 l 304 0 l 290 -65 l 355 -65 l 359 -43 l 425 -43 l 420 -65 q 391 -111 414 -92 q 341 -130 368 -130 l 276 -130 q 235 -111 250 -130 q 223 -80 223 -98 q 225 -65 223 -73 l 239 0 q 268 46 245 27 q 311 64 288 62 z "},"ą":{"ha":477,"x_min":68,"x_max":548,"o":"m 332 130 l 373 326 l 243 326 l 201 130 l 332 130 m 332 130 l 290 -65 l 355 -65 l 359 -43 l 425 -43 l 420 -65 q 391 -111 414 -92 q 341 -130 368 -130 l 276 -130 q 235 -111 250 -130 q 223 -80 223 -98 q 225 -65 223 -73 l 239 4 q 217 0 229 0 l 174 0 q 90 38 120 0 q 68 101 68 65 q 71 130 68 115 l 113 326 q 158 418 124 380 q 227 456 191 456 l 271 456 q 355 418 325 456 q 376 355 376 391 q 374 330 376 342 l 414 521 l 197 521 q 255 613 209 575 q 355 651 301 651 l 442 651 q 526 613 496 651 q 548 549 548 585 q 545 521 548 536 l 434 0 l 347 0 l 332 130 z "},"Ę":{"ha":477,"x_min":43,"x_max":600,"o":"m 304 0 l 290 -65 l 355 -65 l 359 -43 l 425 -43 l 420 -65 q 391 -111 414 -92 q 341 -130 368 -130 l 276 -130 q 235 -111 250 -130 q 223 -80 223 -98 q 225 -65 223 -73 l 239 0 l 43 0 l 210 781 l 600 781 l 572 651 l 312 651 l 271 456 l 488 456 l 460 326 l 243 326 l 201 130 l 462 130 l 434 0 l 304 0 z "},"ę":{"ha":477,"x_min":68,"x_max":548,"o":"m 387 391 l 414 521 l 284 521 l 256 391 l 387 391 m 304 0 l 290 -65 l 355 -65 l 359 -43 l 425 -43 l 420 -65 q 391 -111 414 -92 q 341 -130 368 -130 l 276 -130 q 235 -111 250 -130 q 223 -80 223 -98 q 225 -65 223 -73 l 239 0 l 174 0 q 90 38 120 0 q 68 101 68 65 q 71 130 68 115 l 154 521 q 212 613 165 574 q 312 651 258 651 l 442 651 q 526 613 496 651 q 548 549 548 585 q 545 521 548 536 l 490 260 l 229 260 l 201 130 l 332 130 l 345 195 l 475 195 l 462 130 q 404 38 450 76 q 326 1 368 8 l 326 0 l 304 0 z "},"Į":{"ha":217,"x_min":-37,"x_max":340,"o":"m 43 0 l 30 -65 l 95 -65 l 99 -43 l 164 -43 l 160 -65 q 131 -111 154 -92 q 81 -130 108 -130 l 16 -130 q -26 -111 -11 -130 q -37 -80 -37 -98 q -35 -65 -37 -73 l -22 0 q 7 46 -16 27 q 57 65 31 65 l 210 781 l 340 781 l 174 0 l 43 0 z "},"į":{"ha":217,"x_min":-37,"x_max":340,"o":"m 326 716 l 195 716 l 210 781 l 340 781 l 326 716 m 43 0 l 30 -65 l 95 -65 l 99 -43 l 164 -43 l 160 -65 q 131 -111 154 -92 q 81 -130 108 -130 l 16 -130 q -26 -111 -11 -130 q -37 -80 -37 -98 q -35 -65 -37 -73 l -22 0 q 7 46 -16 27 q 57 65 31 65 l 182 651 l 312 651 l 174 0 l 43 0 z "},"Ų":{"ha":477,"x_min":68,"x_max":600,"o":"m 239 0 l 225 -65 l 290 -65 l 294 -43 l 359 -43 l 355 -65 q 326 -111 349 -92 q 276 -130 303 -130 l 211 -130 q 170 -111 184 -130 q 158 -80 158 -98 q 160 -65 158 -73 l 174 0 q 90 38 120 0 q 68 101 68 65 q 71 130 68 115 l 210 781 l 340 781 l 201 130 l 332 130 l 470 781 l 600 781 l 462 130 q 404 38 450 76 q 304 0 358 0 l 239 0 z "},"ų":{"ha":477,"x_min":68,"x_max":572,"o":"m 434 0 l 347 0 l 332 130 l 442 651 l 572 651 l 434 0 m 332 130 l 290 -65 l 355 -65 l 359 -43 l 425 -43 l 420 -65 q 391 -111 414 -92 q 341 -130 368 -130 l 276 -130 q 235 -111 250 -130 q 223 -80 223 -98 q 225 -65 223 -73 l 239 4 q 217 0 229 0 l 174 0 q 90 38 120 0 q 68 101 68 65 q 71 130 68 115 l 182 651 l 312 651 l 201 130 l 332 130 z "},"Ǫ":{"ha":477,"x_min":68,"x_max":576,"o":"m 332 130 l 442 651 l 312 651 l 201 130 l 332 130 m 239 0 l 225 -65 l 290 -65 l 294 -43 l 359 -43 l 355 -65 q 326 -111 349 -92 q 276 -130 303 -130 l 211 -130 q 170 -111 184 -130 q 158 -80 158 -98 q 160 -65 158 -73 l 174 0 q 90 38 120 0 q 68 101 68 65 q 71 130 68 115 l 182 651 q 240 743 193 705 q 340 781 286 781 l 470 781 q 554 743 524 781 q 576 680 576 715 q 572 651 576 666 l 462 130 q 404 38 450 76 q 304 0 358 0 l 239 0 z "},"ǫ":{"ha":477,"x_min":68,"x_max":548,"o":"m 332 130 l 414 521 l 284 521 l 201 130 l 332 130 m 239 0 l 225 -65 l 290 -65 l 294 -43 l 359 -43 l 355 -65 q 326 -111 349 -92 q 276 -130 303 -130 l 211 -130 q 170 -111 184 -130 q 158 -80 158 -98 q 160 -65 158 -73 l 174 0 q 90 38 120 0 q 68 101 68 65 q 71 130 68 115 l 154 521 q 212 613 165 574 q 312 651 258 651 l 442 651 q 526 613 496 651 q 548 549 548 585 q 545 521 548 536 l 462 130 q 404 38 450 76 q 304 0 358 0 l 239 0 z "},"À":{"ha":477,"x_min":43,"x_max":515,"o":"m 408 798 l 317 913 l 374 960 l 465 844 l 408 798 m 331 260 l 377 651 l 258 260 l 331 260 m 434 0 l 304 0 l 317 130 l 216 130 l 174 0 l 43 0 l 295 781 l 515 781 l 434 0 z "},"à":{"ha":477,"x_min":68,"x_max":548,"o":"m 437 714 l 380 668 l 290 783 l 346 829 l 437 714 m 332 130 l 373 326 l 243 326 l 201 130 l 332 130 m 332 130 q 287 38 320 76 q 217 0 253 0 l 174 0 q 90 38 120 0 q 68 101 68 65 q 71 130 68 115 l 113 326 q 158 418 124 380 q 227 456 191 456 l 271 456 q 355 418 325 456 q 376 355 376 391 q 374 330 376 342 l 414 521 l 197 521 q 255 613 209 575 q 355 651 301 651 l 442 651 q 526 613 496 651 q 548 549 548 585 q 545 521 548 536 l 434 0 l 347 0 l 332 130 z "},"È":{"ha":477,"x_min":43,"x_max":600,"o":"m 600 781 l 572 651 l 312 651 l 271 456 l 488 456 l 460 326 l 243 326 l 201 130 l 462 130 l 434 0 l 43 0 l 210 781 l 600 781 m 465 844 l 408 798 l 317 913 l 374 960 l 465 844 z "},"è":{"ha":477,"x_min":68,"x_max":548,"o":"m 256 391 l 387 391 l 414 521 l 284 521 l 256 391 m 332 130 l 345 195 l 475 195 l 462 130 q 404 38 450 76 q 304 0 358 0 l 174 0 q 90 38 120 0 q 68 101 68 65 q 71 130 68 115 l 154 521 q 212 613 165 574 q 312 651 258 651 l 442 651 q 526 613 496 651 q 548 549 548 585 q 545 521 548 536 l 490 260 l 229 260 l 201 130 l 332 130 m 437 714 l 380 668 l 290 783 l 346 829 l 437 714 z "},"Ì":{"ha":217,"x_min":43,"x_max":340,"o":"m 174 0 l 43 0 l 210 781 l 340 781 l 174 0 m 334 844 l 278 798 l 187 913 l 243 960 l 334 844 z "},"ì":{"ha":217,"x_min":43,"x_max":312,"o":"m 174 0 l 43 0 l 182 651 l 312 651 l 174 0 m 307 714 l 250 668 l 160 783 l 216 829 l 307 714 z "},"Ò":{"ha":477,"x_min":68,"x_max":576,"o":"m 201 130 l 332 130 l 442 651 l 312 651 l 201 130 m 71 130 l 182 651 q 240 743 193 705 q 340 781 286 781 l 470 781 q 554 743 524 781 q 576 680 576 715 q 572 651 576 666 l 462 130 q 404 38 450 76 q 304 0 358 0 l 174 0 q 90 38 120 0 q 68 101 68 65 q 71 130 68 115 m 465 844 l 408 798 l 317 913 l 374 960 l 465 844 z "},"ò":{"ha":477,"x_min":68,"x_max":548,"o":"m 201 130 l 332 130 l 414 521 l 284 521 l 201 130 m 71 130 l 154 521 q 212 613 165 574 q 312 651 258 651 l 442 651 q 526 613 496 651 q 548 549 548 585 q 545 521 548 536 l 462 130 q 404 38 450 76 q 304 0 358 0 l 174 0 q 90 38 120 0 q 68 101 68 65 q 71 130 68 115 m 437 714 l 380 668 l 290 783 l 346 829 l 437 714 z "},"Ù":{"ha":477,"x_min":68,"x_max":600,"o":"m 470 781 l 600 781 l 462 130 q 404 38 450 76 q 304 0 358 0 l 174 0 q 90 38 120 0 q 68 101 68 65 q 71 130 68 115 l 210 781 l 340 781 l 201 130 l 332 130 l 470 781 m 465 844 l 408 798 l 317 913 l 374 960 l 465 844 z "},"ù":{"ha":477,"x_min":68,"x_max":572,"o":"m 437 714 l 380 668 l 290 783 l 346 829 l 437 714 m 442 651 l 572 651 l 434 0 l 347 0 l 332 130 l 442 651 m 332 130 q 287 38 320 76 q 217 0 253 0 l 174 0 q 90 38 120 0 q 68 101 68 65 q 71 130 68 115 l 182 651 l 312 651 l 201 130 l 332 130 z "},"Ǹ":{"ha":477,"x_min":43,"x_max":600,"o":"m 465 844 l 408 798 l 317 913 l 374 960 l 465 844 m 210 781 l 350 781 l 387 391 l 470 781 l 600 781 l 434 0 l 294 0 l 256 391 l 174 0 l 43 0 l 210 781 z "},"ǹ":{"ha":477,"x_min":43,"x_max":548,"o":"m 437 714 l 380 668 l 290 783 l 346 829 l 437 714 m 182 651 l 269 651 l 284 521 l 174 0 l 43 0 l 182 651 m 284 521 q 329 613 296 575 q 399 651 363 651 l 442 651 q 526 613 496 651 q 548 550 548 586 q 545 521 548 536 l 434 0 l 304 0 l 414 521 l 284 521 z "},"Ẁ":{"ha":738,"x_min":172,"x_max":861,"o":"m 595 844 l 538 798 l 448 913 l 504 960 l 595 844 m 566 0 l 432 0 l 452 391 l 306 0 l 172 0 l 210 781 l 342 781 l 294 260 l 468 781 l 602 781 l 555 260 l 728 781 l 861 781 l 566 0 z "},"ẁ":{"ha":738,"x_min":172,"x_max":833,"o":"m 567 714 l 511 668 l 420 783 l 476 829 l 567 714 m 172 0 l 182 651 l 314 651 l 294 260 l 440 651 l 574 651 l 555 260 l 701 651 l 833 651 l 566 0 l 432 0 l 452 391 l 306 0 l 172 0 z "},"Ỳ":{"ha":477,"x_min":174,"x_max":600,"o":"m 465 844 l 408 798 l 317 913 l 374 960 l 465 844 m 321 391 l 468 781 l 600 781 l 359 260 l 304 0 l 174 0 l 229 260 l 210 781 l 342 781 l 321 391 z "},"ỳ":{"ha":477,"x_min":16,"x_max":572,"o":"m 437 714 l 380 668 l 290 783 l 346 829 l 437 714 m 16 -130 l 87 0 l 172 0 l 182 651 l 314 651 l 294 260 l 440 651 l 572 651 l 306 0 l 304 0 q 246 -92 292 -54 q 146 -130 200 -130 l 16 -130 z "},"Á":{"ha":477,"x_min":43,"x_max":548,"o":"m 512 960 l 548 913 l 408 798 l 372 844 l 512 960 m 331 260 l 377 651 l 258 260 l 331 260 m 434 0 l 304 0 l 317 130 l 216 130 l 174 0 l 43 0 l 295 781 l 515 781 l 434 0 z "},"á":{"ha":477,"x_min":68,"x_max":548,"o":"m 484 829 l 521 783 l 380 668 l 345 714 l 484 829 m 332 130 l 373 326 l 243 326 l 201 130 l 332 130 m 332 130 q 287 38 320 76 q 217 0 253 0 l 174 0 q 90 38 120 0 q 68 101 68 65 q 71 130 68 115 l 113 326 q 158 418 124 380 q 227 456 191 456 l 271 456 q 355 418 325 456 q 376 355 376 391 q 374 330 376 342 l 414 521 l 197 521 q 255 613 209 575 q 355 651 301 651 l 442 651 q 526 613 496 651 q 548 549 548 585 q 545 521 548 536 l 434 0 l 347 0 l 332 130 z "},"É":{"ha":477,"x_min":43,"x_max":600,"o":"m 600 781 l 572 651 l 312 651 l 271 456 l 488 456 l 460 326 l 243 326 l 201 130 l 462 130 l 434 0 l 43 0 l 210 781 l 600 781 m 512 960 l 548 913 l 408 798 l 372 844 l 512 960 z "},"é":{"ha":477,"x_min":68,"x_max":548,"o":"m 256 391 l 387 391 l 414 521 l 284 521 l 256 391 m 332 130 l 345 195 l 475 195 l 462 130 q 404 38 450 76 q 304 0 358 0 l 174 0 q 90 38 120 0 q 68 101 68 65 q 71 130 68 115 l 154 521 q 212 613 165 574 q 312 651 258 651 l 442 651 q 526 613 496 651 q 548 549 548 585 q 545 521 548 536 l 490 260 l 229 260 l 201 130 l 332 130 m 484 829 l 521 783 l 380 668 l 345 714 l 484 829 z "},"Í":{"ha":217,"x_min":43,"x_max":418,"o":"m 174 0 l 43 0 l 210 781 l 340 781 l 174 0 m 382 960 l 418 913 l 278 798 l 242 844 l 382 960 z "},"í":{"ha":217,"x_min":43,"x_max":391,"o":"m 174 0 l 43 0 l 182 651 l 312 651 l 174 0 m 354 829 l 391 783 l 250 668 l 214 714 l 354 829 z "},"Ó":{"ha":477,"x_min":68,"x_max":576,"o":"m 201 130 l 332 130 l 442 651 l 312 651 l 201 130 m 71 130 l 182 651 q 240 743 193 705 q 340 781 286 781 l 470 781 q 554 743 524 781 q 576 680 576 715 q 572 651 576 666 l 462 130 q 404 38 450 76 q 304 0 358 0 l 174 0 q 90 38 120 0 q 68 101 68 65 q 71 130 68 115 m 512 960 l 548 913 l 408 798 l 372 844 l 512 960 z "},"ó":{"ha":477,"x_min":68,"x_max":548,"o":"m 201 130 l 332 130 l 414 521 l 284 521 l 201 130 m 71 130 l 154 521 q 212 613 165 574 q 312 651 258 651 l 442 651 q 526 613 496 651 q 548 549 548 585 q 545 521 548 536 l 462 130 q 404 38 450 76 q 304 0 358 0 l 174 0 q 90 38 120 0 q 68 101 68 65 q 71 130 68 115 m 484 829 l 521 783 l 380 668 l 345 714 l 484 829 z "},"Ú":{"ha":477,"x_min":68,"x_max":600,"o":"m 470 781 l 600 781 l 462 130 q 404 38 450 76 q 304 0 358 0 l 174 0 q 90 38 120 0 q 68 101 68 65 q 71 130 68 115 l 210 781 l 340 781 l 201 130 l 332 130 l 470 781 m 512 960 l 548 913 l 408 798 l 372 844 l 512 960 z "},"ú":{"ha":477,"x_min":68,"x_max":572,"o":"m 484 829 l 521 783 l 380 668 l 345 714 l 484 829 m 442 651 l 572 651 l 434 0 l 347 0 l 332 130 l 442 651 m 332 130 q 287 38 320 76 q 217 0 253 0 l 174 0 q 90 38 120 0 q 68 101 68 65 q 71 130 68 115 l 182 651 l 312 651 l 201 130 l 332 130 z "},"Ý":{"ha":477,"x_min":174,"x_max":600,"o":"m 512 960 l 548 913 l 408 798 l 372 844 l 512 960 m 321 391 l 468 781 l 600 781 l 359 260 l 304 0 l 174 0 l 229 260 l 210 781 l 342 781 l 321 391 z "},"ý":{"ha":477,"x_min":16,"x_max":572,"o":"m 484 829 l 521 783 l 380 668 l 345 714 l 484 829 m 16 -130 l 87 0 l 172 0 l 182 651 l 314 651 l 294 260 l 440 651 l 572 651 l 306 0 l 304 0 q 246 -92 292 -54 q 146 -130 200 -130 l 16 -130 z "},"Ć":{"ha":477,"x_min":68,"x_max":576,"o":"m 332 130 l 359 260 l 490 260 l 462 130 q 404 38 450 76 q 304 0 358 0 l 174 0 q 90 38 120 0 q 68 101 68 65 q 71 130 68 115 l 182 651 q 240 743 193 705 q 340 781 286 781 l 470 781 q 554 743 524 781 q 576 680 576 715 q 572 651 576 666 l 545 521 l 414 521 l 442 651 l 312 651 l 201 130 l 332 130 m 512 960 l 548 913 l 408 798 l 372 844 l 512 960 z "},"ć":{"ha":477,"x_min":68,"x_max":548,"o":"m 332 130 l 350 217 l 480 217 l 462 130 q 404 38 450 76 q 304 0 358 0 l 174 0 q 90 38 120 0 q 68 101 68 65 q 71 130 68 115 l 154 521 q 212 613 165 574 q 312 651 258 651 l 442 651 q 526 613 496 651 q 548 549 548 585 q 545 521 548 536 l 526 434 l 396 434 l 414 521 l 284 521 l 201 130 l 332 130 m 484 829 l 521 783 l 380 668 l 345 714 l 484 829 z "},"Ĺ":{"ha":412,"x_min":43,"x_max":418,"o":"m 210 781 l 340 781 l 201 130 l 397 130 l 369 0 l 43 0 l 210 781 m 382 960 l 418 913 l 278 798 l 242 844 l 382 960 z "},"ĺ":{"ha":217,"x_min":66,"x_max":418,"o":"m 210 781 l 340 781 l 174 0 l 130 0 q 77 38 94 0 q 66 89 66 60 q 71 130 66 109 l 210 781 m 382 960 l 418 913 l 278 798 l 242 844 l 382 960 z "},"Ń":{"ha":477,"x_min":43,"x_max":600,"o":"m 512 960 l 548 913 l 408 798 l 372 844 l 512 960 m 210 781 l 350 781 l 387 391 l 470 781 l 600 781 l 434 0 l 294 0 l 256 391 l 174 0 l 43 0 l 210 781 z "},"ń":{"ha":477,"x_min":43,"x_max":548,"o":"m 484 829 l 521 783 l 380 668 l 345 714 l 484 829 m 182 651 l 269 651 l 284 521 l 174 0 l 43 0 l 182 651 m 284 521 q 329 613 296 575 q 399 651 363 651 l 442 651 q 526 613 496 651 q 548 550 548 586 q 545 521 548 536 l 434 0 l 304 0 l 414 521 l 284 521 z "},"Ŕ":{"ha":477,"x_min":43,"x_max":576,"o":"m 442 651 l 312 651 l 256 391 l 387 391 l 442 651 m 572 651 l 517 391 q 459 298 505 336 q 389 263 426 271 l 434 0 l 294 0 l 249 260 l 229 260 l 174 0 l 43 0 l 210 781 l 470 781 q 553 743 524 781 q 576 680 576 715 q 572 651 576 666 m 512 960 l 548 913 l 408 798 l 372 844 l 512 960 z "},"ŕ":{"ha":477,"x_min":43,"x_max":548,"o":"m 484 829 l 521 783 l 380 668 l 345 714 l 484 829 m 182 651 l 269 651 l 284 521 l 174 0 l 43 0 l 182 651 m 545 521 l 526 434 l 396 434 l 414 521 l 284 521 q 329 613 296 575 q 399 651 363 651 l 442 651 q 526 613 496 651 q 548 550 548 586 q 545 521 548 536 z "},"Ś":{"ha":477,"x_min":68,"x_max":576,"o":"m 174 0 q 90 38 120 0 q 68 101 68 65 q 71 130 68 115 l 72 130 l 100 260 l 230 260 l 202 130 l 332 130 l 349 213 l 154 521 l 182 651 q 240 743 193 705 q 340 781 286 781 l 470 781 q 554 743 524 781 q 576 680 576 716 q 572 651 576 666 l 545 521 l 414 521 l 442 651 l 312 651 l 294 568 l 490 260 l 462 130 q 404 38 450 76 q 304 0 358 0 l 174 0 m 512 960 l 548 913 l 408 798 l 372 844 l 512 960 z "},"ś":{"ha":477,"x_min":68,"x_max":548,"o":"m 174 0 q 90 38 120 0 q 68 101 68 65 q 71 130 68 115 l 72 130 l 90 217 l 220 217 l 202 130 l 332 130 l 335 148 l 140 456 l 154 521 q 212 613 165 575 q 312 651 258 651 l 442 651 q 526 613 496 651 q 548 550 548 586 q 545 521 548 536 l 526 434 l 396 434 l 414 521 l 284 521 l 281 503 l 475 195 l 462 130 q 404 38 450 76 q 304 0 358 0 l 174 0 m 484 829 l 521 783 l 380 668 l 345 714 l 484 829 z "},"Ź":{"ha":477,"x_min":43,"x_max":600,"o":"m 43 0 l 71 130 l 420 651 l 182 651 l 210 781 l 600 781 l 572 651 l 224 130 l 462 130 l 434 0 l 43 0 m 512 960 l 548 913 l 408 798 l 372 844 l 512 960 z "},"ź":{"ha":477,"x_min":43,"x_max":572,"o":"m 43 0 l 71 130 l 392 521 l 154 521 l 182 651 l 572 651 l 545 521 l 224 130 l 462 130 l 434 0 l 43 0 m 484 829 l 521 783 l 380 668 l 345 714 l 484 829 z "},"Ǵ":{"ha":477,"x_min":68,"x_max":576,"o":"m 512 960 l 548 913 l 408 798 l 372 844 l 512 960 m 572 651 l 554 564 l 424 564 l 442 651 l 312 651 l 201 130 l 332 130 q 287 38 320 76 q 217 0 253 0 l 174 0 q 90 38 120 0 q 68 101 68 65 q 71 130 68 115 l 182 651 q 240 743 193 705 q 340 781 286 781 l 470 781 q 554 743 524 781 q 576 680 576 715 q 572 651 576 666 m 373 326 l 330 326 l 357 456 l 531 456 l 434 0 l 347 0 l 332 130 l 373 326 z "},"ǵ":{"ha":477,"x_min":59,"x_max":572,"o":"m 355 651 q 409 613 391 651 q 419 562 419 591 q 414 521 419 543 l 284 521 l 210 174 l 340 174 q 296 82 330 120 q 227 43 262 43 l 183 43 q 99 82 129 43 q 77 146 77 110 q 80 174 77 159 l 154 521 q 212 613 165 575 q 312 651 258 651 l 355 651 m 414 521 l 486 651 l 572 651 l 434 0 q 376 -92 422 -54 q 276 -130 330 -130 l 59 -130 l 174 0 l 304 0 l 414 521 m 484 829 l 521 783 l 380 668 l 345 714 l 484 829 z "},"Ǽ":{"ha":738,"x_min":43,"x_max":861,"o":"m 531 456 l 748 456 l 720 326 l 503 326 l 462 130 l 722 130 l 694 0 l 304 0 l 332 130 l 216 130 l 174 0 l 43 0 l 295 781 l 861 781 l 833 651 l 572 651 l 531 456 m 442 651 l 383 651 l 258 260 l 359 260 l 442 651 m 642 960 l 678 914 l 538 799 l 503 845 l 642 960 z "},"ǽ":{"ha":738,"x_min":68,"x_max":808,"o":"m 545 521 l 517 391 l 647 391 l 675 521 l 545 521 m 614 830 l 651 784 l 511 669 l 475 715 l 614 830 m 332 130 l 373 326 l 243 326 l 201 130 l 332 130 m 332 130 q 287 38 320 76 q 217 0 253 0 l 174 0 q 90 38 120 0 q 68 101 68 65 q 71 130 68 115 l 113 326 q 158 418 124 380 q 227 456 191 456 l 271 456 q 355 418 325 456 q 376 355 376 391 q 374 330 376 342 l 414 521 l 197 521 q 255 613 209 575 q 355 651 301 651 l 442 651 q 504 634 479 651 q 572 651 536 651 l 703 651 q 787 613 757 651 q 808 549 808 585 q 805 521 808 536 l 750 260 l 490 260 l 462 130 l 592 130 l 606 195 l 736 195 l 722 130 q 665 38 711 76 q 564 0 618 0 l 347 0 l 332 130 z "},"Ḱ":{"ha":477,"x_min":43,"x_max":600,"o":"m 512 960 l 548 913 l 408 798 l 372 844 l 512 960 m 229 260 l 174 0 l 43 0 l 210 781 l 340 781 l 256 391 l 460 781 l 600 781 l 345 302 l 434 0 l 281 0 l 229 260 z "},"ḱ":{"ha":477,"x_min":43,"x_max":572,"o":"m 382 960 l 418 913 l 278 798 l 242 844 l 382 960 m 210 781 l 340 781 l 245 338 l 432 651 l 572 651 l 334 252 l 434 0 l 281 0 l 211 177 l 174 0 l 43 0 l 210 781 z "},"Ḿ":{"ha":738,"x_min":43,"x_max":861,"o":"m 642 960 l 678 913 l 538 798 l 503 844 l 642 960 m 256 391 l 174 0 l 43 0 l 210 781 l 350 781 l 410 195 l 720 781 l 861 781 l 694 0 l 564 0 l 647 391 l 444 0 l 294 0 l 256 391 z "},"ḿ":{"ha":608,"x_min":43,"x_max":678,"o":"m 549 829 l 586 783 l 446 668 l 410 714 l 549 829 m 479 521 l 369 0 l 239 0 l 349 521 l 284 521 q 323 613 296 575 q 377 651 350 651 q 461 613 431 651 q 483 550 483 586 q 480 524 483 537 q 518 613 492 576 q 572 651 545 651 q 656 613 627 651 q 678 550 678 586 q 675 521 678 536 l 564 0 l 434 0 l 545 521 l 479 521 m 182 651 l 269 651 l 284 521 l 174 0 l 43 0 l 182 651 z "},"Ṕ":{"ha":477,"x_min":43,"x_max":576,"o":"m 442 651 l 312 651 l 256 391 l 387 391 l 442 651 m 572 651 l 517 391 q 459 298 505 336 q 359 260 413 260 l 229 260 l 174 0 l 43 0 l 210 781 l 470 781 q 553 743 524 781 q 576 680 576 715 q 572 651 576 666 m 512 960 l 548 913 l 408 798 l 372 844 l 512 960 z "},"ṕ":{"ha":477,"x_min":16,"x_max":548,"o":"m 484 829 l 521 783 l 380 668 l 345 714 l 484 829 m 284 521 q 329 613 296 575 q 399 651 363 651 l 442 651 q 526 613 496 651 q 548 550 548 586 q 545 521 548 536 l 462 130 q 404 38 450 76 q 304 0 357 0 l 260 0 q 207 38 224 0 q 197 89 197 60 q 201 130 197 109 l 332 130 l 414 521 l 284 521 m 146 -130 l 16 -130 l 182 651 l 269 651 l 284 521 l 146 -130 z "},"Ẃ":{"ha":738,"x_min":172,"x_max":861,"o":"m 642 960 l 678 913 l 538 798 l 503 844 l 642 960 m 566 0 l 432 0 l 452 391 l 306 0 l 172 0 l 210 781 l 342 781 l 294 260 l 468 781 l 602 781 l 555 260 l 728 781 l 861 781 l 566 0 z "},"ẃ":{"ha":738,"x_min":172,"x_max":833,"o":"m 614 829 l 651 783 l 511 668 l 475 714 l 614 829 m 172 0 l 182 651 l 314 651 l 294 260 l 440 651 l 574 651 l 555 260 l 701 651 l 833 651 l 566 0 l 432 0 l 452 391 l 306 0 l 172 0 z "},"Ø":{"ha":477,"x_min":0,"x_max":644,"o":"m 222 231 l 201 130 l 332 130 l 390 404 l 222 231 m 254 377 l 421 551 l 442 651 l 312 651 l 254 377 m 71 74 l 0 0 l 31 146 l 87 204 l 182 651 q 240 743 193 705 q 340 781 286 781 l 470 781 q 554 743 524 781 q 572 707 567 726 l 644 781 l 612 635 l 557 577 l 462 130 q 404 38 450 76 q 304 0 358 0 l 174 0 q 90 38 120 0 q 71 74 77 54 z "},"ø":{"ha":477,"x_min":0,"x_max":616,"o":"m 214 189 l 201 130 l 332 130 l 374 332 l 214 189 m 241 319 l 402 462 l 414 521 l 284 521 l 241 319 m 74 66 l 0 0 l 28 130 l 81 178 l 154 521 q 212 613 165 574 q 312 651 258 651 l 442 651 q 526 613 496 651 q 542 585 536 600 l 616 651 l 588 521 l 534 473 l 462 130 q 404 38 450 76 q 304 0 358 0 l 174 0 q 90 38 120 0 q 74 66 79 51 z "},"Ł":{"ha":412,"x_min":18,"x_max":397,"o":"m 98 255 l 18 184 l 45 314 l 125 385 l 210 781 l 340 781 l 286 527 l 366 597 l 338 467 l 258 397 l 201 130 l 397 130 l 369 0 l 43 0 l 98 255 z "},"ł":{"ha":217,"x_min":18,"x_max":366,"o":"m 98 255 l 18 184 l 45 314 l 125 385 l 210 781 l 340 781 l 286 527 l 366 597 l 338 467 l 258 397 l 174 0 l 130 0 q 77 38 94 0 q 66 89 66 60 q 71 130 66 109 l 98 255 z "},"Ɖ":{"ha":477,"x_min":43,"x_max":576,"o":"m 266 434 l 331 434 l 313 347 l 248 347 l 201 130 l 332 130 l 442 651 l 312 651 l 266 434 m 117 347 l 74 347 l 92 434 l 136 434 l 210 781 l 470 781 q 553 743 524 781 q 576 680 576 715 q 572 651 576 666 l 462 130 q 404 38 450 76 q 304 0 357 0 l 43 0 l 117 347 z "},"ɖ":{"ha":477,"x_min":68,"x_max":600,"o":"m 332 130 l 470 781 l 600 781 l 434 0 l 477 0 l 450 -130 l 406 -130 q 322 -92 352 -130 q 300 -28 300 -64 q 304 0 300 -15 l 330 123 q 287 38 318 73 q 217 0 253 0 l 174 0 q 90 38 120 0 q 68 101 68 65 q 71 130 68 115 l 154 521 q 212 613 165 574 q 312 651 258 651 l 355 651 q 409 613 391 651 q 419 562 419 590 q 414 521 419 543 l 284 521 l 201 130 l 332 130 z "},"ĸ":{"ha":477,"x_min":43,"x_max":572,"o":"m 182 651 l 312 651 l 245 338 l 432 651 l 572 651 l 340 260 l 334 252 l 434 0 l 281 0 l 212 177 l 174 0 l 43 0 l 182 651 z "},"ſ":{"ha":347,"x_min":25,"x_max":470,"o":"m 182 651 q 239 743 193 705 q 340 781 286 781 l 470 781 l 399 651 l 312 651 l 146 -130 l 25 -87 l 182 651 z "},"ẛ":{"ha":347,"x_min":25,"x_max":470,"o":"m 440 846 l 353 846 l 368 911 l 454 911 l 440 846 m 146 -130 l 25 -87 l 182 651 q 239 743 193 705 q 340 781 286 781 l 470 781 l 399 651 l 312 651 l 146 -130 z "},"ẜ":{"ha":347,"x_min":18,"x_max":470,"o":"m 98 255 l 18 184 l 45 314 l 125 385 l 182 651 q 239 743 193 705 q 340 781 286 781 l 470 781 l 399 651 l 312 651 l 286 527 l 366 597 l 338 467 l 258 397 l 146 -130 l 25 -87 l 98 255 z "},"ẝ":{"ha":347,"x_min":25,"x_max":470,"o":"m 298 586 l 385 586 l 371 521 l 284 521 l 146 -130 l 25 -87 l 154 521 l 111 521 l 125 586 l 168 586 l 182 651 q 239 743 193 705 q 340 781 286 781 l 470 781 l 399 651 l 312 651 l 298 586 z "},"А":{"ha":477,"x_min":43,"x_max":515,"o":"m 331 260 l 377 651 l 258 260 l 331 260 m 434 0 l 304 0 l 317 130 l 216 130 l 174 0 l 43 0 l 295 781 l 515 781 l 434 0 z "},"а":{"ha":477,"x_min":68,"x_max":548,"o":"m 332 130 l 373 326 l 243 326 l 201 130 l 332 130 m 332 130 q 287 38 320 76 q 217 0 253 0 l 174 0 q 90 38 120 0 q 68 101 68 65 q 71 130 68 115 l 113 326 q 158 418 124 380 q 227 456 191 456 l 271 456 q 355 418 325 456 q 376 355 376 391 q 374 330 376 342 l 414 521 l 197 521 q 255 613 209 575 q 355 651 301 651 l 442 651 q 526 613 496 651 q 548 549 548 585 q 545 521 548 536 l 434 0 l 347 0 l 332 130 z "},"Б":{"ha":477,"x_min":43,"x_max":600,"o":"m 462 130 q 404 38 450 76 q 304 0 357 0 l 43 0 l 210 781 l 600 781 l 572 651 l 312 651 l 284 521 l 414 521 q 498 483 468 521 q 520 419 520 455 q 517 391 520 406 l 462 130 m 332 130 l 387 391 l 256 391 l 201 130 l 332 130 z "},"б":{"ha":477,"x_min":68,"x_max":600,"o":"m 332 130 l 387 391 l 256 391 l 201 130 l 332 130 m 304 0 l 174 0 q 90 38 119 0 q 68 101 68 65 q 71 130 68 115 l 168 586 q 225 678 180 640 q 326 716 271 716 l 456 716 l 470 781 l 600 781 l 586 716 q 529 624 574 662 q 429 586 483 586 l 298 586 l 256 391 q 301 483 268 444 q 371 521 335 521 l 414 521 q 498 483 468 521 q 520 419 520 455 q 462 130 520 407 q 404 38 450 76 q 304 0 357 0 z "},"В":{"ha":477,"x_min":43,"x_max":532,"o":"m 271 456 l 357 456 l 399 651 l 312 651 l 271 456 m 503 326 l 462 130 q 404 38 450 76 q 304 0 357 0 l 43 0 l 210 781 l 427 781 q 511 743 481 781 q 532 680 532 716 q 529 651 532 666 l 488 456 q 439 410 481 429 q 343 391 397 391 l 387 391 q 475 372 441 391 q 504 334 504 355 q 503 326 504 330 m 332 130 l 373 326 l 243 326 l 201 130 l 332 130 z "},"в":{"ha":477,"x_min":43,"x_max":505,"o":"m 501 521 l 473 391 q 426 345 468 363 q 330 326 384 326 l 373 326 q 461 307 427 326 q 490 268 490 290 q 490 260 490 264 l 462 130 q 404 38 450 76 q 304 0 357 0 l 43 0 l 182 651 l 399 651 q 483 613 453 651 q 505 550 505 586 q 501 521 505 536 m 359 260 l 229 260 l 201 130 l 332 130 l 359 260 m 343 391 l 371 521 l 284 521 l 256 391 l 343 391 z "},"Г":{"ha":412,"x_min":43,"x_max":535,"o":"m 43 0 l 210 781 l 535 781 l 507 651 l 312 651 l 174 0 l 43 0 z "},"г":{"ha":412,"x_min":43,"x_max":507,"o":"m 507 651 l 479 521 l 284 521 l 174 0 l 43 0 l 182 651 l 507 651 z "},"Д":{"ha":608,"x_min":16,"x_max":665,"o":"m 174 0 l 146 -130 l 16 -130 l 71 130 l 136 130 l 340 781 l 665 781 l 527 130 l 592 130 l 536 -130 l 406 -130 l 434 0 l 174 0 m 267 130 l 397 130 l 507 651 l 429 651 l 267 130 z "},"д":{"ha":608,"x_min":16,"x_max":637,"o":"m 389 521 l 267 130 l 397 130 l 479 521 l 389 521 m 136 130 l 299 651 l 637 651 l 527 130 l 592 130 l 536 -130 l 406 -130 l 434 0 l 174 0 l 146 -130 l 16 -130 l 71 130 l 136 130 z "},"Е":{"ha":477,"x_min":43,"x_max":600,"o":"m 600 781 l 572 651 l 312 651 l 271 456 l 488 456 l 460 326 l 243 326 l 201 130 l 462 130 l 434 0 l 43 0 l 210 781 l 600 781 z "},"е":{"ha":477,"x_min":68,"x_max":548,"o":"m 256 391 l 387 391 l 414 521 l 284 521 l 256 391 m 332 130 l 345 195 l 475 195 l 462 130 q 404 38 450 76 q 304 0 358 0 l 174 0 q 90 38 120 0 q 68 101 68 65 q 71 130 68 115 l 154 521 q 212 613 165 574 q 312 651 258 651 l 442 651 q 526 613 496 651 q 548 549 548 585 q 545 521 548 536 l 490 260 l 229 260 l 201 130 l 332 130 z "},"Ж":{"ha":738,"x_min":43,"x_max":861,"o":"m 384 376 l 184 0 l 43 0 l 251 391 l 210 781 l 350 781 l 390 406 l 470 781 l 600 781 l 520 406 l 720 781 l 861 781 l 652 391 l 694 0 l 554 0 l 514 376 l 434 0 l 304 0 l 384 376 z "},"ж":{"ha":738,"x_min":43,"x_max":833,"o":"m 370 313 l 184 0 l 43 0 l 237 326 l 182 651 l 322 651 l 376 338 l 442 651 l 572 651 l 506 338 l 692 651 l 833 651 l 638 326 l 694 0 l 554 0 l 500 313 l 434 0 l 304 0 l 370 313 z "},"З":{"ha":477,"x_min":68,"x_max":576,"o":"m 545 521 q 487 429 533 467 q 387 391 441 391 q 471 353 441 391 q 493 290 493 326 q 490 260 493 275 l 462 130 q 404 38 450 76 q 304 0 358 0 l 174 0 q 90 38 120 0 q 68 101 68 65 q 71 130 68 115 l 90 217 l 220 217 l 201 130 l 332 130 l 373 326 l 243 326 l 271 456 l 401 456 l 442 651 l 312 651 l 294 564 l 163 564 l 182 651 q 240 743 193 705 q 340 781 286 781 l 470 781 q 554 743 524 781 q 576 680 576 715 q 572 651 576 666 l 545 521 z "},"з":{"ha":477,"x_min":68,"x_max":548,"o":"m 531 456 q 473 363 519 401 q 373 326 427 326 q 457 288 427 326 q 479 224 479 260 q 475 195 479 210 l 462 130 q 404 38 450 76 q 304 0 358 0 l 174 0 q 90 38 120 0 q 68 101 68 65 q 71 130 68 115 l 90 217 l 220 217 l 201 130 l 332 130 l 359 260 l 251 260 l 278 391 l 387 391 l 414 521 l 284 521 l 266 434 l 136 434 l 154 521 q 212 613 165 574 q 312 651 258 651 l 442 651 q 526 613 496 651 q 548 549 548 585 q 545 521 548 536 l 531 456 z "},"И":{"ha":477,"x_min":43,"x_max":600,"o":"m 600 781 l 434 0 l 304 0 l 387 391 l 174 0 l 43 0 l 210 781 l 340 781 l 256 391 l 470 781 l 600 781 z "},"и":{"ha":477,"x_min":43,"x_max":572,"o":"m 572 651 l 434 0 l 304 0 l 373 326 l 174 0 l 43 0 l 182 651 l 312 651 l 243 326 l 442 651 l 572 651 z "},"К":{"ha":477,"x_min":43,"x_max":600,"o":"m 229 260 l 174 0 l 43 0 l 210 781 l 340 781 l 256 391 l 460 781 l 600 781 l 345 302 l 434 0 l 281 0 l 229 260 z "},"к":{"ha":477,"x_min":43,"x_max":572,"o":"m 182 651 l 312 651 l 245 338 l 432 651 l 572 651 l 334 252 l 434 0 l 281 0 l 211 177 l 174 0 l 43 0 l 182 651 z "},"Л":{"ha":477,"x_min":43,"x_max":600,"o":"m 434 0 l 304 0 l 442 651 l 422 651 l 176 0 l 43 0 l 338 781 l 600 781 l 434 0 z "},"л":{"ha":477,"x_min":43,"x_max":572,"o":"m 434 0 l 304 0 l 414 521 l 391 521 l 176 0 l 43 0 l 310 651 l 572 651 l 434 0 z "},"М":{"ha":738,"x_min":43,"x_max":861,"o":"m 256 391 l 174 0 l 43 0 l 210 781 l 350 781 l 410 195 l 720 781 l 861 781 l 694 0 l 564 0 l 647 391 l 444 0 l 294 0 l 256 391 z "},"м":{"ha":738,"x_min":43,"x_max":833,"o":"m 243 326 l 174 0 l 43 0 l 182 651 l 322 651 l 404 163 l 692 651 l 833 651 l 694 0 l 564 0 l 633 326 l 444 0 l 294 0 l 243 326 z "},"Н":{"ha":477,"x_min":43,"x_max":600,"o":"m 210 781 l 340 781 l 271 456 l 401 456 l 470 781 l 600 781 l 434 0 l 304 0 l 373 326 l 243 326 l 174 0 l 43 0 l 210 781 z "},"н":{"ha":477,"x_min":43,"x_max":572,"o":"m 229 260 l 174 0 l 43 0 l 182 651 l 312 651 l 256 391 l 387 391 l 442 651 l 572 651 l 434 0 l 304 0 l 359 260 l 229 260 z "},"О":{"ha":477,"x_min":68,"x_max":576,"o":"m 201 130 l 332 130 l 442 651 l 312 651 l 201 130 m 71 130 l 182 651 q 240 743 193 705 q 340 781 286 781 l 470 781 q 554 743 524 781 q 576 680 576 715 q 572 651 576 666 l 462 130 q 404 38 450 76 q 304 0 358 0 l 174 0 q 90 38 120 0 q 68 101 68 65 q 71 130 68 115 z "},"о":{"ha":477,"x_min":68,"x_max":548,"o":"m 201 130 l 332 130 l 414 521 l 284 521 l 201 130 m 71 130 l 154 521 q 212 613 165 574 q 312 651 258 651 l 442 651 q 526 613 496 651 q 548 549 548 585 q 545 521 548 536 l 462 130 q 404 38 450 76 q 304 0 358 0 l 174 0 q 90 38 120 0 q 68 101 68 65 q 71 130 68 115 z "},"П":{"ha":477,"x_min":43,"x_max":600,"o":"m 434 0 l 304 0 l 442 651 l 312 651 l 174 0 l 43 0 l 210 781 l 600 781 l 434 0 z "},"п":{"ha":477,"x_min":43,"x_max":572,"o":"m 434 0 l 304 0 l 414 521 l 284 521 l 174 0 l 43 0 l 182 651 l 572 651 l 434 0 z "},"Р":{"ha":477,"x_min":43,"x_max":576,"o":"m 442 651 l 312 651 l 256 391 l 387 391 l 442 651 m 572 651 l 517 391 q 459 298 505 336 q 359 260 413 260 l 229 260 l 174 0 l 43 0 l 210 781 l 470 781 q 553 743 524 781 q 576 680 576 715 q 572 651 576 666 z "},"р":{"ha":477,"x_min":16,"x_max":548,"o":"m 146 -130 l 16 -130 l 182 651 l 269 651 l 284 521 l 146 -130 m 284 521 q 329 613 296 575 q 399 651 363 651 l 442 651 q 526 613 496 651 q 548 550 548 586 q 545 521 548 536 l 462 130 q 404 38 450 76 q 304 0 357 0 l 260 0 q 207 38 224 0 q 197 89 197 60 q 201 130 197 109 l 332 130 l 414 521 l 284 521 z "},"С":{"ha":477,"x_min":68,"x_max":576,"o":"m 332 130 l 359 260 l 490 260 l 462 130 q 404 38 450 76 q 304 0 358 0 l 174 0 q 90 38 120 0 q 68 101 68 65 q 71 130 68 115 l 182 651 q 240 743 193 705 q 340 781 286 781 l 470 781 q 554 743 524 781 q 576 680 576 715 q 572 651 576 666 l 545 521 l 414 521 l 442 651 l 312 651 l 201 130 l 332 130 z "},"с":{"ha":477,"x_min":68,"x_max":548,"o":"m 332 130 l 350 217 l 480 217 l 462 130 q 404 38 450 76 q 304 0 358 0 l 174 0 q 90 38 120 0 q 68 101 68 65 q 71 130 68 115 l 154 521 q 212 613 165 574 q 312 651 258 651 l 442 651 q 526 613 496 651 q 548 549 548 585 q 545 521 548 536 l 526 434 l 396 434 l 414 521 l 284 521 l 201 130 l 332 130 z "},"Т":{"ha":477,"x_min":174,"x_max":600,"o":"m 312 651 l 182 651 l 210 781 l 600 781 l 572 651 l 442 651 l 304 0 l 174 0 l 312 651 z "},"т":{"ha":477,"x_min":154,"x_max":572,"o":"m 284 521 l 154 521 l 182 651 l 572 651 l 545 521 l 414 521 l 304 0 l 174 0 l 284 521 z "},"У":{"ha":477,"x_min":43,"x_max":600,"o":"m 43 0 l 115 130 l 199 130 l 210 781 l 342 781 l 321 391 l 468 781 l 600 781 l 334 130 l 332 130 q 274 38 320 76 q 174 0 228 0 l 43 0 z "},"у":{"ha":477,"x_min":16,"x_max":572,"o":"m 16 -130 l 87 0 l 172 0 l 182 651 l 314 651 l 294 260 l 440 651 l 572 651 l 306 0 l 304 0 q 246 -92 292 -54 q 146 -130 200 -130 l 16 -130 z "},"Ф":{"ha":738,"x_min":81,"x_max":822,"o":"m 345 195 l 429 586 l 298 586 l 215 195 l 345 195 m 606 195 l 689 586 l 559 586 l 475 195 l 606 195 m 736 195 q 678 103 724 141 q 578 65 631 65 l 448 65 l 434 0 l 304 0 l 317 65 l 187 65 q 104 103 134 65 q 81 167 81 131 q 85 195 81 180 l 168 586 q 225 678 179 640 q 326 716 272 716 l 456 716 l 470 781 l 600 781 l 586 716 l 716 716 q 800 678 770 716 q 822 614 822 650 q 819 586 822 600 l 736 195 z "},"ф":{"ha":738,"x_min":68,"x_max":808,"o":"m 547 530 q 590 613 559 578 q 659 651 623 651 l 703 651 q 787 613 756 651 q 808 550 808 586 q 805 521 808 536 l 722 130 q 664 38 711 76 q 564 0 618 0 l 521 0 q 467 38 485 0 q 457 89 457 60 q 462 130 457 109 l 592 130 l 675 521 l 545 521 l 406 -130 l 276 -130 l 330 121 q 287 38 317 73 q 217 0 253 0 l 174 0 q 90 38 120 0 q 68 101 68 65 q 71 130 68 115 l 154 521 q 212 613 165 575 q 312 651 258 651 l 355 651 q 409 613 391 651 q 419 562 419 591 q 414 521 419 543 l 284 521 l 201 130 l 332 130 l 470 781 l 600 781 l 547 530 z "},"Х":{"ha":477,"x_min":43,"x_max":600,"o":"m 392 391 l 434 0 l 294 0 l 294 260 l 184 0 l 43 0 l 252 391 l 210 781 l 350 781 l 349 521 l 460 781 l 600 781 l 392 391 z "},"х":{"ha":477,"x_min":43,"x_max":572,"o":"m 378 326 l 434 0 l 294 0 l 280 195 l 184 0 l 43 0 l 238 326 l 182 651 l 322 651 l 336 456 l 432 651 l 572 651 l 378 326 z "},"Ц":{"ha":543,"x_min":43,"x_max":600,"o":"m 462 130 l 527 130 l 471 -130 l 341 -130 l 369 0 l 43 0 l 210 781 l 340 781 l 201 130 l 332 130 l 470 781 l 600 781 l 462 130 z "},"ц":{"ha":543,"x_min":43,"x_max":572,"o":"m 462 130 l 527 130 l 471 -130 l 341 -130 l 369 0 l 43 0 l 182 651 l 312 651 l 201 130 l 332 130 l 442 651 l 572 651 l 462 130 z "},"Ч":{"ha":477,"x_min":123,"x_max":600,"o":"m 434 0 l 304 0 l 470 781 l 600 781 l 434 0 m 256 391 l 387 391 q 342 298 375 336 q 273 260 309 260 l 229 260 q 145 298 175 260 q 123 362 123 326 q 126 391 123 376 l 210 781 l 340 781 l 256 391 z "},"ч":{"ha":477,"x_min":109,"x_max":572,"o":"m 434 0 l 304 0 l 442 651 l 572 651 l 434 0 m 243 326 l 373 326 q 328 233 361 271 q 258 195 294 195 l 215 195 q 131 233 161 195 q 109 296 109 260 q 113 326 109 311 l 182 651 l 312 651 l 243 326 z "},"Ш":{"ha":608,"x_min":43,"x_max":730,"o":"m 600 781 l 730 781 l 564 0 l 43 0 l 210 781 l 340 781 l 201 130 l 267 130 l 405 781 l 535 781 l 397 130 l 462 130 l 600 781 z "},"ш":{"ha":608,"x_min":43,"x_max":703,"o":"m 572 651 l 703 651 l 564 0 l 43 0 l 182 651 l 312 651 l 201 130 l 267 130 l 377 651 l 507 651 l 397 130 l 462 130 l 572 651 z "},"Щ":{"ha":673,"x_min":43,"x_max":730,"o":"m 592 130 l 657 130 l 602 -130 l 471 -130 l 499 0 l 43 0 l 210 781 l 340 781 l 201 130 l 267 130 l 405 781 l 535 781 l 397 130 l 462 130 l 600 781 l 730 781 l 592 130 z "},"щ":{"ha":673,"x_min":43,"x_max":703,"o":"m 592 130 l 657 130 l 602 -130 l 471 -130 l 499 0 l 43 0 l 182 651 l 312 651 l 201 130 l 267 130 l 377 651 l 507 651 l 397 130 l 462 130 l 572 651 l 703 651 l 592 130 z "},"Ъ":{"ha":608,"x_min":174,"x_max":650,"o":"m 312 651 l 182 651 l 210 781 l 470 781 l 414 521 l 545 521 q 629 483 598 521 q 650 419 650 455 q 647 391 650 406 l 592 130 q 534 38 581 76 q 434 0 488 0 l 174 0 l 312 651 m 517 391 l 387 391 l 332 130 l 462 130 l 517 391 z "},"ъ":{"ha":608,"x_min":154,"x_max":637,"o":"m 284 521 l 154 521 l 182 651 l 442 651 l 401 456 l 531 456 q 614 418 585 456 q 637 354 637 390 q 633 326 637 340 l 592 130 q 534 38 581 76 q 434 0 488 0 l 174 0 l 284 521 m 503 326 l 373 326 l 332 130 l 462 130 l 503 326 z "},"Ы":{"ha":673,"x_min":43,"x_max":795,"o":"m 629 0 l 499 0 l 665 781 l 795 781 l 629 0 m 387 391 l 256 391 l 201 130 l 332 130 l 387 391 m 284 521 l 414 521 q 498 483 468 521 q 520 419 520 455 q 517 391 520 406 l 462 130 q 404 38 450 76 q 304 0 357 0 l 43 0 l 210 781 l 340 781 l 284 521 z "},"ы":{"ha":673,"x_min":43,"x_max":768,"o":"m 271 456 l 401 456 q 484 418 454 456 q 507 354 507 390 q 503 326 507 340 l 462 130 q 404 38 450 76 q 304 0 357 0 l 43 0 l 182 651 l 312 651 l 271 456 m 629 0 l 499 0 l 637 651 l 768 651 l 629 0 m 373 326 l 243 326 l 201 130 l 332 130 l 373 326 z "},"Ь":{"ha":477,"x_min":43,"x_max":520,"o":"m 284 521 l 414 521 q 498 483 468 521 q 520 419 520 455 q 517 391 520 406 l 462 130 q 404 38 450 76 q 304 0 357 0 l 43 0 l 210 781 l 340 781 l 284 521 m 387 391 l 256 391 l 201 130 l 332 130 l 387 391 z "},"ь":{"ha":477,"x_min":43,"x_max":507,"o":"m 271 456 l 401 456 q 484 418 454 456 q 507 354 507 390 q 503 326 507 340 l 462 130 q 404 38 450 76 q 304 0 357 0 l 43 0 l 182 651 l 312 651 l 271 456 m 373 326 l 243 326 l 201 130 l 332 130 l 373 326 z "},"Э":{"ha":477,"x_min":68,"x_max":576,"o":"m 373 326 l 210 326 l 238 456 l 401 456 l 442 651 l 312 651 l 298 586 l 168 586 l 182 651 q 239 743 193 705 q 340 781 286 781 l 470 781 q 554 743 524 781 q 576 680 576 715 q 572 651 576 666 l 462 130 q 404 38 450 76 q 304 0 358 0 l 174 0 q 90 38 119 0 q 68 101 68 65 q 71 130 68 115 l 85 195 l 215 195 l 201 130 l 332 130 l 373 326 z "},"э":{"ha":477,"x_min":68,"x_max":548,"o":"m 359 260 l 197 260 l 224 391 l 387 391 l 414 521 l 284 521 l 271 456 l 140 456 l 154 521 q 212 613 165 574 q 312 651 258 651 l 442 651 q 526 613 496 651 q 548 549 548 585 q 545 521 548 536 l 462 130 q 404 38 450 76 q 304 0 358 0 l 174 0 q 90 38 119 0 q 68 101 68 65 q 71 130 68 115 l 85 195 l 215 195 l 201 130 l 332 130 l 359 260 z "},"Ю":{"ha":673,"x_min":43,"x_max":771,"o":"m 637 651 l 551 651 l 440 130 l 527 130 l 637 651 m 243 326 l 174 0 l 43 0 l 210 781 l 340 781 l 271 456 l 379 456 l 420 651 q 478 743 432 705 q 578 781 525 781 l 665 781 q 749 743 720 781 q 771 680 771 715 q 768 651 771 666 l 657 130 q 600 38 646 76 q 499 0 553 0 l 412 0 q 328 38 359 0 q 307 101 307 65 q 310 130 307 115 l 351 326 l 243 326 z "},"ю":{"ha":673,"x_min":43,"x_max":743,"o":"m 610 521 l 523 521 l 440 130 l 527 130 l 610 521 m 229 260 l 174 0 l 43 0 l 182 651 l 312 651 l 256 391 l 365 391 l 393 521 q 451 613 404 575 q 551 651 497 651 l 637 651 q 722 613 692 651 q 743 549 743 585 q 740 521 743 536 l 657 130 q 600 38 646 76 q 499 0 553 0 l 412 0 q 328 38 359 0 q 307 101 307 65 q 310 130 307 115 l 338 260 l 229 260 z "},"Я":{"ha":477,"x_min":43,"x_max":600,"o":"m 312 651 l 256 391 l 387 391 l 442 651 l 312 651 m 182 651 q 240 743 193 705 q 340 781 286 781 l 600 781 l 434 0 l 304 0 l 359 260 l 339 260 l 184 0 l 43 0 l 201 263 q 145 298 167 271 q 123 362 123 326 q 126 391 123 376 l 182 651 z "},"я":{"ha":477,"x_min":43,"x_max":572,"o":"m 243 326 l 373 326 l 414 521 l 284 521 l 243 326 m 300 195 l 184 0 l 43 0 l 165 205 q 131 234 146 215 q 109 297 109 261 q 113 326 109 311 l 154 521 q 212 613 165 575 q 312 651 258 651 l 572 651 l 434 0 l 304 0 l 345 195 l 300 195 z "},"Һ":{"ha":477,"x_min":43,"x_max":534,"o":"m 210 781 l 340 781 l 298 586 l 429 586 q 512 548 482 586 q 534 484 534 520 q 531 456 534 471 l 434 0 l 304 0 l 401 456 l 271 456 l 174 0 l 43 0 l 210 781 z "},"һ":{"ha":477,"x_min":43,"x_max":520,"o":"m 259 403 q 302 483 272 449 q 371 521 335 521 l 414 521 q 498 483 468 521 q 520 420 520 456 q 517 391 520 406 l 434 0 l 304 0 l 387 391 l 256 391 l 174 0 l 43 0 l 210 781 l 340 781 l 259 403 z "},"Ә":{"ha":477,"x_min":68,"x_max":576,"o":"m 373 326 l 243 326 l 201 130 l 332 130 l 373 326 m 462 130 q 404 38 450 76 q 304 0 358 0 l 174 0 q 90 38 119 0 q 68 101 68 65 q 71 130 68 115 l 140 456 l 401 456 l 442 651 l 312 651 l 298 586 l 168 586 l 182 651 q 239 743 193 705 q 340 781 286 781 l 470 781 q 554 743 524 781 q 576 680 576 716 q 572 651 576 666 l 462 130 z "},"ә":{"ha":477,"x_min":68,"x_max":548,"o":"m 229 260 l 201 130 l 332 130 l 359 260 l 229 260 m 71 130 l 126 391 l 387 391 l 414 521 l 284 521 l 275 477 l 145 477 l 154 521 q 212 613 165 575 q 312 651 258 651 l 442 651 q 526 613 496 651 q 548 550 548 586 q 545 521 548 536 l 462 130 q 404 38 450 76 q 304 0 358 0 l 174 0 q 90 38 119 0 q 68 101 68 65 q 71 130 68 115 z "},"Џ":{"ha":477,"x_min":43,"x_max":600,"o":"m 304 0 l 276 -130 l 146 -130 l 174 0 l 43 0 l 210 781 l 340 781 l 201 130 l 332 130 l 470 781 l 600 781 l 434 0 l 304 0 z "},"џ":{"ha":477,"x_min":43,"x_max":572,"o":"m 304 0 l 276 -130 l 146 -130 l 174 0 l 43 0 l 182 651 l 312 651 l 201 130 l 332 130 l 442 651 l 572 651 l 434 0 l 304 0 z "},"Ґ":{"ha":412,"x_min":43,"x_max":563,"o":"m 448 781 l 476 911 l 563 911 l 507 651 l 312 651 l 174 0 l 43 0 l 210 781 l 448 781 z "},"ґ":{"ha":412,"x_min":43,"x_max":535,"o":"m 420 651 l 448 781 l 535 781 l 479 521 l 284 521 l 174 0 l 43 0 l 182 651 l 420 651 z "},"Ү":{"ha":477,"x_min":174,"x_max":600,"o":"m 321 391 l 468 781 l 600 781 l 359 260 l 304 0 l 174 0 l 229 260 l 210 781 l 342 781 l 321 391 z "},"ү":{"ha":477,"x_min":146,"x_max":572,"o":"m 294 260 l 440 651 l 572 651 l 332 130 l 276 -130 l 146 -130 l 201 130 l 182 651 l 314 651 l 294 260 z "},"Ұ":{"ha":477,"x_min":108,"x_max":600,"o":"m 379 304 l 359 260 l 304 0 l 174 0 l 229 260 l 227 304 l 108 304 l 126 391 l 224 391 l 210 781 l 342 781 l 321 391 l 468 781 l 600 781 l 419 391 l 517 391 l 498 304 l 379 304 z "},"ұ":{"ha":477,"x_min":80,"x_max":572,"o":"m 351 174 l 332 130 l 276 -130 l 146 -130 l 201 130 l 199 174 l 80 174 l 99 260 l 197 260 l 182 651 l 314 651 l 294 260 l 440 651 l 572 651 l 392 260 l 490 260 l 471 174 l 351 174 z "},"Є":{"ha":477,"x_min":68,"x_max":576,"o":"m 442 651 l 312 651 l 271 456 l 433 456 l 406 326 l 243 326 l 201 130 l 332 130 l 345 195 l 475 195 l 462 130 q 404 38 450 76 q 304 0 358 0 l 174 0 q 90 38 119 0 q 68 101 68 65 q 71 130 68 115 l 182 651 q 239 743 193 705 q 340 781 286 781 l 470 781 q 554 743 524 781 q 576 680 576 715 q 572 651 576 666 l 559 586 l 429 586 l 442 651 z "},"є":{"ha":477,"x_min":68,"x_max":548,"o":"m 414 521 l 284 521 l 256 391 l 419 391 l 392 260 l 229 260 l 201 130 l 332 130 l 345 195 l 475 195 l 462 130 q 404 38 450 76 q 304 0 358 0 l 174 0 q 90 38 119 0 q 68 101 68 65 q 71 130 68 115 l 154 521 q 212 613 165 574 q 312 651 258 651 l 442 651 q 526 613 496 651 q 548 549 548 585 q 545 521 548 536 l 531 456 l 401 456 l 414 521 z "},"Ѕ":{"ha":477,"x_min":68,"x_max":576,"o":"m 174 0 q 90 38 120 0 q 68 101 68 65 q 71 130 68 115 l 72 130 l 100 260 l 230 260 l 202 130 l 332 130 l 349 213 l 154 521 l 182 651 q 240 743 193 705 q 340 781 286 781 l 470 781 q 554 743 524 781 q 576 680 576 716 q 572 651 576 666 l 545 521 l 414 521 l 442 651 l 312 651 l 294 568 l 490 260 l 462 130 q 404 38 450 76 q 304 0 358 0 l 174 0 z "},"ѕ":{"ha":477,"x_min":68,"x_max":548,"o":"m 174 0 q 90 38 120 0 q 68 101 68 65 q 71 130 68 115 l 72 130 l 90 217 l 220 217 l 202 130 l 332 130 l 335 148 l 140 456 l 154 521 q 212 613 165 575 q 312 651 258 651 l 442 651 q 526 613 496 651 q 548 550 548 586 q 545 521 548 536 l 526 434 l 396 434 l 414 521 l 284 521 l 281 503 l 475 195 l 462 130 q 404 38 450 76 q 304 0 358 0 l 174 0 z "},"І":{"ha":217,"x_min":43,"x_max":340,"o":"m 174 0 l 43 0 l 210 781 l 340 781 l 174 0 z "},"і":{"ha":217,"x_min":43,"x_max":340,"o":"m 174 0 l 43 0 l 182 651 l 312 651 l 174 0 m 210 781 l 340 781 l 326 716 l 195 716 l 210 781 z "},"Ј":{"ha":477,"x_min":68,"x_max":600,"o":"m 174 0 q 90 38 120 0 q 68 101 68 65 q 71 130 68 115 l 72 130 l 100 260 l 230 260 l 202 130 l 332 130 l 470 781 l 600 781 l 462 130 q 404 38 450 76 q 304 0 358 0 l 174 0 z "},"ј":{"ha":260,"x_min":-71,"x_max":383,"o":"m 253 781 l 383 781 l 369 716 l 239 716 l 253 781 m 225 651 l 355 651 l 217 0 q 159 -92 205 -54 q 59 -130 113 -130 l -71 -130 l 43 0 l 87 0 l 225 651 z "},"Ө":{"ha":477,"x_min":68,"x_max":576,"o":"m 396 434 l 442 651 l 312 651 l 266 434 l 396 434 m 378 347 l 248 347 l 201 130 l 332 130 l 378 347 m 462 130 q 404 38 450 76 q 304 0 358 0 l 174 0 q 90 38 120 0 q 68 101 68 65 q 71 130 68 115 l 182 651 q 240 743 193 705 q 340 781 286 781 l 470 781 q 554 743 524 781 q 576 680 576 715 q 572 651 576 666 l 462 130 z "},"ө":{"ha":477,"x_min":68,"x_max":548,"o":"m 382 369 l 414 521 l 284 521 l 252 369 l 382 369 m 363 282 l 233 282 l 201 130 l 332 130 l 363 282 m 462 130 q 404 38 450 76 q 304 0 358 0 l 174 0 q 90 38 120 0 q 68 101 68 65 q 71 130 68 115 l 154 521 q 212 613 165 574 q 312 651 258 651 l 442 651 q 526 613 496 651 q 548 549 548 585 q 545 521 548 536 l 462 130 z "},"Њ":{"ha":738,"x_min":43,"x_max":767,"o":"m 503 326 l 462 130 l 592 130 l 633 326 l 503 326 m 243 326 l 174 0 l 43 0 l 210 781 l 340 781 l 271 456 l 401 456 l 470 781 l 600 781 l 531 456 l 661 456 q 745 418 715 456 q 767 354 767 390 q 764 326 767 340 l 722 130 q 664 38 711 76 q 564 0 618 0 l 304 0 l 373 326 l 243 326 z "},"њ":{"ha":738,"x_min":43,"x_max":753,"o":"m 229 260 l 174 0 l 43 0 l 182 651 l 312 651 l 256 391 l 387 391 l 442 651 l 572 651 l 517 391 l 647 391 q 731 353 701 391 q 753 289 753 325 q 750 260 753 275 l 722 130 q 664 38 711 76 q 564 0 618 0 l 304 0 l 359 260 l 229 260 m 620 260 l 490 260 l 462 130 l 592 130 l 620 260 z "},"Љ":{"ha":738,"x_min":43,"x_max":767,"o":"m 600 781 l 531 456 l 661 456 q 745 418 715 456 q 767 354 767 390 q 764 326 767 340 l 722 130 q 664 38 711 76 q 564 0 618 0 l 304 0 l 442 651 l 422 651 l 176 0 l 43 0 l 338 781 l 600 781 m 503 326 l 462 130 l 592 130 l 633 326 l 503 326 z "},"љ":{"ha":738,"x_min":43,"x_max":753,"o":"m 490 260 l 462 130 l 592 130 l 620 260 l 490 260 m 572 651 l 517 391 l 647 391 q 731 353 701 391 q 753 289 753 325 q 750 260 753 275 l 722 130 q 664 38 711 76 q 564 0 618 0 l 304 0 l 414 521 l 391 521 l 176 0 l 43 0 l 310 651 l 572 651 z "},"Ћ":{"ha":608,"x_min":174,"x_max":665,"o":"m 665 781 l 637 651 l 442 651 l 414 521 l 545 521 q 629 483 598 521 q 650 420 650 456 q 647 391 650 406 l 564 0 l 434 0 l 517 391 l 387 391 l 304 0 l 174 0 l 312 651 l 182 651 l 210 781 l 665 781 z "},"ћ":{"ha":608,"x_min":168,"x_max":651,"o":"m 564 0 l 434 0 l 503 326 l 373 326 l 304 0 l 174 0 l 298 586 l 168 586 l 195 716 l 326 716 l 340 781 l 470 781 l 456 716 l 651 716 l 624 586 l 429 586 l 401 456 l 531 456 q 614 418 585 456 q 637 354 637 390 q 633 326 637 340 l 564 0 z "},"Ђ":{"ha":608,"x_min":174,"x_max":665,"o":"m 406 -130 l 363 -130 l 391 0 l 434 0 l 517 391 l 387 391 l 304 0 l 174 0 l 312 651 l 182 651 l 210 781 l 665 781 l 637 651 l 442 651 l 414 521 l 545 521 q 629 483 598 521 q 650 420 650 456 q 647 391 650 406 l 564 0 q 507 -92 553 -54 q 406 -130 460 -130 z "},"ђ":{"ha":608,"x_min":168,"x_max":651,"o":"m 406 -130 l 363 -130 l 391 0 l 434 0 l 503 326 l 373 326 l 304 0 l 174 0 l 298 586 l 168 586 l 195 716 l 326 716 l 340 781 l 470 781 l 456 716 l 651 716 l 624 586 l 429 586 l 401 456 l 531 456 q 614 418 585 456 q 637 354 637 390 q 633 326 637 340 l 564 0 q 507 -92 553 -54 q 406 -130 460 -130 z "},"Ӏ":{"ha":217,"x_min":43,"x_max":340,"o":"m 174 0 l 43 0 l 210 781 l 340 781 l 174 0 z "},"ӏ":{"ha":217,"x_min":54,"x_max":329,"o":"m 163 0 l 54 0 l 220 781 l 329 781 l 163 0 z "},"Ѳ":{"ha":477,"x_min":68,"x_max":576,"o":"m 256 391 l 201 130 l 332 130 l 370 309 l 345 309 q 292 334 311 309 q 279 374 279 351 q 281 391 279 382 l 256 391 m 387 391 l 442 651 l 312 651 l 274 472 l 298 472 q 351 448 332 472 q 364 409 364 431 q 362 391 364 400 l 387 391 m 304 0 l 174 0 q 90 38 120 0 q 68 101 68 65 q 71 130 68 115 l 182 651 q 240 743 193 705 q 340 781 286 781 l 470 781 q 554 743 524 781 q 576 680 576 715 q 572 651 576 666 l 462 130 q 404 38 450 76 q 304 0 358 0 z "},"ѳ":{"ha":477,"x_min":68,"x_max":548,"o":"m 243 326 l 201 130 l 332 130 l 356 244 l 332 244 q 279 269 298 244 q 265 309 265 286 q 267 326 265 317 l 243 326 m 373 326 l 414 521 l 284 521 l 260 407 l 285 407 q 337 383 319 407 q 351 344 351 366 q 349 326 351 335 l 373 326 m 304 0 l 174 0 q 90 38 120 0 q 68 101 68 65 q 71 130 68 115 l 154 521 q 212 613 165 574 q 312 651 258 651 l 442 651 q 526 613 496 651 q 548 549 548 585 q 545 521 548 536 l 462 130 q 404 38 450 76 q 304 0 358 0 z "},"Ӓ":{"ha":477,"x_min":43,"x_max":563,"o":"m 549 846 l 462 846 l 476 911 l 563 911 l 549 846 m 375 846 l 288 846 l 302 911 l 389 911 l 375 846 m 331 260 l 377 651 l 258 260 l 331 260 m 434 0 l 304 0 l 317 130 l 216 130 l 174 0 l 43 0 l 295 781 l 515 781 l 434 0 z "},"ӓ":{"ha":477,"x_min":68,"x_max":548,"o":"m 347 716 l 260 716 l 275 781 l 361 781 l 347 716 m 332 130 l 373 326 l 243 326 l 201 130 l 332 130 m 332 130 q 287 38 320 76 q 217 0 253 0 l 174 0 q 90 38 120 0 q 68 101 68 65 q 71 130 68 115 l 113 326 q 158 418 124 380 q 227 456 191 456 l 271 456 q 355 418 325 456 q 376 355 376 391 q 374 330 376 342 l 414 521 l 197 521 q 255 613 209 575 q 355 651 301 651 l 442 651 q 526 613 496 651 q 548 549 548 585 q 545 521 548 536 l 434 0 l 347 0 l 332 130 m 521 716 l 434 716 l 448 781 l 535 781 l 521 716 z "},"Ё":{"ha":477,"x_min":43,"x_max":600,"o":"m 600 781 l 572 651 l 312 651 l 271 456 l 488 456 l 460 326 l 243 326 l 201 130 l 462 130 l 434 0 l 43 0 l 210 781 l 600 781 m 549 846 l 462 846 l 476 911 l 563 911 l 549 846 m 375 846 l 288 846 l 302 911 l 389 911 l 375 846 z "},"ё":{"ha":477,"x_min":68,"x_max":548,"o":"m 256 391 l 387 391 l 414 521 l 284 521 l 256 391 m 332 130 l 345 195 l 475 195 l 462 130 q 404 38 450 76 q 304 0 358 0 l 174 0 q 90 38 120 0 q 68 101 68 65 q 71 130 68 115 l 154 521 q 212 613 165 574 q 312 651 258 651 l 442 651 q 526 613 496 651 q 548 549 548 585 q 545 521 548 536 l 490 260 l 229 260 l 201 130 l 332 130 m 521 716 l 434 716 l 448 781 l 535 781 l 521 716 m 347 716 l 260 716 l 275 781 l 361 781 l 347 716 z "},"Ї":{"ha":217,"x_min":43,"x_max":411,"o":"m 174 0 l 43 0 l 210 781 l 340 781 l 174 0 m 397 846 l 310 846 l 324 911 l 411 911 l 397 846 m 267 846 l 180 846 l 194 911 l 281 911 l 267 846 z "},"ї":{"ha":217,"x_min":43,"x_max":383,"o":"m 174 0 l 43 0 l 182 651 l 312 651 l 174 0 m 369 716 l 282 716 l 296 781 l 383 781 l 369 716 m 239 716 l 152 716 l 166 781 l 253 781 l 239 716 z "},"Ӥ":{"ha":477,"x_min":43,"x_max":600,"o":"m 549 846 l 462 846 l 476 911 l 563 911 l 549 846 m 375 846 l 288 846 l 302 911 l 389 911 l 375 846 m 600 781 l 434 0 l 304 0 l 387 391 l 174 0 l 43 0 l 210 781 l 340 781 l 256 391 l 470 781 l 600 781 z "},"ӥ":{"ha":477,"x_min":43,"x_max":572,"o":"m 521 716 l 434 716 l 448 781 l 535 781 l 521 716 m 347 716 l 260 716 l 275 781 l 361 781 l 347 716 m 572 651 l 434 0 l 304 0 l 373 326 l 174 0 l 43 0 l 182 651 l 312 651 l 243 326 l 442 651 l 572 651 z "},"Ӧ":{"ha":477,"x_min":68,"x_max":576,"o":"m 201 130 l 332 130 l 442 651 l 312 651 l 201 130 m 71 130 l 182 651 q 240 743 193 705 q 340 781 286 781 l 470 781 q 554 743 524 781 q 576 680 576 715 q 572 651 576 666 l 462 130 q 404 38 450 76 q 304 0 358 0 l 174 0 q 90 38 120 0 q 68 101 68 65 q 71 130 68 115 m 549 846 l 462 846 l 476 911 l 563 911 l 549 846 m 375 846 l 288 846 l 302 911 l 389 911 l 375 846 z "},"ӧ":{"ha":477,"x_min":68,"x_max":548,"o":"m 201 130 l 332 130 l 414 521 l 284 521 l 201 130 m 71 130 l 154 521 q 212 613 165 574 q 312 651 258 651 l 442 651 q 526 613 496 651 q 548 549 548 585 q 545 521 548 536 l 462 130 q 404 38 450 76 q 304 0 358 0 l 174 0 q 90 38 120 0 q 68 101 68 65 q 71 130 68 115 m 521 716 l 434 716 l 448 781 l 535 781 l 521 716 m 347 716 l 260 716 l 275 781 l 361 781 l 347 716 z "},"Ӵ":{"ha":477,"x_min":123,"x_max":600,"o":"m 549 846 l 462 846 l 476 911 l 563 911 l 549 846 m 375 846 l 288 846 l 302 911 l 389 911 l 375 846 m 470 781 l 600 781 l 434 0 l 304 0 l 470 781 m 210 781 l 340 781 l 256 391 l 387 391 q 342 298 375 336 q 273 260 309 260 l 229 260 q 145 298 175 260 q 123 362 123 326 q 126 391 123 376 l 210 781 z "},"ӵ":{"ha":477,"x_min":109,"x_max":572,"o":"m 521 716 l 434 716 l 448 781 l 535 781 l 521 716 m 347 716 l 260 716 l 275 781 l 361 781 l 347 716 m 442 651 l 572 651 l 434 0 l 304 0 l 442 651 m 182 651 l 312 651 l 243 326 l 373 326 q 328 233 361 271 q 258 195 294 195 l 215 195 q 131 233 161 195 q 109 296 109 260 q 113 326 109 311 l 182 651 z "},"Ӟ":{"ha":477,"x_min":68,"x_max":576,"o":"m 545 521 q 487 429 533 467 q 387 391 441 391 q 471 353 441 391 q 493 290 493 326 q 490 260 493 275 l 462 130 q 404 38 450 76 q 304 0 358 0 l 174 0 q 90 38 120 0 q 68 101 68 65 q 71 130 68 115 l 90 217 l 220 217 l 201 130 l 332 130 l 373 326 l 243 326 l 271 456 l 401 456 l 442 651 l 312 651 l 294 564 l 163 564 l 182 651 q 240 743 193 705 q 340 781 286 781 l 470 781 q 554 743 524 781 q 576 680 576 715 q 572 651 576 666 l 545 521 m 549 846 l 462 846 l 476 911 l 563 911 l 549 846 m 375 846 l 288 846 l 302 911 l 389 911 l 375 846 z "},"ӟ":{"ha":477,"x_min":68,"x_max":548,"o":"m 531 456 q 473 363 519 401 q 373 326 427 326 q 457 288 427 326 q 479 224 479 260 q 475 195 479 210 l 462 130 q 404 38 450 76 q 304 0 358 0 l 174 0 q 90 38 120 0 q 68 101 68 65 q 71 130 68 115 l 90 217 l 220 217 l 201 130 l 332 130 l 359 260 l 251 260 l 278 391 l 387 391 l 414 521 l 284 521 l 266 434 l 136 434 l 154 521 q 212 613 165 574 q 312 651 258 651 l 442 651 q 526 613 496 651 q 548 549 548 585 q 545 521 548 536 l 531 456 m 521 716 l 434 716 l 448 781 l 535 781 l 521 716 m 347 716 l 260 716 l 275 781 l 361 781 l 347 716 z "},"Ӭ":{"ha":477,"x_min":68,"x_max":576,"o":"m 312 651 l 298 586 l 168 586 l 182 651 q 239 743 193 705 q 340 781 286 781 l 470 781 q 554 743 524 781 q 576 680 576 715 q 572 651 576 666 l 462 130 q 404 38 450 76 q 304 0 358 0 l 174 0 q 90 38 119 0 q 68 101 68 65 q 71 130 68 115 l 85 195 l 215 195 l 201 130 l 332 130 l 373 326 l 210 326 l 238 456 l 401 456 l 442 651 l 312 651 m 375 846 l 288 846 l 302 911 l 389 911 l 375 846 m 549 846 l 462 846 l 476 911 l 563 911 l 549 846 z "},"ӭ":{"ha":477,"x_min":68,"x_max":548,"o":"m 284 521 l 271 456 l 140 456 l 154 521 q 212 613 165 574 q 312 651 258 651 l 442 651 q 526 613 496 651 q 548 549 548 585 q 545 521 548 536 l 462 130 q 404 38 450 76 q 304 0 358 0 l 174 0 q 90 38 119 0 q 68 101 68 65 q 71 130 68 115 l 85 195 l 215 195 l 201 130 l 332 130 l 359 260 l 197 260 l 224 391 l 387 391 l 414 521 l 284 521 m 347 716 l 260 716 l 275 781 l 361 781 l 347 716 m 521 716 l 434 716 l 448 781 l 535 781 l 521 716 z "},"Ӝ":{"ha":738,"x_min":43,"x_max":861,"o":"m 505 846 l 418 846 l 433 911 l 519 911 l 505 846 m 679 846 l 592 846 l 606 911 l 693 911 l 679 846 m 434 0 l 304 0 l 384 376 l 184 0 l 43 0 l 251 391 l 210 781 l 350 781 l 390 406 l 470 781 l 600 781 l 520 406 l 720 781 l 861 781 l 652 391 l 694 0 l 554 0 l 514 376 l 434 0 z "},"ӝ":{"ha":738,"x_min":43,"x_max":833,"o":"m 477 716 l 391 716 l 405 781 l 492 781 l 477 716 m 651 716 l 564 716 l 578 781 l 665 781 l 651 716 m 506 338 l 692 651 l 833 651 l 638 326 l 694 0 l 554 0 l 500 313 l 434 0 l 304 0 l 370 313 l 184 0 l 43 0 l 237 326 l 182 651 l 322 651 l 376 338 l 442 651 l 572 651 l 506 338 z "},"Ӫ":{"ha":477,"x_min":68,"x_max":576,"o":"m 462 130 q 404 38 450 76 q 304 0 358 0 l 174 0 q 90 38 120 0 q 68 101 68 65 q 71 130 68 115 l 182 651 q 240 743 193 705 q 340 781 286 781 l 470 781 q 554 743 524 781 q 576 680 576 715 q 572 651 576 666 l 462 130 m 375 846 l 288 846 l 302 911 l 389 911 l 375 846 m 549 846 l 462 846 l 476 911 l 563 911 l 549 846 m 266 434 l 396 434 l 442 651 l 312 651 l 266 434 m 378 347 l 248 347 l 201 130 l 332 130 l 378 347 z "},"ӫ":{"ha":477,"x_min":68,"x_max":548,"o":"m 462 130 q 404 38 450 76 q 304 0 358 0 l 174 0 q 90 38 120 0 q 68 101 68 65 q 71 130 68 115 l 154 521 q 212 613 165 574 q 312 651 258 651 l 442 651 q 526 613 496 651 q 548 549 548 585 q 545 521 548 536 l 462 130 m 347 716 l 260 716 l 275 781 l 361 781 l 347 716 m 521 716 l 434 716 l 448 781 l 535 781 l 521 716 m 252 369 l 382 369 l 414 521 l 284 521 l 252 369 m 363 282 l 233 282 l 201 130 l 332 130 l 363 282 z "},"Ӛ":{"ha":477,"x_min":68,"x_max":576,"o":"m 549 846 l 462 846 l 476 911 l 563 911 l 549 846 m 375 846 l 288 846 l 302 911 l 389 911 l 375 846 m 373 326 l 243 326 l 201 130 l 332 130 l 373 326 m 312 651 l 298 586 l 168 586 l 182 651 q 239 743 193 705 q 340 781 286 781 l 470 781 q 554 743 524 781 q 576 680 576 716 q 572 651 576 666 l 462 130 q 404 38 450 76 q 304 0 358 0 l 174 0 q 90 38 119 0 q 68 101 68 65 q 71 130 68 115 l 140 456 l 401 456 l 442 651 l 312 651 z "},"ӛ":{"ha":477,"x_min":68,"x_max":548,"o":"m 521 716 l 434 716 l 448 781 l 535 781 l 521 716 m 347 716 l 260 716 l 275 781 l 361 781 l 347 716 m 359 260 l 229 260 l 201 130 l 332 130 l 359 260 m 284 521 l 275 477 l 145 477 l 154 521 q 212 613 165 575 q 312 651 258 651 l 442 651 q 526 613 496 651 q 548 550 548 586 q 545 521 548 536 l 462 130 q 404 38 450 76 q 304 0 358 0 l 174 0 q 90 38 119 0 q 68 101 68 65 q 71 130 68 115 l 126 391 l 387 391 l 414 521 l 284 521 z "},"Ӱ":{"ha":477,"x_min":43,"x_max":600,"o":"m 43 0 l 115 130 l 199 130 l 210 781 l 342 781 l 321 391 l 468 781 l 600 781 l 334 130 l 332 130 q 274 38 320 76 q 174 0 228 0 l 43 0 m 549 846 l 462 846 l 476 911 l 563 911 l 549 846 m 375 846 l 288 846 l 302 911 l 389 911 l 375 846 z "},"ӱ":{"ha":477,"x_min":16,"x_max":572,"o":"m 16 -130 l 87 0 l 172 0 l 182 651 l 314 651 l 294 260 l 440 651 l 572 651 l 306 0 l 304 0 q 246 -92 292 -54 q 146 -130 200 -130 l 16 -130 m 521 716 l 434 716 l 448 781 l 535 781 l 521 716 m 347 716 l 260 716 l 275 781 l 361 781 l 347 716 z "},"Ӹ":{"ha":673,"x_min":43,"x_max":795,"o":"m 646 846 l 559 846 l 574 911 l 661 911 l 646 846 m 473 846 l 386 846 l 400 911 l 487 911 l 473 846 m 462 130 q 404 38 450 76 q 304 0 357 0 l 43 0 l 210 781 l 340 781 l 284 521 l 414 521 q 498 483 468 521 q 520 419 520 455 q 517 391 520 406 l 462 130 m 499 0 l 665 781 l 795 781 l 629 0 l 499 0 m 332 130 l 387 391 l 256 391 l 201 130 l 332 130 z "},"ӹ":{"ha":673,"x_min":43,"x_max":768,"o":"m 618 716 l 532 716 l 546 781 l 633 781 l 618 716 m 445 716 l 358 716 l 372 781 l 459 781 l 445 716 m 499 0 l 637 651 l 768 651 l 629 0 l 499 0 m 332 130 l 373 326 l 243 326 l 201 130 l 332 130 m 462 130 q 404 38 450 76 q 304 0 357 0 l 43 0 l 182 651 l 312 651 l 271 456 l 401 456 q 484 418 454 456 q 507 354 507 390 q 503 326 507 340 l 462 130 z "},"Ѐ":{"ha":477,"x_min":43,"x_max":600,"o":"m 600 781 l 572 651 l 312 651 l 271 456 l 488 456 l 460 326 l 243 326 l 201 130 l 462 130 l 434 0 l 43 0 l 210 781 l 600 781 m 465 844 l 408 798 l 317 913 l 374 960 l 465 844 z "},"ѐ":{"ha":477,"x_min":68,"x_max":548,"o":"m 256 391 l 387 391 l 414 521 l 284 521 l 256 391 m 332 130 l 345 195 l 475 195 l 462 130 q 404 38 450 76 q 304 0 358 0 l 174 0 q 90 38 120 0 q 68 101 68 65 q 71 130 68 115 l 154 521 q 212 613 165 574 q 312 651 258 651 l 442 651 q 526 613 496 651 q 548 549 548 585 q 545 521 548 536 l 490 260 l 229 260 l 201 130 l 332 130 m 437 714 l 380 668 l 290 783 l 346 829 l 437 714 z "},"Ѝ":{"ha":477,"x_min":43,"x_max":600,"o":"m 465 844 l 408 798 l 317 913 l 374 960 l 465 844 m 600 781 l 434 0 l 304 0 l 387 391 l 174 0 l 43 0 l 210 781 l 340 781 l 256 391 l 470 781 l 600 781 z "},"ѝ":{"ha":477,"x_min":43,"x_max":572,"o":"m 437 714 l 380 668 l 290 783 l 346 829 l 437 714 m 572 651 l 434 0 l 304 0 l 373 326 l 174 0 l 43 0 l 182 651 l 312 651 l 243 326 l 442 651 l 572 651 z "},"Ѓ":{"ha":412,"x_min":43,"x_max":548,"o":"m 43 0 l 210 781 l 535 781 l 507 651 l 312 651 l 174 0 l 43 0 m 512 960 l 548 913 l 408 798 l 372 844 l 512 960 z "},"ѓ":{"ha":412,"x_min":43,"x_max":521,"o":"m 484 829 l 521 783 l 380 668 l 345 714 l 484 829 m 174 0 l 43 0 l 182 651 l 507 651 l 479 521 l 284 521 l 174 0 z "},"Ќ":{"ha":477,"x_min":43,"x_max":600,"o":"m 512 960 l 548 913 l 408 798 l 372 844 l 512 960 m 229 260 l 174 0 l 43 0 l 210 781 l 340 781 l 256 391 l 460 781 l 600 781 l 345 302 l 434 0 l 281 0 l 229 260 z "},"ќ":{"ha":477,"x_min":43,"x_max":572,"o":"m 484 829 l 521 783 l 380 668 l 345 714 l 484 829 m 182 651 l 312 651 l 245 338 l 432 651 l 572 651 l 334 252 l 434 0 l 281 0 l 211 177 l 174 0 l 43 0 l 182 651 z "},"Й":{"ha":477,"x_min":43,"x_max":600,"o":"m 469 879 l 483 944 l 548 944 l 534 879 q 505 833 528 852 q 455 814 482 814 l 368 814 q 326 833 341 814 q 315 865 315 847 q 317 879 315 871 l 331 944 l 396 944 l 382 879 l 469 879 m 600 781 l 434 0 l 304 0 l 387 391 l 174 0 l 43 0 l 210 781 l 340 781 l 256 391 l 470 781 l 600 781 z "},"й":{"ha":477,"x_min":43,"x_max":572,"o":"m 441 749 l 455 814 l 520 814 l 507 749 q 477 703 500 722 q 427 684 454 684 l 340 684 q 298 703 313 684 q 288 734 288 716 q 290 749 288 741 l 303 814 l 368 814 l 355 749 l 441 749 m 572 651 l 434 0 l 304 0 l 373 326 l 174 0 l 43 0 l 182 651 l 312 651 l 243 326 l 442 651 l 572 651 z "},"Ў":{"ha":477,"x_min":43,"x_max":600,"o":"m 43 0 l 115 130 l 199 130 l 210 781 l 342 781 l 321 391 l 468 781 l 600 781 l 334 130 l 332 130 q 274 38 320 76 q 174 0 228 0 l 43 0 m 469 879 l 483 944 l 548 944 l 534 879 q 505 833 528 852 q 455 814 482 814 l 368 814 q 326 833 341 814 q 315 865 315 847 q 317 879 315 871 l 331 944 l 396 944 l 382 879 l 469 879 z "},"ў":{"ha":477,"x_min":16,"x_max":572,"o":"m 16 -130 l 87 0 l 172 0 l 182 651 l 314 651 l 294 260 l 440 651 l 572 651 l 306 0 l 304 0 q 246 -92 292 -54 q 146 -130 200 -130 l 16 -130 m 441 749 l 455 814 l 520 814 l 507 749 q 477 703 500 722 q 427 684 454 684 l 340 684 q 298 703 313 684 q 288 734 288 716 q 290 749 288 741 l 303 814 l 368 814 l 355 749 l 441 749 z "},"Ӂ":{"ha":738,"x_min":43,"x_max":861,"o":"m 434 0 l 304 0 l 384 376 l 184 0 l 43 0 l 251 391 l 210 781 l 350 781 l 390 406 l 470 781 l 600 781 l 520 406 l 720 781 l 861 781 l 652 391 l 694 0 l 554 0 l 514 376 l 434 0 m 599 879 l 613 944 l 678 944 l 664 879 q 635 833 659 852 q 585 814 612 814 l 498 814 q 456 833 471 814 q 446 865 446 847 q 447 879 446 871 l 461 944 l 526 944 l 512 879 l 599 879 z "},"ӂ":{"ha":738,"x_min":43,"x_max":833,"o":"m 506 338 l 692 651 l 833 651 l 638 326 l 694 0 l 554 0 l 500 313 l 434 0 l 304 0 l 370 313 l 184 0 l 43 0 l 237 326 l 182 651 l 322 651 l 376 338 l 442 651 l 572 651 l 506 338 m 572 749 l 585 814 l 650 814 l 637 749 q 608 703 631 722 q 557 684 585 684 l 471 684 q 429 703 444 684 q 418 734 418 716 q 420 749 418 741 l 433 814 l 498 814 l 485 749 l 572 749 z "},"Ӑ":{"ha":477,"x_min":43,"x_max":548,"o":"m 469 879 l 483 944 l 548 944 l 534 879 q 505 833 528 852 q 455 814 482 814 l 368 814 q 326 833 341 814 q 315 865 315 847 q 317 879 315 871 l 331 944 l 396 944 l 382 879 l 469 879 m 331 260 l 377 651 l 258 260 l 331 260 m 434 0 l 304 0 l 317 130 l 216 130 l 174 0 l 43 0 l 295 781 l 515 781 l 434 0 z "},"ӑ":{"ha":477,"x_min":68,"x_max":548,"o":"m 463 749 l 477 814 l 542 814 l 528 749 q 499 703 522 722 q 449 684 476 684 l 362 684 q 320 703 335 684 q 309 734 309 716 q 311 749 309 741 l 325 814 l 390 814 l 376 749 l 463 749 m 332 130 l 373 326 l 243 326 l 201 130 l 332 130 m 332 130 q 287 38 320 76 q 217 0 253 0 l 174 0 q 90 38 120 0 q 68 101 68 65 q 71 130 68 115 l 113 326 q 158 418 124 380 q 227 456 191 456 l 271 456 q 355 418 325 456 q 376 355 376 391 q 374 330 376 342 l 414 521 l 197 521 q 255 613 209 575 q 355 651 301 651 l 442 651 q 526 613 496 651 q 548 549 548 585 q 545 521 548 536 l 434 0 l 347 0 l 332 130 z "},"Ӗ":{"ha":477,"x_min":43,"x_max":600,"o":"m 600 781 l 572 651 l 312 651 l 271 456 l 488 456 l 460 326 l 243 326 l 201 130 l 462 130 l 434 0 l 43 0 l 210 781 l 600 781 m 469 879 l 483 944 l 548 944 l 534 879 q 505 833 528 852 q 455 814 482 814 l 368 814 q 326 833 341 814 q 315 865 315 847 q 317 879 315 871 l 331 944 l 396 944 l 382 879 l 469 879 z "},"ӗ":{"ha":477,"x_min":68,"x_max":548,"o":"m 256 391 l 387 391 l 414 521 l 284 521 l 256 391 m 332 130 l 345 195 l 475 195 l 462 130 q 404 38 450 76 q 304 0 358 0 l 174 0 q 90 38 120 0 q 68 101 68 65 q 71 130 68 115 l 154 521 q 212 613 165 574 q 312 651 258 651 l 442 651 q 526 613 496 651 q 548 549 548 585 q 545 521 548 536 l 490 260 l 229 260 l 201 130 l 332 130 m 441 749 l 455 814 l 520 814 l 507 749 q 477 703 500 722 q 427 684 454 684 l 340 684 q 298 703 313 684 q 288 734 288 716 q 290 749 288 741 l 303 814 l 368 814 l 355 749 l 441 749 z "},"Ӕ":{"ha":738,"x_min":43,"x_max":861,"o":"m 258 260 l 359 260 l 442 651 l 383 651 l 258 260 m 332 130 l 216 130 l 174 0 l 43 0 l 295 781 l 861 781 l 833 651 l 572 651 l 531 456 l 748 456 l 720 326 l 503 326 l 462 130 l 722 130 l 694 0 l 304 0 l 332 130 z "},"ӕ":{"ha":738,"x_min":68,"x_max":808,"o":"m 517 391 l 647 391 l 675 521 l 545 521 l 517 391 m 332 130 l 373 326 l 243 326 l 201 130 l 332 130 m 332 130 q 287 38 320 76 q 217 0 253 0 l 174 0 q 90 38 120 0 q 68 101 68 65 q 71 130 68 115 l 113 326 q 158 418 124 380 q 227 456 191 456 l 271 456 q 355 418 325 456 q 376 355 376 391 q 374 330 376 342 l 414 521 l 197 521 q 255 613 209 575 q 355 651 301 651 l 442 651 q 504 634 479 651 q 572 651 536 651 l 703 651 q 787 613 757 651 q 808 549 808 585 q 805 521 808 536 l 750 260 l 490 260 l 462 130 l 592 130 l 606 195 l 736 195 l 722 130 q 665 38 711 76 q 564 0 618 0 l 347 0 l 332 130 z "},"Ӣ":{"ha":477,"x_min":43,"x_max":600,"o":"m 600 781 l 434 0 l 304 0 l 387 391 l 174 0 l 43 0 l 210 781 l 340 781 l 256 391 l 470 781 l 600 781 m 549 846 l 288 846 l 302 911 l 563 911 l 549 846 z "},"ӣ":{"ha":477,"x_min":43,"x_max":572,"o":"m 434 0 l 304 0 l 373 326 l 174 0 l 43 0 l 182 651 l 312 651 l 243 326 l 442 651 l 572 651 l 434 0 m 521 716 l 260 716 l 275 781 l 535 781 l 521 716 z "},"Ӯ":{"ha":477,"x_min":43,"x_max":600,"o":"m 43 0 l 115 130 l 199 130 l 210 781 l 342 781 l 321 391 l 468 781 l 600 781 l 334 130 l 332 130 q 274 38 320 76 q 174 0 228 0 l 43 0 m 549 846 l 288 846 l 302 911 l 563 911 l 549 846 z "},"ӯ":{"ha":477,"x_min":16,"x_max":572,"o":"m 16 -130 l 87 0 l 172 0 l 182 651 l 314 651 l 294 260 l 440 651 l 572 651 l 306 0 l 304 0 q 246 -92 292 -54 q 146 -130 200 -130 l 16 -130 m 521 716 l 260 716 l 275 781 l 535 781 l 521 716 z "},"Ӳ":{"ha":477,"x_min":43,"x_max":640,"o":"m 43 0 l 115 130 l 199 130 l 210 781 l 342 781 l 321 391 l 468 781 l 600 781 l 334 130 l 332 130 q 274 38 320 76 q 174 0 228 0 l 43 0 m 604 960 l 640 913 l 500 798 l 465 844 l 604 960 m 420 960 l 456 913 l 316 798 l 280 844 l 420 960 z "},"ӳ":{"ha":477,"x_min":16,"x_max":613,"o":"m 16 -130 l 87 0 l 172 0 l 182 651 l 314 651 l 294 260 l 440 651 l 572 651 l 306 0 l 304 0 q 246 -92 292 -54 q 146 -130 200 -130 l 16 -130 m 576 829 l 613 783 l 473 668 l 437 714 l 576 829 m 392 829 l 429 783 l 288 668 l 252 714 l 392 829 z "},"Җ":{"ha":738,"x_min":43,"x_max":861,"o":"m 667 -130 l 580 -130 l 608 0 l 554 0 l 514 376 l 434 0 l 304 0 l 384 376 l 184 0 l 43 0 l 251 391 l 210 781 l 350 781 l 390 406 l 470 781 l 600 781 l 520 406 l 720 781 l 861 781 l 652 391 l 680 130 l 722 130 l 667 -130 z "},"җ":{"ha":738,"x_min":43,"x_max":833,"o":"m 667 -130 l 580 -130 l 608 0 l 554 0 l 500 313 l 434 0 l 304 0 l 370 313 l 184 0 l 43 0 l 237 326 l 182 651 l 322 651 l 376 338 l 442 651 l 572 651 l 506 338 l 692 651 l 833 651 l 638 326 l 672 130 l 722 130 l 667 -130 z "},"Қ":{"ha":477,"x_min":43,"x_max":600,"o":"m 406 -130 l 319 -130 l 347 0 l 281 0 l 229 260 l 174 0 l 43 0 l 210 781 l 340 781 l 256 391 l 460 781 l 600 781 l 345 302 l 395 130 l 462 130 l 406 -130 z "},"қ":{"ha":477,"x_min":43,"x_max":572,"o":"m 406 -130 l 319 -130 l 347 0 l 281 0 l 211 177 l 174 0 l 43 0 l 182 651 l 312 651 l 245 338 l 432 651 l 572 651 l 334 252 l 382 130 l 462 130 l 406 -130 z "},"Ң":{"ha":477,"x_min":43,"x_max":600,"o":"m 462 130 l 505 130 l 450 -130 l 363 -130 l 391 0 l 304 0 l 373 326 l 243 326 l 174 0 l 43 0 l 210 781 l 340 781 l 271 456 l 401 456 l 470 781 l 600 781 l 462 130 z "},"ң":{"ha":477,"x_min":43,"x_max":572,"o":"m 442 651 l 572 651 l 462 130 l 505 130 l 450 -130 l 363 -130 l 391 0 l 304 0 l 359 260 l 229 260 l 174 0 l 43 0 l 182 651 l 312 651 l 256 391 l 387 391 l 442 651 z "},"Ҭ":{"ha":477,"x_min":174,"x_max":600,"o":"m 332 130 l 375 130 l 319 -130 l 233 -130 l 260 0 l 174 0 l 312 651 l 182 651 l 210 781 l 600 781 l 572 651 l 442 651 l 332 130 z "},"ҭ":{"ha":477,"x_min":154,"x_max":572,"o":"m 332 130 l 375 130 l 319 -130 l 233 -130 l 260 0 l 174 0 l 284 521 l 154 521 l 182 651 l 572 651 l 545 521 l 414 521 l 332 130 z "},"Ҳ":{"ha":477,"x_min":43,"x_max":600,"o":"m 406 -130 l 319 -130 l 347 0 l 294 0 l 294 260 l 184 0 l 43 0 l 252 391 l 210 781 l 350 781 l 349 521 l 460 781 l 600 781 l 392 391 l 420 130 l 462 130 l 406 -130 z "},"ҳ":{"ha":477,"x_min":43,"x_max":572,"o":"m 406 -130 l 319 -130 l 347 0 l 294 0 l 280 195 l 184 0 l 43 0 l 238 326 l 182 651 l 322 651 l 336 456 l 432 651 l 572 651 l 378 326 l 412 130 l 462 130 l 406 -130 z "},"Ҷ":{"ha":477,"x_min":123,"x_max":600,"o":"m 462 130 l 505 130 l 450 -130 l 363 -130 l 391 0 l 304 0 l 470 781 l 600 781 l 462 130 m 256 391 l 387 391 q 342 298 375 336 q 273 260 309 260 l 229 260 q 145 298 175 260 q 123 362 123 326 q 126 391 123 376 l 210 781 l 340 781 l 256 391 z "},"ҷ":{"ha":477,"x_min":109,"x_max":572,"o":"m 462 130 l 505 130 l 450 -130 l 363 -130 l 391 0 l 304 0 l 442 651 l 572 651 l 462 130 m 243 326 l 373 326 q 328 233 361 271 q 258 195 294 195 l 215 195 q 131 233 161 195 q 109 296 109 260 q 113 326 109 311 l 182 651 l 312 651 l 243 326 z "},"Ӷ":{"ha":412,"x_min":43,"x_max":535,"o":"m 210 781 l 535 781 l 507 651 l 312 651 l 201 130 l 245 130 l 189 -130 l 102 -130 l 130 0 l 43 0 l 210 781 z "},"ӷ":{"ha":412,"x_min":43,"x_max":507,"o":"m 182 651 l 507 651 l 479 521 l 284 521 l 201 130 l 245 130 l 189 -130 l 102 -130 l 130 0 l 43 0 l 182 651 z "},"Ԥ":{"ha":477,"x_min":43,"x_max":600,"o":"m 174 0 l 43 0 l 210 781 l 600 781 l 462 130 l 505 130 l 450 -130 l 363 -130 l 391 0 l 304 0 l 442 651 l 312 651 l 174 0 z "},"ԥ":{"ha":477,"x_min":43,"x_max":572,"o":"m 174 0 l 43 0 l 182 651 l 572 651 l 462 130 l 505 130 l 450 -130 l 363 -130 l 391 0 l 304 0 l 414 521 l 284 521 l 174 0 z "},"Ԧ":{"ha":477,"x_min":43,"x_max":534,"o":"m 462 130 l 505 130 l 450 -130 l 363 -130 l 391 0 l 304 0 l 401 456 l 271 456 l 174 0 l 43 0 l 210 781 l 340 781 l 298 586 l 429 586 q 512 548 482 586 q 534 484 534 520 q 531 456 534 471 l 462 130 z "},"ԧ":{"ha":477,"x_min":43,"x_max":520,"o":"m 259 403 q 302 483 272 449 q 371 521 335 521 l 414 521 q 498 483 468 521 q 520 420 520 456 q 517 391 520 406 l 462 130 l 505 130 l 450 -130 l 363 -130 l 391 0 l 304 0 l 387 391 l 257 391 l 174 0 l 43 0 l 210 781 l 340 781 l 259 403 z "},"Ԯ":{"ha":477,"x_min":43,"x_max":600,"o":"m 462 130 l 505 130 l 450 -130 l 363 -130 l 391 0 l 304 0 l 442 651 l 422 651 l 176 0 l 43 0 l 338 781 l 600 781 l 462 130 z "}}}
